<?xml version="1.0" encoding="UTF-8" standalone="no"?>
<!-- Created with Inkscape (http://www.inkscape.org/) -->

<svg
   width="100.14285mm"
   height="71.405342mm"
   viewBox="0 0 100.14285 71.405343"
   version="1.1"
   id="svg1"
   inkscape:export-filename="USBROPEN_LOGIN2.svg"
   inkscape:export-xdpi="96"
   inkscape:export-ydpi="96"
   xml:space="preserve"
   sodipodi:docname="USBROPEN_Avalon.svg"
   inkscape:version="1.4.3 (0d15f75, 2025-12-25)"
   xmlns:inkscape="http://www.inkscape.org/namespaces/inkscape"
   xmlns:sodipodi="http://sodipodi.sourceforge.net/DTD/sodipodi-0.dtd"
   xmlns="http://www.w3.org/2000/svg"
   xmlns:svg="http://www.w3.org/2000/svg"><sodipodi:namedview
     id="namedview1"
     pagecolor="#ffffff"
     bordercolor="#000000"
     borderopacity="0.25"
     inkscape:showpageshadow="2"
     inkscape:pageopacity="0.0"
     inkscape:pagecheckerboard="0"
     inkscape:deskcolor="#d1d1d1"
     inkscape:document-units="mm"
     showguides="true"
     inkscape:zoom="1.1767066"
     inkscape:cx="413.01715"
     inkscape:cy="218.83111"
     inkscape:window-width="1920"
     inkscape:window-height="1009"
     inkscape:window-x="3832"
     inkscape:window-y="105"
     inkscape:window-maximized="1"
     inkscape:current-layer="layer1"><sodipodi:guide
       position="93.038363,227.77634"
       orientation="0,-1"
       id="guide5"
       inkscape:locked="false" /><inkscape:page
       x="0"
       y="0"
       width="100.14285"
       height="71.405342"
       id="page2"
       margin="0"
       bleed="0" /></sodipodi:namedview><defs
     id="defs1" /><g
     inkscape:label="Layer 1"
     inkscape:groupmode="layer"
     id="layer1"
     transform="translate(-28.520832,-43.371589)"><path
       style="fill:#093b60;fill-opacity:1;stroke-width:0.985762"
       d="m 62.824248,111.39406 -2.918517,-3.05322 -0.01399,2.29427 c -0.01389,2.28113 -0.0099,2.29683 0.766795,2.73858 0.429438,0.24435 0.781542,0.53232 0.78245,0.63991 9.06e-4,0.10754 -0.819918,0.1956 -1.824065,0.1956 -1.043263,0 -1.825711,-0.11176 -1.825711,-0.2608 0,-0.14346 0.108986,-0.26083 0.242182,-0.26083 0.133206,0 0.426618,-0.18444 0.652043,-0.40985 0.542041,-0.54203 0.592619,-5.50009 0.06349,-6.22372 -0.398406,-0.54484 -1.699701,-0.63513 -2.006205,-0.1392 -0.113697,0.18395 -0.283387,1.40165 -0.377093,2.70597 -0.205384,2.8587 -0.502285,3.71054 -1.467189,4.20951 -1.572439,0.81314 -4.541319,0.29166 -5.184804,-0.91071 -0.147707,-0.27597 -0.270148,-1.53646 -0.272111,-2.80107 -0.0039,-2.77642 -0.163528,-3.47297 -0.793913,-3.47297 -0.2617,0 -0.548359,-0.11736 -0.63702,-0.26081 -0.103321,-0.1672 0.710322,-0.25449 2.266752,-0.24317 2.04657,0.0149 2.325521,0.065 1.7759,0.31881 -0.976605,0.45105 -1.034942,0.63414 -1.039269,3.26162 -0.0039,2.22905 0.04761,2.476 0.636191,3.0646 0.482925,0.48292 0.915389,0.63919 1.760512,0.63619 1.899772,-0.007 2.293998,-0.63359 2.293998,-3.64744 0,-2.31254 -0.270799,-3.1298 -1.037052,-3.1298 -0.273382,0 -0.569593,-0.11736 -0.658253,-0.26081 -0.104122,-0.16848 0.975925,-0.26081 3.050915,-0.26081 h 3.212117 l 2.476038,2.71773 c 1.361811,1.49475 2.564056,2.72711 2.671643,2.73857 0.241038,0.0257 0.211436,-3.25644 -0.03746,-4.15086 -0.09959,-0.35787 -0.41064,-0.69202 -0.691256,-0.74256 -0.280607,-0.0506 -0.621692,-0.19787 -0.757973,-0.32739 -0.276704,-0.263 0.525608,-0.28251 10.220326,-0.24849 6.283446,0.0221 7.626883,0.15325 8.015983,0.78284 0.44377,0.71802 0.206911,1.93656 -0.493542,2.53906 l -0.713603,0.61381 0.701202,1.10324 c 1.26566,1.99132 3.143439,3.01215 4.250145,2.31049 0.190193,-0.12057 0.408056,-0.6834 0.484157,-1.25074 0.1142,-0.85141 -0.04998,-1.40602 -0.94025,-3.17673 -0.748243,-1.48819 -1.27597,-2.22027 -1.723024,-2.39023 -0.354441,-0.13476 -0.644432,-0.30661 -0.644432,-0.38188 0,-0.0753 0.968284,-0.13314 2.151732,-0.12858 1.845367,0.007 2.08675,0.0576 1.695304,0.35478 -0.251034,0.19056 -0.456427,0.46533 -0.456427,0.61059 0,0.44417 1.054775,2.67777 1.264526,2.67777 0.108271,0 0.446245,-0.59031 0.751062,-1.31179 l 0.554215,-1.31179 -0.551632,-0.51392 -0.551634,-0.51392 h 1.744485 c 0.989114,0 1.744494,0.11292 1.744494,0.26081 0,0.14345 -0.216553,0.26081 -0.48121,0.26081 -0.594159,0 -1.030388,0.49741 -2.086484,2.3791 -0.630721,1.12379 -0.822925,1.78392 -0.822925,2.82642 0,1.27183 0.05087,1.3794 0.78245,1.65555 0.430353,0.16243 0.782448,0.38698 0.782448,0.49897 0,0.112 -1.555109,0.20319 -3.455817,0.20266 -4.078001,-9.9e-4 -4.716124,-0.2551 -5.865237,-2.33417 -1.068448,-1.93315 -1.894043,-2.07073 -1.894043,-0.31565 0,1.14674 0.60854,2.12916 1.31887,2.12916 0.278765,0 0.50684,0.11737 0.50684,0.26083 0,0.15443 -0.951192,0.2608 -2.331949,0.2608 -1.282576,0 -2.404491,-0.11735 -2.49315,-0.2608 -0.08862,-0.14346 0.05698,-0.26083 0.323674,-0.26083 0.956219,0 1.110816,-0.51635 1.110816,-3.71004 0,-3.07058 -0.0029,-3.0852 -0.669017,-3.33846 -0.966727,-0.36753 -0.978744,-0.35562 -0.795727,0.78892 0.102293,0.63967 0.06476,1.04326 -0.09709,1.04326 -0.145143,0 -0.263898,-0.12271 -0.263898,-0.27267 0,-0.58554 -1.292482,-1.55305 -2.074675,-1.55305 h -0.794307 v 3.11117 c 0,3.30192 0.211633,3.93087 1.322715,3.93087 0.276645,0 0.502996,0.11737 0.502996,0.26083 0,0.15545 -0.994664,0.2608 -2.462356,0.2608 -1.360233,0 -2.534514,-0.11674 -2.623557,-0.2608 -0.08862,-0.14346 0.07207,-0.26083 0.357201,-0.26083 1.127525,0 1.338103,-0.61861 1.338103,-3.93087 v -3.11117 h -0.669185 c -0.926252,0 -1.599803,0.40841 -2.054053,1.24543 l -0.38567,0.7107 -0.0104,-1.10848 c -0.01072,-1.14663 -0.128326,-1.27313 -0.792887,-0.85336 -0.309382,0.19543 -0.409565,0.99938 -0.478884,3.84305 -0.04821,1.97777 -0.166328,3.67883 -0.26248,3.78016 -0.09611,0.10137 -1.488155,-1.18971 -3.093342,-2.86897 z m 17.294797,-2.27512 c 0.478755,-0.47875 0.609585,-0.814 0.483438,-1.23886 -0.223946,-0.75431 -0.84814,-1.23455 -1.604604,-1.23455 -0.562132,0 -0.602193,0.10408 -0.602193,1.5649 0,1.40262 0.0553,1.5649 0.533485,1.5649 0.293422,0 0.828858,-0.29538 1.189874,-0.65639 z m -47.929523,4.56295 c -1.524038,-0.80514 -2.045004,-1.66026 -2.043879,-3.3549 0.0019,-3.05977 2.420096,-4.86708 5.823164,-4.35236 1.512327,0.22875 1.783225,0.46062 1.835451,1.57101 0.05372,1.14115 -0.2611,1.47047 -0.588107,0.61529 -0.400337,-1.04697 -1.284812,-1.63825 -2.40661,-1.60884 -2.940253,0.0771 -3.904911,4.60056 -1.401094,6.57006 1.087878,0.85573 2.341609,0.75077 3.371209,-0.28222 0.464669,-0.46623 0.906329,-1.02371 0.981474,-1.23888 0.298016,-0.85342 0.424736,-0.0447 0.157782,1.00697 -0.34135,1.3448 -0.861044,1.6061 -3.161735,1.58966 -1.073041,-0.008 -1.932705,-0.18036 -2.567655,-0.51579 z m 8.284544,-0.0492 c -3.015378,-1.77206 -2.488724,-6.35124 0.859418,-7.47264 1.994108,-0.66791 4.474721,0.0443 5.618569,1.61309 0.752433,1.03198 0.75197,3.50161 -8.47e-4,4.50992 -1.018854,1.36464 -1.833223,1.77375 -3.708853,1.86321 -1.452343,0.0693 -1.926051,-0.0186 -2.768287,-0.51358 z m 3.769132,-0.21365 c 1.2491,-0.66849 1.711047,-3.58966 0.853464,-5.39688 -0.89389,-1.88373 -3.248758,-2.0138 -4.189481,-0.23141 -0.893003,1.69198 -0.280429,4.94032 1.053139,5.58462 0.748135,0.36146 1.656603,0.37884 2.282878,0.0436 z m 52.540033,0.38002 c -1.987396,-1.03363 -2.768178,-2.70691 -2.203761,-4.72281 0.688466,-2.45894 3.604648,-3.76282 6.57244,-2.93862 0.94311,0.26192 0.97806,0.31312 0.97806,1.43304 0,0.63877 -0.11737,1.16141 -0.26082,1.16141 -0.14344,0 -0.26081,-0.16952 -0.26081,-0.37668 0,-0.20719 -0.28096,-0.70332 -0.62436,-1.10255 -1.167458,-1.35724 -3.672282,-0.74168 -4.320273,1.06172 -1.291545,3.5945 2.097032,6.97397 4.537573,4.52537 0.46467,-0.46622 0.90634,-1.0237 0.98148,-1.23888 0.0752,-0.21519 0.20627,-0.32787 0.2914,-0.25042 0.30921,0.28131 -0.52614,2.43305 -1.01969,2.62658 -0.91866,0.36021 -3.851124,0.24837 -4.671239,-0.17816 z m 5.868369,0.17762 c 0,-0.12791 0.2794,-0.30268 0.62088,-0.38838 0.777,-0.19502 0.93598,-0.78154 0.94046,-3.46995 0.004,-2.48721 -0.24621,-3.32086 -1.0849,-3.61256 -0.50017,-0.17396 -0.38906,-0.2286 0.63203,-0.31076 0.68138,-0.0548 1.79637,-0.0608 2.47775,-0.0131 1.17497,0.0821 1.16158,0.20257 -0.0652,0.58582 -0.32042,0.10007 -0.39122,0.71358 -0.39122,3.39061 v 3.26839 h 1.03099 c 1.35842,0 2.17362,-0.39714 2.72249,-1.3263 0.45242,-0.76588 1.11705,-1.073 0.85732,-0.39615 -0.0768,0.20024 -0.28402,0.84577 -0.46042,1.43449 l -0.32069,1.07041 h -3.47975 c -1.91385,0 -3.47973,-0.10463 -3.47973,-0.23254 z m 10.69348,0.0621 c -0.21519,-0.0862 -0.65531,-0.39701 -0.97807,-0.69065 -0.52174,-0.47467 -0.58972,-0.79652 -0.61284,-2.90099 -0.0323,-2.93874 -0.21367,-3.64615 -0.96275,-3.75451 -0.31688,-0.0458 -0.57614,-0.19254 -0.57614,-0.32602 0,-0.13347 0.99762,-0.24267 2.21693,-0.24267 1.21932,0 2.21694,0.0616 2.21694,0.13686 0,0.0753 -0.29341,0.24841 -0.65205,0.38476 -0.6381,0.24261 -0.65202,0.30616 -0.65202,2.974 0,2.63439 0.0231,2.74428 0.68721,3.26667 0.87932,0.69166 2.43426,0.71169 3.26131,0.042 0.54206,-0.43893 0.62607,-0.75872 0.70234,-2.67337 0.0982,-2.46762 -0.21093,-3.60929 -0.97759,-3.60929 -0.28199,0 -0.58524,-0.11737 -0.67389,-0.26081 -0.23732,-0.38399 8.86879,-0.34696 9.60214,0.0391 1.26613,0.66644 1.34377,2.01468 0.15919,2.76469 l -0.80172,0.50762 0.76686,0.31764 c 1.50789,0.6246 1.80437,2.54173 0.53855,3.48249 -0.55363,0.41145 -1.25932,0.53927 -3.58622,0.64956 -2.82296,0.13381 -3.54352,-0.0509 -2.31014,-0.59196 0.55643,-0.24411 0.59065,-0.42324 0.6601,-3.45585 l 0.0732,-3.19839 -0.71789,-0.27294 c -1.62927,-0.61946 -2.15839,0.35653 -2.16432,3.99223 -0.003,1.56305 -0.0851,1.84858 -0.75092,2.59363 -0.67465,0.75505 -0.9114,0.84436 -2.41255,0.91011 -0.91549,0.0402 -1.84055,0.002 -2.05573,-0.0838 z m 11.69296,-0.76718 c 0.92664,-0.64905 0.7041,-2.14048 -0.41669,-2.79261 -1.34159,-0.78059 -1.72739,-0.45653 -1.54622,1.29885 0.19503,1.88968 0.77142,2.3283 1.96291,1.49376 z m -0.36609,-4.16692 c 0.96843,-0.96843 0.27866,-2.45912 -1.1379,-2.45912 -0.47918,0 -0.53877,0.15866 -0.53877,1.4345 0,1.34498 0.0395,1.43448 0.63341,1.43448 0.34838,0 0.81784,-0.18444 1.04326,-0.40986 z M 38.8869,99.538333 c -0.8682,-1.9824 -1.793979,-3.696977 -2.171369,-4.021445 l -0.657868,-0.56563 2.130037,-0.08642 c 1.98008,-0.08033 2.814913,0.174227 1.607176,0.490058 -0.286896,0.07502 -0.521635,0.331677 -0.521635,0.570337 0,0.374302 1.702667,4.685437 1.946988,4.929757 0.167945,0.16795 1.704443,-4.107098 1.704443,-4.742334 0,-0.459402 -0.201362,-0.712263 -0.717251,-0.90068 -0.596091,-0.21771 -0.386823,-0.265219 1.238877,-0.281256 l 1.956127,-0.01929 -0.708339,0.585542 c -0.460706,0.380834 -1.223756,1.793702 -2.182616,4.041357 -0.810859,1.900691 -1.617557,3.455811 -1.792678,3.455811 -0.175121,0 -0.999465,-1.55512 -1.831892,-3.455811 z m 4.396136,3.204977 c -0.06654,-0.0663 0.129973,-0.30977 0.436772,-0.54119 0.514075,-0.38776 3.117109,-5.950311 3.117109,-6.661083 0,-0.297137 1.270835,-1.288883 1.421676,-1.109462 0.03982,0.04733 0.639345,1.602569 1.332366,3.456098 0.693011,1.85353 1.516744,3.668507 1.830512,4.033277 0.507963,0.59055 0.64528,0.62914 1.25316,0.35216 0.677978,-0.3089 0.682661,-0.33133 0.678698,-3.250818 -0.0019,-1.616875 -0.0902,-3.070666 -0.195615,-3.230642 -0.10539,-0.159977 -0.46454,-0.376086 -0.798113,-0.480243 -1.004393,-0.313618 -0.458725,-0.452243 1.780169,-0.452243 2.238893,0 2.784561,0.138625 1.780169,0.452243 -0.333573,0.104156 -0.692726,0.320266 -0.798114,0.480243 -0.105389,0.159976 -0.193416,1.669933 -0.195613,3.355458 l -0.0039,3.064592 H 55.9533 c 0.567051,0 1.300596,-0.12411 1.630107,-0.27582 0.887609,-0.40863 2.033598,-2.155365 2.033598,-3.099637 0,-2.633691 2.223505,-4.408568 5.145147,-4.107028 2.515893,0.259662 3.853021,1.679679 3.853021,4.091873 0,2.479692 -1.419025,3.932782 -4.024632,4.121252 -1.98507,0.1436 -3.581334,-0.5603 -4.35983,-1.92249 l -0.53453,-0.93534 -0.340945,1.21775 c -0.187522,0.66975 -0.469411,1.26414 -0.626422,1.32084 -0.522416,0.18869 -10.327459,0.24374 -10.327183,0.058 1.48e-4,-0.1004 0.205019,-0.29723 0.455255,-0.43728 0.419639,-0.23483 0.424705,-0.34225 0.06525,-1.38224 -0.383817,-1.110353 -0.409013,-1.128186 -1.645741,-1.16488 -1.110441,-0.03295 -1.284191,0.03702 -1.499689,0.60381 -0.447516,1.17706 -0.303319,1.88631 0.420447,2.06797 0.365305,0.0916 0.598082,0.23281 0.517279,0.3136 -0.177181,0.17719 -3.259423,0.2322 -3.431261,0.0612 z m 21.911961,-0.52041 c 1.737751,-0.66069 2.048394,-4.616303 0.497139,-6.330417 -0.534579,-0.590696 -1.963284,-0.848052 -2.654451,-0.47815 -1.878528,1.005357 -1.861376,5.328887 0.02642,6.651117 0.669914,0.46923 1.206602,0.50889 2.130931,0.15745 z M 48.140991,98.895012 c 0,-0.102791 -0.199281,-0.70872 -0.442854,-1.34651 l -0.442863,-1.159617 -0.450651,1.020489 c -0.658548,1.491254 -0.612642,1.67253 0.423513,1.67253 0.502079,0 0.912855,-0.08411 0.912855,-0.186892 z m 25.820814,1.131678 -2.738565,-2.935577 -0.07788,1.839978 c -0.103451,2.444049 0.0552,2.950999 1.061271,3.391159 0.817483,0.35766 0.780784,0.36885 -1.2442,0.37936 -1.993586,0.0108 -2.054584,-0.006 -1.369292,-0.37828 l 0.71725,-0.38911 v -2.994886 -2.994892 l -0.847651,-0.516824 -0.847648,-0.516824 1.564899,0.01823 c 1.555996,0.01813 1.571403,0.0259 2.710275,1.368311 1.463167,1.724673 3.674646,4.088645 3.824896,4.088645 0.226488,0 0.111184,-3.629168 -0.135947,-4.279197 -0.144917,-0.381148 -0.537132,-0.7334 -0.92501,-0.830751 -1.336486,-0.335437 -0.341921,-0.506378 2.31396,-0.397713 l 0.746142,0.03053 -0.597519,0.483835 c -0.560327,0.45373 -0.602656,0.701229 -0.680285,3.977449 -0.06032,2.546837 -0.171306,3.506957 -0.409446,3.542867 -0.179666,0.0271 -1.559023,-1.27175 -3.065239,-2.88631 z m 10.243423,2.42152 c -2.854266,-1.41284 -2.937927,-5.456372 -0.146642,-7.086573 1.11949,-0.653818 3.419018,-0.867487 4.893393,-0.454688 1.169538,0.327452 1.180441,0.341025 1.180441,1.470281 0,0.626877 -0.117365,1.139777 -0.260814,1.139777 -0.143447,0 -0.260822,-0.108363 -0.260822,-0.240806 0,-0.52848 -1.364049,-1.81745 -2.092675,-1.977483 -1.361101,-0.298948 -2.500653,0.279307 -3.13572,1.591194 -1.057062,2.183596 -0.0694,4.703048 2.098244,5.352498 1.471793,0.44095 1.826076,0.20643 1.826076,-1.20879 0,-1.098133 -0.06832,-1.224154 -0.847657,-1.562873 -0.466207,-0.202633 -0.759629,-0.379196 -0.652043,-0.392361 0.205098,-0.02509 3.709425,-0.03396 4.035485,-0.01018 0.103647,0.0076 -0.07245,0.196433 -0.39123,0.419741 -0.731139,0.512113 -0.808926,2.047513 -0.123229,2.432463 0.384595,0.21592 0.394857,0.27729 0.06516,0.38997 -2.477516,0.84687 -4.65753,0.89544 -6.188005,0.13786 z m 9.321094,-0.0474 c -2.852048,-1.5082 -2.776184,-5.825684 0.127074,-7.231125 2.933254,-1.419968 6.357874,0.08507 6.792794,2.985284 0.5292,3.528981 -3.546491,6.029721 -6.919868,4.245841 z m 3.632809,-0.31159 c 2.009685,-1.03925 1.642734,-5.76858 -0.516983,-6.663165 -1.216548,-0.503911 -2.085607,-0.09913 -2.809935,1.308784 -0.686406,1.334194 -0.667952,2.685857 0.05756,4.214721 0.679684,1.43231 1.888553,1.8537 3.269379,1.13966 z m 4.840429,0.64013 c -1.07678,-0.11098 -1.19919,-0.1717 -0.70231,-0.34835 0.83945,-0.29843 1.09644,-1.16899 1.07521,-3.642093 -0.0213,-2.483687 -0.16935,-2.976656 -1.03827,-3.457859 -0.57368,-0.317705 -0.38645,-0.35362 1.83905,-0.352751 2.36086,9.2e-4 2.43776,0.01835 1.6301,0.369392 l -0.84765,0.368424 v 3.272794 3.272793 h 1.19975 c 1.00639,0 1.33593,-0.13661 2.04461,-0.84766 0.46468,-0.4662 0.90634,-1.02369 0.98149,-1.23886 0.0752,-0.215187 0.22332,-0.310815 0.32929,-0.212515 0.10603,0.09828 -0.005,0.773155 -0.24607,1.499685 l -0.43875,1.32098 -1.34833,0.0189 c -0.74157,0.0108 -1.75911,0.0397 -2.26117,0.0653 -0.50208,0.0255 -1.4997,-0.0142 -2.21695,-0.0881 z m 7.83121,0.004 c -1.4517,-0.1215 -1.51151,-0.15144 -0.87537,-0.43821 0.59081,-0.26634 0.70754,-0.52105 0.86654,-1.89091 0.10105,-0.870721 0.1017,-2.289767 9.9e-4,-3.153441 -0.15515,-1.336696 -0.28506,-1.626159 -0.87326,-1.945679 -0.637,-0.346027 -0.45658,-0.377741 2.30838,-0.405762 1.64967,-0.01672 3.20478,-0.06972 3.45582,-0.117773 0.35747,-0.06844 0.45555,0.09137 0.45243,0.7372 -0.005,1.312641 -0.38974,1.68462 -0.81606,0.791794 -0.31853,-0.667068 -0.51009,-0.758406 -1.73853,-0.828968 l -1.38054,-0.0793 0.0786,1.51379 c 0.0778,1.496773 0.0882,1.514706 0.92195,1.595195 0.6218,0.06002 1.01441,-0.0897 1.49472,-0.569997 0.35826,-0.35827 0.68651,-0.570954 0.72943,-0.472628 0.0682,0.15616 0.0381,2.207016 -0.0396,2.709869 -0.0157,0.10107 -0.31652,-0.10432 -0.66861,-0.456426 -0.74052,-0.74051 -2.15391,-0.877994 -2.4012,-0.233567 -0.0859,0.22364 -0.0529,0.888393 0.0733,1.477223 0.19348,0.90291 0.37241,1.12209 1.14227,1.39926 0.50208,0.18075 0.85418,0.34606 0.78246,0.36734 -0.38679,0.11482 -2.14833,0.1153 -3.51431,9.9e-4 z m 9.14504,-0.54165 c -0.94638,-1.12471 -0.88925,-2.16546 0.17739,-3.232113 l 0.85262,-0.85262 -0.49537,-0.663492 c -0.9819,-1.315157 0.20434,-2.795431 2.24016,-2.795431 1.9776,0 2.80964,1.87913 1.25159,2.826639 l -0.77554,0.471626 1.01372,0.989856 1.0137,0.989858 0.4066,-0.786285 c 0.38667,-0.747741 0.3782,-0.806112 -0.17297,-1.190818 -0.54574,-0.380922 -0.46158,-0.405335 1.44175,-0.418217 1.18279,-0.008 2.02133,0.09452 2.02133,0.247137 0,0.143448 -0.18188,0.260816 -0.40418,0.260816 -0.71557,0 -1.88594,0.751952 -2.48938,1.599399 l -0.58732,0.824825 0.95415,0.87441 c 0.64124,0.58765 1.21203,0.87442 1.74045,0.87442 0.43245,0 0.78628,0.10364 0.78628,0.2304 0,0.31387 -0.95041,0.5442 -2.26323,0.54849 -0.85712,0.003 -1.20012,-0.13705 -1.60803,-0.6556 l -0.51849,-0.65915 -0.97131,0.65915 c -1.40151,0.9511 -2.73764,0.8981 -3.61392,-0.1433 z m 3.35045,-0.49517 c 0.36796,-0.13989 0.66902,-0.3607 0.66902,-0.49068 0,-0.12997 -0.55207,-0.77293 -1.22681,-1.428785 -1.36953,-1.331212 -1.90299,-1.272562 -1.90299,0.209227 0,0.816358 0.4852,1.478478 1.30409,1.779568 0.21516,0.0792 0.41293,0.15311 0.43944,0.16444 0.0265,0.0114 0.34929,-0.0938 0.71725,-0.23377 z m -0.10549,-5.862225 c -0.23626,-0.640115 -1.0305,-0.855712 -1.34194,-0.364271 -0.357,0.563323 -0.27001,0.946924 0.34452,1.519453 l 0.57538,0.53605 0.30961,-0.578506 c 0.17681,-0.330369 0.22503,-0.807647 0.11243,-1.112726 z m -92.671737,6.436835 c 0.499151,-0.38916 2.543908,-4.614185 3.085368,-6.375218 0.239204,-0.777975 1.144263,-1.633103 1.421932,-1.343481 0.119179,0.124317 0.757371,1.634439 1.418187,3.355825 1.649516,4.296844 1.652719,4.303464 2.082473,4.303464 0.20979,0 0.453962,0.11738 0.542623,0.26082 0.102823,0.16639 -0.623416,0.25443 -2.005939,0.24316 -1.753099,-0.0143 -2.055009,-0.0718 -1.580285,-0.30066 0.683734,-0.32977 0.723481,-0.67548 0.217005,-1.88763 -0.350833,-0.839657 -0.430965,-0.881892 -1.560165,-0.822277 -0.654684,0.0346 -1.261017,0.133521 -1.34741,0.219913 -0.08635,0.08635 -0.219421,0.621934 -0.29563,1.190114 -0.127804,0.95284 -0.08053,1.05416 0.608767,1.30503 0.638597,0.23241 0.462728,0.27414 -1.208801,0.28678 -1.901378,0.0144 -1.93994,0.002 -1.378125,-0.43584 z m 4.507921,-3.273147 c 0,-0.04617 -0.196137,-0.659596 -0.435875,-1.363171 l -0.435873,-1.279223 -0.457641,1.03715 c -0.665991,1.509357 -0.621651,1.689191 0.416534,1.689191 0.502078,0 0.912855,-0.03778 0.912855,-0.08395 z M 65.876503,88.920708 c -1.876496,-0.519594 -3.374865,-0.763782 -4.759901,-0.775713 -1.585796,-0.01366 -2.021326,-0.09906 -2.021326,-0.396379 0,-0.91292 3.282797,-1.174235 6.517487,-0.518803 2.123785,0.430334 4.828027,0.421882 4.828027,-0.0151 0,-0.143449 -0.938938,-0.336447 -2.086534,-0.428884 -1.147584,-0.09244 -2.73205,-0.355123 -3.521015,-0.583742 -0.788974,-0.22862 -1.933306,-0.417066 -2.542961,-0.418768 -2.804168,-0.0078 0.380642,-1.456735 4.026396,-1.831777 2.957819,-0.304274 4.938748,-0.82157 6.611242,-1.726443 1.497541,-0.81022 1.674485,-1.108698 2.468261,-4.163772 0.757322,-2.914805 0.816428,-5.16486 0.184318,-7.017224 -0.394059,-1.15477 -0.519674,-1.29282 -1.097056,-1.205715 -0.35862,0.0541 -0.828089,0.121086 -1.043262,0.148852 -0.215172,0.02777 -0.601679,0.144711 -0.858904,0.259874 -0.672891,0.30127 -0.822807,0.01334 -0.455166,-0.874213 0.487065,-1.175865 -0.267299,-1.859908 -1.033276,-0.936962 -0.178581,0.215175 -0.548734,0.391225 -0.822569,0.391225 -1.3245,0 -0.695417,2.054054 0.841299,2.747019 1.658151,0.747722 1.253337,1.426043 -0.851049,1.426043 h -1.050468 l 0.112545,0.964059 c 0.07354,0.630217 -0.02691,1.126965 -0.290238,1.43449 -0.581816,0.679504 -0.925483,0.58335 -1.348267,-0.377225 -0.293747,-0.66738 -0.565561,-0.875386 -1.278109,-0.978059 -0.771399,-0.111156 -1.043066,0.0043 -1.840084,0.782448 -1.718904,1.678062 -2.5617,1.851759 -4.101324,0.845269 -0.714716,-0.467224 -0.768707,-1.106086 -0.09344,-1.106086 0.30873,0 0.554599,-0.24401 0.65701,-0.65204 0.09,-0.358622 0.344386,-0.652041 0.565295,-0.652041 0.220909,0 0.329117,-0.117368 0.240457,-0.260815 -0.08862,-0.14345 -0.510053,-0.260818 -0.936435,-0.260818 -0.9949,0 -1.289712,-0.67461 -0.527984,-1.208151 0.612474,-0.428993 0.500333,-0.934368 -0.188793,-0.850776 -0.238328,0.02892 -0.619975,-0.02952 -0.84812,-0.129857 -0.423188,-0.18611 -2.58459,1.031664 -2.58459,1.456204 0,0.119914 0.142275,0.44583 0.316153,0.724258 0.414188,0.663222 0.309174,0.735619 -1.213079,0.836272 -1.214046,0.08028 -1.317934,0.03511 -1.904453,-0.82795 -0.341202,-0.502071 -0.877438,-0.976352 -1.19164,-1.053957 -0.343863,-0.08493 -0.606046,-0.382731 -0.658656,-0.748124 -0.04811,-0.333864 -0.493907,-1.013543 -0.990761,-1.510397 -0.734797,-0.734798 -0.974002,-0.84475 -1.281894,-0.589226 -0.208184,0.17278 -0.378523,0.453395 -0.378523,0.623587 0,0.170191 -0.16274,0.532003 -0.361647,0.804026 -0.34965,0.478166 -0.393478,0.470312 -1.320281,-0.236597 -1.35845,-1.036139 -1.565441,-1.742381 -0.890282,-3.037696 0.380347,-0.729701 0.676155,-1.00983 0.972563,-0.921001 0.446738,0.133877 1.860459,-0.932546 1.860459,-1.40341 0,-0.15033 -0.345174,-0.273325 -0.767052,-0.273325 -0.421886,0 -0.833047,-0.106776 -0.913702,-0.237281 -0.285851,-0.462513 0.192154,-1.095101 0.940605,-1.24479 0.417371,-0.08347 0.921333,-0.38372 1.119895,-0.667208 0.198562,-0.283489 0.470474,-0.447787 0.604252,-0.365106 0.133788,0.08268 0.465921,-0.02196 0.73809,-0.232542 0.471303,-0.364648 0.47292,-0.399913 0.03391,-0.740955 -0.256406,-0.199179 -0.393191,-0.534699 -0.308248,-0.756069 0.08399,-0.218889 0.0273,-0.475463 -0.125872,-0.570163 -0.563629,-0.348342 -0.249103,-0.834234 0.902052,-1.393506 1.520331,-0.738636 1.592065,-0.728887 1.786388,0.242734 0.158225,0.79111 0.198424,0.812378 1.300576,0.68815 1.409295,-0.158848 2.442512,-1.040828 1.932084,-1.649265 -0.869511,-1.036481 -1.086202,-1.159305 -2.04527,-1.159305 -0.838105,0 -1.024631,-0.09157 -1.024631,-0.503003 0,-0.766744 0.720406,-1.322712 1.713936,-1.322712 0.491826,0 0.894224,-0.117366 0.894224,-0.260816 0,-0.143449 0.188774,-0.260816 0.419502,-0.260816 0.314103,0 0.379498,-0.159368 0.2603,-0.634301 -0.122244,-0.487034 -0.03795,-0.672777 0.362947,-0.800025 0.287183,-0.09115 0.52215,-0.279311 0.52215,-0.418141 0,-0.15376 0.203875,-0.143304 0.521635,0.02675 0.286896,0.153544 0.521626,0.513458 0.521626,0.799811 0,0.696877 0.770215,0.969736 1.17494,0.416241 0.174381,-0.238483 0.436456,-0.433603 0.582388,-0.433603 0.145932,0 0.411448,-0.17605 0.590019,-0.391224 0.178581,-0.215174 0.538128,-0.391225 0.799,-0.391225 0.665173,0 0.812218,-0.359245 0.384595,-0.939636 -0.354855,-0.481641 -0.379282,-0.479185 -0.914659,0.09198 -0.72771,0.776347 -2.094647,0.815249 -2.094647,0.05961 0,-0.308182 0.268817,-0.649705 0.647025,-0.822029 0.35587,-0.162144 0.713977,-0.505726 0.795796,-0.763516 0.08181,-0.257791 0.370232,-0.539005 0.640933,-0.624919 0.288867,-0.09169 0.525756,-0.447334 0.573497,-0.860995 0.106191,-0.920395 1.043015,-1.095606 1.600711,-0.299378 0.372697,0.532096 0.431527,0.540674 0.996072,0.145247 0.329995,-0.231135 0.801682,-0.420247 1.048202,-0.420247 0.561598,0 0.907019,0.517909 0.509343,0.763692 -0.304591,0.188246 -0.121633,1.844472 0.203757,1.844472 0.09286,0 0.383501,-0.398487 0.645783,-0.885526 0.320826,-0.595731 0.724328,-0.935013 1.232991,-1.036745 0.786471,-0.157294 0.977186,-0.714766 0.501783,-1.466753 -0.181686,-0.28738 -0.03036,-0.612508 0.576789,-1.238877 0.959433,-0.989885 1.13344,-1.033324 1.317649,-0.328925 0.216158,0.826614 0.847244,0.880845 1.591346,0.136747 0.374422,-0.374426 0.680768,-0.779123 0.680768,-0.89933 0,-0.120206 0.264075,-0.281446 0.586844,-0.358312 0.322758,-0.07687 0.835749,-0.217641 1.139985,-0.312832 0.403837,-0.126359 0.804934,0.048 1.485987,0.645974 0.888832,0.780404 0.962528,0.799602 1.561842,0.406918 0.795047,-0.520935 1.484933,-0.26984 1.484933,0.540463 0,0.746001 0.566695,0.819939 1.285395,0.167709 1.287189,-1.168155 1.336575,-1.189227 1.980209,-0.844763 0.336303,0.17998 0.785712,0.26037 0.998686,0.178642 0.212984,-0.08173 0.451952,0.02005 0.53104,0.226161 0.08774,0.228581 0.505577,0.374755 1.071306,0.374755 0.749348,0 0.975117,0.125244 1.175404,0.652041 0.268285,0.705645 1.043272,0.89939 1.043272,0.260817 0,-0.515292 0.423109,-0.502531 0.623159,0.01879 0.08783,0.228972 0.41689,0.388972 0.745148,0.362355 0.323301,-0.02621 0.734522,-0.03467 0.913832,-0.01879 0.451538,0.03999 0.409416,0.939051 -0.0623,1.330568 -0.213595,0.177267 -0.32404,0.426374 -0.245425,0.553568 0.231289,0.374231 0.587582,0.266048 0.743698,-0.22581 0.07974,-0.251391 0.38566,-0.607328 0.679723,-0.790971 0.445052,-0.277939 0.60164,-0.266904 0.934394,0.06585 0.219864,0.21986 0.567414,0.399746 0.772345,0.399746 0.20493,0 0.372598,0.188609 0.372598,0.419129 0,0.303226 0.126218,0.362558 0.456428,0.214555 0.824403,-0.369506 2.968101,-0.443926 3.285487,-0.11406 0.229042,0.238054 0.160837,0.407483 -0.286098,0.710731 -0.880345,0.597308 -0.774513,1.555958 0.19528,1.768962 1.002008,0.220077 1.565223,1.033147 1.565223,2.259576 v 0.969764 l 0.71725,-0.37415 c 0.394482,-0.205783 0.863953,-0.374874 1.043264,-0.375758 0.179305,-8.83e-4 0.326015,-0.24984 0.326015,-0.553235 0,-0.537919 0.0178,-0.540351 0.71725,-0.09781 0.39449,0.249605 0.9146,0.701455 1.15579,1.00411 0.32352,0.405929 0.7114,0.54313 1.47862,0.523013 0.9966,-0.02613 1.02855,-0.002 0.76419,0.578214 -0.15173,0.333017 -0.6704,0.7927 -1.15259,1.021518 -0.4822,0.228815 -0.87672,0.514828 -0.87672,0.635582 0,0.120754 -0.43987,0.302072 -0.97746,0.402927 -0.90227,0.169265 -1.35595,0.495815 -1.3659,0.983149 -0.002,0.107588 0.15769,0.195612 0.35529,0.195612 0.19762,0 0.50179,0.171704 0.67597,0.381565 0.27058,0.326036 0.39859,0.329511 0.87958,0.02388 0.30962,-0.196725 1.25572,-0.497841 2.10247,-0.669148 1.36557,-0.276269 1.56691,-0.262596 1.78157,0.120986 0.19031,0.340076 0.32108,0.366829 0.61219,0.125239 0.30603,-0.253995 0.37016,-0.168181 0.37016,0.495351 0,0.711202 0.10429,0.822123 0.91574,0.97436 0.50366,0.09448 0.98005,0.275855 1.05866,0.403042 0.0786,0.127188 0.42941,0.23125 0.77956,0.23125 0.50522,0 0.63666,0.134611 0.63666,0.652041 0,0.405714 0.14779,0.65204 0.39122,0.65204 0.46809,0 0.47438,0.05377 0.10169,0.871643 -0.26573,0.583243 -0.36737,0.614359 -1.23887,0.379258 -0.52216,-0.140861 -1.06089,-0.362571 -1.19716,-0.492689 -0.33514,-0.319994 -1.44753,-0.301368 -1.44753,0.02424 0,0.143449 -0.17605,0.260817 -0.39122,0.260817 -0.21517,0 -0.39123,0.166451 -0.39123,0.369892 0,0.712686 0.32086,1.195005 0.79497,1.195005 0.26307,0 0.55086,0.117367 0.63953,0.260816 0.0886,0.14345 0.44768,0.260817 0.79783,0.260817 0.39469,0 0.63665,0.150094 0.63665,0.394945 0,0.299434 0.1979,0.360077 0.81837,0.250767 0.45011,-0.07929 1.02923,-0.257023 1.28694,-0.394945 0.66433,-0.355538 0.76368,-0.319169 0.76368,0.279559 0,0.29168 -0.3869,0.917215 -0.85976,1.390079 -0.65447,0.654469 -0.95649,0.79873 -1.26491,0.604183 -0.29734,-0.187558 -0.5484,-0.112343 -0.94337,0.282624 l -0.53819,0.538196 0.69203,0.173689 c 0.83422,0.209377 1.07919,0.550429 1.08448,1.509802 0.003,0.457071 -0.16485,0.786093 -0.45244,0.889411 -0.25102,0.09018 -0.67513,0.389306 -0.94243,0.664705 -0.33123,0.341264 -0.68424,0.450972 -1.10847,0.344497 -0.35106,-0.0881 -0.62246,-0.04033 -0.62246,0.109558 0,0.146183 -0.17605,0.265786 -0.39122,0.265786 -0.21517,0 -0.39123,0.18704 -0.39123,0.415643 0,0.228603 -0.23954,0.478281 -0.53229,0.55484 -0.64072,0.167551 -0.53167,0.72437 0.14216,0.725929 0.26279,6.09e-4 0.52655,0.147319 0.58611,0.32602 0.0596,0.178703 0.27459,0.324915 0.47779,0.324915 0.55701,0 0.44408,0.621448 -0.22756,1.252432 -0.34356,0.322756 -0.92493,0.555944 -1.36929,0.549214 -0.42472,-0.0064 -1.28051,0.03891 -1.90175,0.100787 -1.03635,0.103202 -1.11793,0.06816 -0.98898,-0.424974 0.17502,-0.669232 -0.26442,-1.236659 -0.79887,-1.031572 -0.32755,0.125694 -0.36958,0.0089 -0.22828,-0.634473 0.12863,-0.585645 0.0691,-0.828495 -0.2315,-0.943829 -0.47513,-0.182326 -0.54099,-0.865207 -0.0977,-1.012974 0.45915,-0.153049 -7e-4,-0.723587 -0.58321,-0.723587 -0.332354,0 -0.506233,0.179164 -0.506233,0.521632 0,0.347755 -0.173879,0.521633 -0.521627,0.521633 -0.286906,0 -0.521635,0.117368 -0.521635,0.260817 0,0.143448 -0.176048,0.260815 -0.39123,0.260815 -0.215173,0 -0.39122,-0.121496 -0.39122,-0.269993 0,-0.17951 -0.181972,-0.172602 -0.543007,0.02062 -0.441001,0.236013 -0.611557,0.200988 -0.907906,-0.186435 -0.295562,-0.386409 -0.409082,-0.409986 -0.597492,-0.124097 -0.181971,0.276124 -0.354203,0.287868 -0.79127,0.05396 -0.462422,-0.247479 -0.58856,-0.221111 -0.732136,0.153044 -0.09829,0.256018 -0.0415,0.496012 0.130791,0.55345 0.167333,0.05578 0.559223,0.307887 0.870862,0.56024 0.651905,0.527876 0.433716,1.180924 -0.327993,0.981732 -0.270572,-0.07075 -0.562615,-0.0143 -0.648986,0.125466 -0.08635,0.139762 -0.325874,0.18933 -0.532204,0.110153 -0.206339,-0.07918 -0.608836,8.46e-4 -0.894441,0.177831 -0.420043,0.2603 -0.562151,0.252906 -0.74362,-0.03869 -0.175613,-0.282185 -0.262686,-0.239698 -0.400841,0.195613 -0.21741,0.68499 -0.425296,0.698295 -0.970039,0.06208 -0.23264,-0.271703 -0.637719,-0.614183 -0.900188,-0.761065 -0.462294,-0.258716 -0.462264,-0.283567 9.85e-4,-0.795504 0.263032,-0.290646 0.730056,-0.564345 1.03784,-0.608221 0.820983,-0.117036 0.698906,-0.846196 -0.158184,-0.944803 -1.050991,-0.120915 -2.364056,0.882261 -2.209952,1.688391 0.163933,0.85757 -0.196906,0.99571 -1.270342,0.486332 -0.693001,-0.328851 -0.874776,-0.548778 -0.757904,-0.916996 0.09601,-0.302639 -0.0089,-0.575167 -0.278556,-0.726319 -0.348674,-0.195127 -0.375882,-0.347358 -0.140648,-0.786902 0.217508,-0.406407 0.212155,-0.719465 -0.021,-1.231244 -0.240458,-0.527733 -0.24171,-0.799928 -0.006,-1.178268 0.16899,-0.270598 0.242478,-0.660815 0.163292,-0.86715 -0.07916,-0.206334 -0.01863,-0.452636 0.134646,-0.547336 0.314536,-0.194396 0.384289,-1.186821 0.083,-1.180668 -0.442212,0.0091 -0.815718,0.459542 -1.49129,1.798763 -0.391624,0.776342 -1.181772,1.832648 -1.75589,2.347346 -0.574107,0.514697 -1.335008,1.432013 -1.690887,2.038478 -0.581492,0.990951 -0.629262,1.281611 -0.47157,2.86898 0.591881,5.957954 1.67832,7.508894 5.193875,7.414458 3.053634,-0.08203 5.832174,0.413341 7.453418,1.328827 2.699303,1.524247 4.82506,2.535498 5.672746,2.698599 0.466219,0.08971 0.847666,0.283468 0.847666,0.430593 0,0.54255 -3.28376,0.02496 -5.125993,-0.807973 -2.523669,-1.141021 -4.88665,-1.621381 -9.088502,-1.847559 -2.008284,-0.108108 -3.990465,-0.335568 -4.40485,-0.50548 -1.159769,-0.47555 -1.107494,-0.156755 0.120116,0.732524 1.967482,1.425236 3.946253,1.853918 8.207517,1.778087 3.442528,-0.06127 3.786697,-0.02406 4.467819,0.482899 0.405878,0.302101 0.779196,0.759277 0.829588,1.015948 0.07935,0.403907 -0.02593,0.439608 -0.782448,0.265445 -2.291898,-0.527636 -3.808227,-0.582595 -5.829582,-0.211289 -1.147596,0.210803 -3.040545,0.343466 -4.206564,0.294806 -1.907243,-0.07959 -2.339174,-0.202548 -4.303464,-1.225082 -1.200895,-0.625136 -2.380419,-1.310577 -2.621172,-1.523201 -0.580584,-0.512739 -1.289751,-0.255321 -2.020842,0.733531 -0.844227,1.141882 -3.006733,2.061681 -5.159757,2.194655 -1.394272,0.08611 -2.353666,-0.05194 -4.509626,-0.648917 z m 8.098255,-3.799213 c 1.736776,-0.898121 0.31927,-1.188212 -2.490706,-0.509719 -0.860688,0.207824 -1.975685,0.381491 -2.477753,0.385929 -0.686238,0.0061 -0.815737,0.07084 -0.521636,0.260897 0.642708,0.415344 4.613536,0.316179 5.490095,-0.137107 z m 8.267965,-16.29441 c 0.68053,-0.996714 0.73174,-1.303992 0.21735,-1.303992 -0.203214,0 -0.411477,-0.125963 -0.462795,-0.279919 -0.152931,-0.458802 -1.515058,1.835662 -1.515058,2.552076 0,0.624973 0.03155,0.639791 0.586834,0.27589 0.322759,-0.211506 0.85091,-0.771332 1.173669,-1.244055 z m -26.790578,0.163766 c 0.005,0.125152 0.174973,0.0074 0.3787,-0.261593 0.213802,-0.282343 0.541095,-0.423639 0.774149,-0.334207 0.222063,0.08522 0.403758,0.04125 0.403758,-0.0977 0,-0.138946 0.176047,-0.252631 0.39122,-0.252631 0.215172,0 0.39123,-0.09917 0.39123,-0.220393 0,-0.427712 -1.029028,-1.144961 -1.424783,-0.993099 -0.277028,0.106311 -0.400938,-0.0049 -0.400938,-0.359591 0,-0.617485 -0.195852,-0.635985 -1.23656,-0.116811 -1.21519,0.606216 -1.465524,1.014432 -1.060552,1.729452 0.517643,0.913961 1.062109,1.27107 1.448725,0.950207 0.179715,-0.149153 0.330487,-0.16879 0.335051,-0.04363 z m 7.03375,-3.029574 c 0,-0.141754 -0.472072,-0.333221 -1.049048,-0.425483 -0.576977,-0.09226 -1.105208,-0.258621 -1.173846,-0.369686 -0.180868,-0.292641 -1.424092,0.340853 -1.426507,0.726884 -9.86e-4,0.22996 0.53591,0.326019 1.82368,0.326019 1.028712,0 1.825721,-0.112512 1.825721,-0.257734 z m 29.865447,-0.833645 c 0.144542,-0.09093 0.70204,-0.247746 1.238876,-0.348458 1.042918,-0.195653 1.05168,-0.207575 0.81144,-1.104069 -0.132151,-0.493147 -0.331038,-0.585334 -1.235318,-0.57258 -1.66031,0.02343 -3.341793,-0.216858 -3.645921,-0.520982 -0.388755,-0.388755 -1.355787,-0.340886 -1.708908,0.08458 -0.234986,0.283146 -0.180877,0.390061 0.255126,0.504078 0.30528,0.07984 0.476241,0.26951 0.381322,0.423081 -0.103007,0.166663 0.07029,0.278371 0.431725,0.278371 0.419067,0 0.708979,0.237692 0.947691,0.776975 0.301733,0.681655 0.461525,0.768837 1.302547,0.710656 0.527235,-0.03648 1.076877,-0.140723 1.22142,-0.231664 z M 73.596541,62.463578 c 0.07699,-0.200653 -0.145399,-0.934198 -0.494212,-1.630102 -0.348812,-0.695904 -0.776702,-1.705408 -0.950856,-2.243341 -0.174155,-0.537934 -0.472585,-0.978062 -0.663172,-0.978062 -0.461958,0 -0.839357,2.594641 -0.415509,2.856596 0.164189,0.101469 0.228717,0.366406 0.143399,0.58874 -0.100451,0.261766 0.149234,0.644086 0.708408,1.084726 0.969695,0.764136 1.465484,0.859457 1.671942,0.321443 z m -11.513725,-0.55989 c 0.891504,-0.891512 0.85095,-1.24435 -0.118557,-1.03141 -0.491619,0.107978 -0.782449,0.0674 -0.782449,-0.109187 0,-0.301392 -1.789819,-0.235382 -2.308429,0.08514 -0.409978,0.253377 -0.37804,0.676091 0.05107,0.676091 0.192933,0 0.563225,0.234735 0.822865,0.521634 0.642392,0.709836 1.537947,0.655285 2.335498,-0.142264 z m 4.054501,0.298678 c 1.069148,-0.241351 1.528276,-0.509838 1.646775,-0.962978 0.09444,-0.360995 -0.006,-0.497519 -0.367108,-0.497519 -0.27347,0 -0.497218,-0.117367 -0.497218,-0.260816 0,-0.143449 -0.23473,-0.260817 -0.521626,-0.260817 -0.381087,0 -0.521637,0.173878 -0.521637,0.645343 0,0.453254 -0.232896,0.765779 -0.782448,1.049964 -0.977887,0.505682 -1.009116,0.766212 -0.06525,0.543996 0.394492,-0.09287 0.893299,-0.208598 1.108471,-0.257173 z m 18.892472,-0.13795 c 0.250452,-0.276741 0.867874,-0.698916 1.372043,-0.938163 0.828,-0.39291 0.901144,-0.512718 0.75602,-1.238324 -0.08832,-0.441832 -0.195693,-0.838357 -0.238495,-0.881169 -0.04278,-0.04281 -0.67853,-0.0067 -1.412706,0.08026 -1.228714,0.145521 -1.310463,0.197345 -1.027914,0.651648 0.245238,0.394332 0.217154,0.650472 -0.139712,1.274129 -0.417323,0.729308 -0.394541,1.554786 0.04288,1.554786 0.105866,0 0.3974,-0.226424 0.647842,-0.503165 z m -8.87895,-1.735102 c 0.08704,-0.226906 0.158313,-0.620553 0.158313,-0.874773 0,-0.254218 0.293422,-0.778819 0.652042,-1.165779 0.358621,-0.386961 0.652043,-0.742268 0.652043,-0.789571 0,-0.153786 -2.298995,-0.669567 -2.984475,-0.669567 -0.366821,0 -0.666957,0.07866 -0.666957,0.174811 0,0.373411 1.652947,3.737434 1.836427,3.737434 0.106863,0 0.265534,-0.18565 0.352607,-0.412555 z m -10.21381,-2.195607 c 0.179173,-0.286899 0.579964,-0.521634 0.890656,-0.521634 0.44457,0 0.53452,-0.116092 0.42235,-0.545052 -0.115502,-0.441673 -0.271646,-0.511556 -0.823239,-0.368449 -0.374383,0.09713 -1.032803,0.198269 -1.463148,0.224753 -1.02195,0.06289 -1.956127,0.400203 -1.956127,0.706325 0,0.133781 0.238426,0.24324 0.529818,0.24324 0.291401,0 0.597382,0.17605 0.679949,0.391224 0.217045,0.565604 1.338172,0.480589 1.719741,-0.130407 z m 16.892538,-4.30347 c 0,-0.358622 0.117365,-0.65204 0.260812,-0.65204 0.143449,0 0.260814,-0.199526 0.260814,-0.443388 0,-0.344858 -0.0695,-0.373836 -0.31298,-0.130409 -0.172134,0.172139 -0.81766,0.31298 -1.434481,0.31298 -1.316841,0 -1.477875,0.440686 -0.404271,1.106323 1.057112,0.655412 1.630106,0.587407 1.630106,-0.193466 z m 6.194383,0.402923 c 0.03588,-0.0064 0.06516,-0.187749 0.06516,-0.402923 0,-0.273237 -0.275313,-0.391225 -0.912864,-0.391225 -0.502069,0 -0.912856,-0.117367 -0.912856,-0.260815 0,-0.419198 -0.966698,-0.300126 -1.444783,0.177961 -0.411161,0.41116 -0.408224,0.461279 0.04663,0.796259 0.400406,0.29492 1.769808,0.329923 3.158718,0.08074 z"
       id="path4" /></g></svg>
