<?xml version="1.0" encoding="UTF-8" standalone="no"?>
<!-- Created with Inkscape (http://www.inkscape.org/) -->

<svg
   width="247.55492mm"
   height="48.71059mm"
   viewBox="0 0 247.55492 48.710591"
   version="1.1"
   id="svg1"
   sodipodi:docname="USBROPEN.svg"
   inkscape:version="1.4.3 (0d15f75, 2025-12-25)"
   xmlns:inkscape="http://www.inkscape.org/namespaces/inkscape"
   xmlns:sodipodi="http://sodipodi.sourceforge.net/DTD/sodipodi-0.dtd"
   xmlns="http://www.w3.org/2000/svg"
   xmlns:svg="http://www.w3.org/2000/svg">
  <sodipodi:namedview
     id="namedview1"
     pagecolor="#ffffff"
     bordercolor="#000000"
     borderopacity="0.25"
     inkscape:showpageshadow="2"
     inkscape:pageopacity="0.0"
     inkscape:pagecheckerboard="0"
     inkscape:deskcolor="#d1d1d1"
     inkscape:document-units="mm"
     inkscape:zoom="1.0285705"
     inkscape:cx="760.27848"
     inkscape:cy="-90.902862"
     inkscape:window-width="2880"
     inkscape:window-height="1514"
     inkscape:window-x="-11"
     inkscape:window-y="-11"
     inkscape:window-maximized="1"
     inkscape:current-layer="g5" />
  <defs
     id="defs1" />
  <g
     id="layer1"
     transform="translate(-15.067646,-82.926736)">
    <g
       id="g5"
       transform="matrix(0.53627681,0,0,0.53627681,105.81103,48.624992)">
      <path
         style="fill:#ffffff;fill-opacity:1;stroke-width:0.434562"
         d="m 97.622193,144.04054 c -10.807204,-0.79419 -18.619052,-4.84901 -23.59743,-12.2485 -1.092418,-1.62367 -2.463606,-4.22069 -3.152434,-6.54092 -1.708683,-5.75546 -2.611039,-11.37291 -2.300493,-17.86372 0.324787,-6.78989 2.497156,-13.822191 5.793404,-18.754121 4.635513,-6.935761 11.570042,-11.030851 20.857919,-12.317341 2.587922,-0.35846 8.332541,-0.355844 11.100431,0.0051 7.38123,0.962421 13.11196,3.468129 17.49296,7.648625 4.07492,3.888422 6.77517,8.796183 8.20498,14.912724 0.17744,0.759067 0.36027,1.414623 0.40628,1.456793 0.13746,0.12598 -0.0925,-14.132248 -0.27202,-16.868151 -0.1698,-2.587249 -0.50661,-5.551696 -0.68194,-6.001966 -0.0876,-0.224799 0.18988,-0.26345 2.61634,-0.364537 1.49283,-0.0622 7.69058,-0.12155 13.7728,-0.131907 11.52736,-0.01963 13.31595,0.04971 17.47017,0.677198 10.61082,1.602765 16.52295,6.275672 18.5207,14.638653 l 0.29305,1.226772 -0.0747,-4.830421 c -0.0863,-5.58283 -0.35981,-9.464354 -0.79669,-11.309329 l -0.0817,-0.34503 h 21.10181 21.10181 v 6.993688 c 0,6.598259 -0.0152,6.987769 -0.26836,6.889118 -0.43586,-0.169841 -4.09793,-0.667819 -6.24887,-0.849741 -1.09644,-0.09273 -5.25405,-0.209191 -9.23916,-0.258797 l -7.24563,-0.09019 v 6.712867 6.712863 l 6.55558,-0.0863 c 6.56019,-0.0865 9.76439,-0.29203 12.3931,-0.79505 0.66903,-0.12802 1.30269,-0.23278 1.40811,-0.23279 0.15073,-2e-5 0.19168,1.60499 0.19168,7.51397 0,4.1327 -0.0172,7.51399 -0.0384,7.51399 -0.0211,0 -0.52141,-0.1025 -1.11176,-0.22785 -2.60342,-0.55264 -10.04688,-0.98094 -17.28979,-0.99486 l -2.10853,-0.004 v 7.2073 7.2073 l 6.24889,-0.001 c 8.02148,-0.002 13.14003,-0.30262 16.63812,-0.97751 l 1.0351,-0.19971 v 6.95323 6.95325 h -21.48818 -21.48815 l 0.0917,-0.57506 c 0.57619,-3.61583 0.71213,-8.31892 0.7014,-24.26713 l -0.01,-14.79797 -0.28568,1.3245 c -0.82937,3.84529 -2.56681,7.17776 -4.98399,9.5595 -3.35375,3.30459 -7.69911,5.16187 -14.25921,6.09462 -0.94474,0.13433 -3.40684,0.19623 -7.80474,0.19623 h -6.42461 l 0.10467,6.51724 c 0.0576,3.58448 0.17465,7.75936 0.26026,9.27748 0.15013,2.66249 0.50303,5.93288 0.69386,6.43016 0.0832,0.21683 -0.89383,0.24043 -9.956,0.24043 h -10.04827 l 0.13011,-0.49838 c 0.50646,-1.94024 0.76036,-6.72866 0.84361,-15.90972 l 0.073,-8.05071 -0.45657,1.76349 c -0.60404,2.33294 -1.43674,4.81911 -2.18261,6.51647 -3.79394,8.63382 -10.96588,14.47565 -20.21356,16.46476 -3.3887,0.72888 -8.34319,1.05324 -11.992238,0.78507 z m 6.433227,-12.88912 c 4.7857,-1.09312 7.89724,-4.81636 9.26594,-11.08754 0.61562,-2.82065 0.77043,-4.42452 0.85453,-8.8535 0.14431,-7.59878 -0.54346,-12.333527 -2.32537,-16.008362 -1.9482,-4.017798 -4.80744,-6.024654 -9.28562,-6.517421 -2.909774,-0.320184 -6.000353,0.247983 -8.112489,1.491387 -3.626623,2.134968 -5.716212,6.135241 -6.71065,12.846726 -0.347514,2.34544 -0.398112,11.47972 -0.07769,14.03123 1.16602,9.28553 4.779755,13.83256 11.452176,14.40986 1.665803,0.14412 3.428723,0.0326 4.939183,-0.31238 z m 56.116,-23.27018 c 4.25305,-0.92334 6.35307,-3.39887 6.78594,-7.999398 0.24492,-2.602978 -0.11948,-5.046357 -1.01685,-6.818446 -0.5449,-1.076026 -1.9219,-2.390881 -3.10867,-2.968368 -2.03124,-0.988405 -3.82992,-1.249867 -8.62576,-1.253867 l -3.64199,-0.003 v 9.649612 c 0,9.057457 0.0165,9.654507 0.26835,9.729427 0.1476,0.044 1.99351,0.0548 4.10203,0.0243 3.09905,-0.0449 4.10258,-0.11393 5.23695,-0.3602 z m 67.13311,34.58994 c 0.27326,-1.2925 0.54657,-4.40152 0.70534,-8.02351 0.23394,-5.33686 0.11502,-49.588174 -0.14071,-52.356807 -0.16695,-1.807552 -0.37214,-3.43307 -0.57585,-4.562069 l -0.09,-0.498377 11.93979,0.0052 11.93977,0.0052 5.82089,12.607553 c 3.2015,6.934159 7.31979,15.85084 9.15177,19.81485 1.83197,3.96402 3.61277,8.02886 3.95731,9.03298 0.52436,1.52815 1.6496,5.75848 1.90055,7.14511 0.0382,0.21085 0.0523,-9.17397 0.0314,-20.85517 -0.0264,-14.769724 -0.0923,-21.775652 -0.21631,-23.002019 -0.18945,-1.873309 -0.45042,-3.838598 -0.58542,-4.408722 l -0.0817,-0.34503 h 8.50138 8.5014 l -0.18819,0.91322 c -0.70816,3.436358 -0.82659,8.912936 -0.83011,38.382881 l -0.004,26.64499 -11.45801,-0.0393 -11.458,-0.0393 -9.08634,-19.55172 c -4.99748,-10.75345 -9.36005,-20.24318 -9.6946,-21.0883 -0.73801,-1.8643 -1.42004,-4.200977 -1.85586,-6.358195 -0.17862,-0.884148 -0.35468,-1.63747 -0.39125,-1.674037 -0.13259,-0.132596 -0.0559,34.219162 0.0859,38.465282 0.15574,4.66446 0.37056,7.58208 0.68097,9.24855 l 0.19279,1.03509 h -8.42971 -8.42958 z"
         id="path3" />
      <g
         id="g4"
         transform="matrix(1.6174739,0,0,1.6174739,-165.96175,-111.63169)"
         style="fill:#ffffff;fill-opacity:1">
        <path
           style="fill:#ffffff;fill-opacity:1"
           d="m 119.30537,155.19338 v -17.78456 -17.78456 c 0,0 -0.0946,-1.05041 -0.16859,-1.57228 -0.0532,-0.37481 -0.1977,-1.11835 -0.1977,-1.11835 0,0 2.92996,-0.0246 10.68536,0.01 10.9422,0.0487 11.42276,-0.0626 13.92706,0.94301 2.19636,0.88192 4.25645,3.32268 5.50776,5.63088 0.89003,1.64176 1.23716,3.60103 1.21823,5.46843 -0.0199,1.96558 -0.44539,4.00971 -1.39866,5.72878 -1.01201,1.825 -2.64177,3.31443 -4.3723,4.48063 -0.80891,0.54513 -2.70842,1.10811 -2.70842,1.10811 0,0 8.62773,14.13131 10.35442,15.92234 0.75534,0.78348 1.37335,1.53756 1.37335,1.67574 0,0.13818 -2.77455,0.25124 -6.16567,0.25124 -6.0139,0 -6.30542,-0.0367 -6.30542,-0.0367 0,0 -2.64623,-4.84378 -4.8556,-8.86848 l -4.01703,-7.31764 -1.49935,-0.003 -1.49935,-0.003 v 6.47808 6.47808 l 0.0907,1.41414 c 0.0599,0.93369 0.52305,1.82136 0.52305,1.82136 0,0 -1.5927,0.0366 -5.37636,0.0366 -3.78366,0 -5.46298,-0.002 -5.46298,-0.002 0.003,-0.32152 0.39604,-1.28221 0.34754,-2.95686 z m 17.96217,-20.83831 c 2.04924,-1.0597 2.85434,-5.20099 1.45673,-7.49313 -1.19956,-1.96733 -2.16878,-2.35388 -5.96379,-2.37846 l -3.40063,-0.022 -0.0976,5.20363 -0.0976,5.20363 h 3.55484 c 2.42205,0 3.87136,-0.16367 4.54811,-0.51364 z"
           id="path2" />
        <path
           style="fill:#ffffff;fill-opacity:1"
           d="m 91.369324,157.8813 c 0,0 0.203526,-1.6033 0.257624,-2.4091 0.06725,-1.00165 0.06911,-2.00675 0.08293,-3.01056 0.06996,-5.08067 0,-15.24346 0,-15.24346 0,0 -0.100908,-10.35449 -0.174706,-15.53144 -0.01556,-1.0917 0.01583,-2.18552 -0.05653,-3.27493 -0.03814,-0.57424 -0.198785,-1.71503 -0.198785,-1.71503 0,0 3.274378,-0.042 9.337933,0.0265 9.64886,0.10899 11.25561,0.20651 12.87536,0.78139 3.75577,1.333 6.04171,4.26551 6.35357,8.15066 0.33456,4.16787 -1.06483,5.96666 -3.03159,8.05545 -0.99232,1.05389 -3.23235,2.32586 -3.23235,2.32586 0,0 2.69733,0.93296 3.82871,1.76705 2.6979,1.98897 4.27598,3.49365 4.28199,8.14605 0.005,3.56638 -0.72177,5.84821 -2.50741,7.8768 -3.16098,3.59106 -5.4534,4.08186 -19.09747,4.08864 -5.772495,0.003 -8.020455,-0.0339 -8.020455,-0.0339 z m 17.385946,-7.51105 c 1.71656,-0.69313 2.47069,-2.86065 2.50355,-5.13425 0.0538,-3.72331 -2.12648,-5.40508 -6.61829,-5.6882 -1.01583,-0.064 -3.05257,-0.077 -3.05257,-0.077 v 5.69691 5.69691 c 0,0 1.70773,0.10223 2.56049,0.0612 1.54495,-0.0743 3.47009,-0.0966 4.60682,-0.55561 z m -0.99766,-17.63907 c 2.19033,-1.43515 2.94189,-4.61828 1.60723,-6.80718 -1.01428,-1.66347 -2.36576,-1.99954 -5.02217,-2.32996 -0.88422,-0.10999 -2.69295,-0.14452 -2.69295,-0.14452 l -0.0618,5.01798 v 5.20328 c 0,0 1.77151,-0.0165 2.64551,-0.0861 1.58873,-0.12654 2.95199,-0.47861 3.52414,-0.8535 z"
           id="path2-1" />
      </g>
      <path
         style="fill:#d02030;fill-opacity:1;stroke-width:0.426526"
         d="m -92.840488,143.36621 c -8.415772,-0.48246 -14.894402,-2.87942 -19.091032,-7.06329 -2.76518,-2.75677 -4.49606,-6.13844 -5.44777,-10.64345 l -0.34346,-1.62578 -0.0152,-14.82845 c -0.014,-13.717734 -0.11907,-19.209974 -0.51975,-27.172964 -0.0792,-1.57317 -0.14458,-3.08048 -0.14537,-3.34957 l -0.002,-0.48927 h 9.80296 9.802963 l -0.0944,1.09144 c -0.652073,7.53893 -1.087303,30.924974 -0.683393,36.720434 0.659775,9.46663 3.347342,13.38223 9.699711,14.13181 4.162423,0.49117 7.826956,-0.49099 9.832949,-2.63541 2.229135,-2.38296 3.276691,-6.01366 3.658396,-12.67959 0.193281,-3.37537 0.08118,-23.314724 -0.162336,-28.875734 -0.07977,-1.82157 -0.190957,-4.31116 -0.247087,-5.53244 l -0.102056,-2.22051 h 8.300883 c 6.540391,0 8.300865,0.0399 8.300797,0.18818 -4.8e-5,0.1035 -0.06622,1.40758 -0.147053,2.89795 -0.262448,4.83904 -0.469739,9.89602 -0.408174,9.95758 0.03307,0.0331 0.27806,-0.54915 0.544433,-1.29382 2.028986,-5.67216 7.4365,-9.92992 14.997876,-11.80899 5.6492,-1.40388 13.677229,-1.40245 20.541073,0.004 2.915991,0.59736 7.776728,2.17637 8.629264,2.80322 0.233284,0.17153 0.07378,0.66446 -1.838792,5.68262 -1.151829,3.02215 -2.137492,5.60169 -2.190364,5.73232 -0.08099,0.20009 -0.326403,0.1252 -1.557771,-0.47533 -3.928948,-1.91613 -8.281211,-2.79966 -13.095738,-2.65849 -2.671528,0.0783 -3.615345,0.25472 -5.086075,0.95048 -2.140269,1.01251 -3.254555,3.21386 -2.707565,5.34898 0.666195,2.60041 3.312025,4.290644 11.750065,7.506284 5.465982,2.08302 8.718545,3.90081 11.192903,6.25549 3.458644,3.29134 4.858856,6.94712 4.871093,12.7178 0.008,3.76128 -0.559367,6.33412 -2.074775,9.40892 -2.703565,5.48557 -8.083768,9.51923 -14.858153,11.13947 -2.478384,0.59276 -4.797772,0.82867 -8.147161,0.82867 -6.20368,0 -11.986886,-0.90108 -16.896883,-2.6327 -1.949678,-0.68759 -5.174087,-2.15144 -5.174087,-2.34897 0,-0.1746 4.167123,-12.1823 4.259918,-12.2751 0.04383,-0.0438 0.238,0.0232 0.43148,0.14888 0.669114,0.43476 3.725455,1.74677 5.497641,2.36 4.881172,1.68903 10.25487,2.38341 13.357711,1.72608 3.118198,-0.66059 4.871181,-2.47226 5.022722,-5.19087 0.118719,-2.12988 -0.89358,-3.71752 -3.407063,-5.34349 -1.49526,-0.96728 -5.394112,-2.82842 -8.677983,-4.1425 -5.578367,-2.23224 -8.997195,-4.14819 -11.262428,-6.31158 -2.031302,-1.93997 -3.17427,-3.85258 -3.941131,-6.59498 l -0.369369,-1.3209 0.03352,10.91434 c 0.03287,10.70324 0.02708,10.94815 -0.299061,12.66224 -1.394274,7.32777 -5.110079,12.28375 -11.489245,15.32384 -3.700926,1.76374 -7.773973,2.68724 -13.318802,3.01983 -2.818494,0.16906 -3.682109,0.16825 -6.727429,-0.006 z"
         id="path1" />
    </g>
    <path
       style="fill:#c7c8c8;fill-opacity:1;stroke-width:0.125063"
       d="m 26.246275,128.80121 c -1.43184,-0.0639 -2.794128,-0.17772 -2.92251,-0.2441 -0.217964,-0.11271 -0.273671,-0.2547 -0.291771,-0.74362 -0.01306,-0.35273 -0.0031,-0.4575 0.04803,-0.49983 0.05004,-0.0415 1.386742,-0.0511 5.951153,-0.0423 l 5.886616,0.0111 0.01243,0.49143 c 0.01207,0.47759 0.0091,0.49538 -0.106413,0.63264 -0.06537,0.0777 -0.163373,0.15817 -0.217799,0.17886 -0.12862,0.0489 -1.556064,0.16353 -2.733177,0.21949 -1.055048,0.0502 -4.470578,0.0479 -5.626553,-0.004 z m -2.603659,-1.8873 c 0,-0.16763 0.1626,-0.39767 0.352349,-0.4985 0.146968,-0.0781 0.367994,-0.0817 4.999462,-0.0817 4.710705,0 4.850375,0.003 5.013715,0.0857 0.19516,0.0996 0.310525,0.25652 0.345083,0.46947 l 0.02448,0.1509 h -5.367542 -5.367548 z m 0.582708,-0.89775 c -0.08309,-0.0831 -0.07645,-7.77222 0.0067,-7.84128 0.04382,-0.0364 1.33378,-0.0467 4.799118,-0.0384 l 4.739194,0.0112 v 3.94962 3.94963 l -4.745966,0.0112 c -3.654767,0.009 -4.758186,-8.7e-4 -4.799117,-0.0419 z m 0.318379,-8.21499 c -0.01268,-0.033 -0.01706,-0.18702 -0.0097,-0.34222 l 0.01328,-0.2822 h 4.457113 4.457113 v 0.33098 0.33098 l -4.447384,0.0113 c -3.716887,0.009 -4.451166,8.7e-4 -4.470415,-0.0487 z m 0.422808,-0.88712 c 0,-0.12472 0.106924,-0.2963 0.221591,-0.35559 0.06388,-0.033 0.303279,-0.1121 0.531997,-0.1757 0.603842,-0.16788 1.160612,-0.45039 1.466012,-0.74382 0.401112,-0.3854 0.625632,-0.97003 0.54257,-1.41279 l -0.02935,-0.15642 -0.269325,-0.013 c -0.228302,-0.0111 -0.274603,-0.0274 -0.303988,-0.1073 -0.02253,-0.0612 -0.01178,-0.12687 0.03073,-0.18755 0.0647,-0.0924 0.08368,-0.0934 1.808917,-0.0934 1.117464,0 1.774176,0.0165 1.828885,0.0457 0.09541,0.0511 0.113474,0.21746 0.0324,0.29853 -0.02912,0.0291 -0.157827,0.053 -0.286003,0.053 -0.213847,0 -0.235407,0.009 -0.26169,0.11411 -0.01575,0.0628 -0.0186,0.2393 -0.0063,0.39228 0.06728,0.83815 0.759235,1.45192 2.059401,1.82672 0.485336,0.13991 0.636968,0.24059 0.689938,0.45809 l 0.02955,0.12136 h -4.042682 c -3.505871,0 -4.042662,-0.009 -4.042662,-0.0641 z m 2.890504,-3.5971 c -0.764397,-0.0705 -1.286012,-0.20489 -1.750581,-0.45113 -0.812816,-0.43081 -1.403179,-1.24189 -1.786653,-2.45462 -0.18033,-0.57031 -0.183522,-0.57748 -0.227233,-0.51016 -0.05797,0.0893 -0.22758,0.15086 -0.338702,0.12297 -0.124479,-0.0312 -0.130325,-0.0505 -0.06616,-0.2194 0.140429,-0.36935 0.130619,-1.00341 -0.02307,-1.49207 -0.04129,-0.13125 -0.349887,-0.75106 -0.685789,-1.37737 -0.335896,-0.62631 -0.600525,-1.15523 -0.588062,-1.17541 0.04344,-0.0703 0.556911,-0.30596 0.587723,-0.26975 0.01707,0.02 0.12466,0.17026 0.239086,0.33377 0.187454,0.26788 0.357484,0.42488 0.406763,0.3756 0.01006,-0.0101 -0.0011,-0.43365 -0.02488,-0.94135 -0.02373,-0.50767 -0.04358,-1.55355 -0.04411,-2.32417 l -0.0011,-1.40112 h 5.317643 5.317643 l -9.63e-4,1.42318 c -5.45e-4,0.78275 -0.01995,1.82909 -0.04312,2.32518 -0.02318,0.4961 -0.03436,0.90976 -0.02487,0.91927 0.04832,0.0483 0.219785,-0.11082 0.405768,-0.37659 0.114424,-0.16351 0.222013,-0.31371 0.239086,-0.33377 0.03148,-0.037 0.544723,0.20018 0.589292,0.27229 0.01333,0.0216 -0.246753,0.5423 -0.577961,1.15719 -0.337132,0.62587 -0.648602,1.2641 -0.707628,1.44998 -0.127018,0.39999 -0.14352,1.00372 -0.03688,1.34935 0.08693,0.28172 0.0881,0.27249 -0.03876,0.30432 -0.11122,0.0279 -0.333502,-0.0474 -0.333502,-0.11282 0,-0.0203 -0.01986,-0.037 -0.04413,-0.037 -0.02427,0 -0.04412,0.0264 -0.04412,0.0586 0,0.13436 -0.286533,0.92152 -0.484682,1.33152 -0.572603,1.18482 -1.36038,1.77206 -2.666612,1.98783 -0.475403,0.0785 -2.000706,0.11766 -2.56352,0.0658 z m -5.769976,-7.71107 c -0.04247,-0.0109 -0.07723,-0.0337 -0.07723,-0.0507 0,-0.20897 0.84742,-0.66199 0.941006,-0.50304 0.05196,0.0882 -0.07767,0.23417 -0.33238,0.37417 -0.314989,0.17314 -0.418929,0.20828 -0.531399,0.17962 z m 13.11946,-0.13874 c -0.412338,-0.21784 -0.557391,-0.44815 -0.282247,-0.44815 0.223113,0 0.901296,0.46133 0.804881,0.54752 -0.09049,0.0809 -0.232569,0.0539 -0.522634,-0.0994 z m -13.333063,-0.37233 c -0.217835,-0.1468 -0.362937,-0.41621 -0.634806,-1.17865 -0.145214,-0.40724 -0.308243,-0.77723 -0.403273,-0.91521 -0.160014,-0.23233 -0.384147,-0.4091 -0.518719,-0.4091 -0.107406,0 -0.08701,-0.1142 0.03796,-0.21249 l 0.10998,-0.0865 -0.271986,-0.47934 c -0.561529,-0.98967 -0.929949,-1.866343 -1.070723,-2.547878 -0.126204,-0.610996 -0.0648,-1.32206 0.145234,-1.681681 0.07697,-0.131782 0.07689,-0.132111 -0.05402,-0.220861 -0.170825,-0.115816 -0.229204,-0.289252 -0.151753,-0.450849 0.06448,-0.134541 0.212436,-0.19376 0.212436,-0.08502 0,0.03684 0.04698,0.121585 0.104395,0.188339 l 0.104392,0.121363 0.352491,-0.13929 c 0.47154,-0.186335 0.673576,-0.228549 1.099977,-0.22983 0.943602,-0.0027 1.501627,0.458481 1.666871,1.37798 l 0.02975,0.165486 h -0.310006 -0.31001 l -0.08596,-0.168497 c -0.11517,-0.225755 -0.386023,-0.463477 -0.637481,-0.55951 -0.405051,-0.154691 -0.924789,-0.02077 -1.218728,0.313998 -0.215075,0.244954 -0.274756,0.426334 -0.270517,0.82216 0.0069,0.645588 0.170252,1.142916 0.728793,2.21897 0.574443,1.10669 0.644483,1.22134 0.726512,1.18938 0.08318,-0.0323 0.09112,-0.0335 0.190636,-0.0266 0.06396,0.005 0.06812,0.0248 0.02838,0.13873 -0.09695,0.27811 0.07504,0.68775 0.551471,1.3135 0.179442,0.23568 0.37761,0.50794 0.440374,0.60504 0.12244,0.1894 0.221736,0.54924 0.180913,0.65562 -0.01374,0.0357 -0.159935,0.13597 -0.324908,0.22265 l -0.299948,0.15763 z m 13.548664,-0.0616 c -0.156016,-0.086 -0.292814,-0.16503 -0.303997,-0.17553 -0.04065,-0.0383 -0.0053,-0.36271 0.05534,-0.50707 0.03417,-0.0814 0.24297,-0.3903 0.464002,-0.68638 0.22103,-0.29608 0.452763,-0.63877 0.514965,-0.76151 0.135993,-0.26837 0.185347,-0.56974 0.114867,-0.70145 -0.04298,-0.0803 -0.03867,-0.0957 0.02801,-0.10009 0.104006,-0.007 0.111037,-0.005 0.194484,0.0266 0.08292,0.0323 0.156962,-0.0897 0.749156,-1.23492 0.444156,-0.8589 0.637318,-1.391489 0.697333,-1.922692 0.05248,-0.464456 0.0011,-0.730948 -0.189062,-0.980235 -0.524304,-0.687408 -1.537075,-0.605608 -1.929518,0.155851 l -0.08529,0.165486 h -0.310987 c -0.274827,0 -0.308521,-0.009 -0.289799,-0.07722 0.01165,-0.04248 0.03468,-0.156662 0.05116,-0.253749 0.04864,-0.286431 0.245631,-0.634511 0.476641,-0.842205 0.280421,-0.252125 0.651899,-0.371778 1.149575,-0.370287 0.426398,0.0013 0.628435,0.04349 1.099974,0.22983 l 0.35249,0.13929 0.104395,-0.121363 c 0.05741,-0.06675 0.104393,-0.150048 0.104393,-0.185102 0,-0.03505 0.02735,-0.06374 0.06079,-0.06374 0.09957,0 0.177509,0.130204 0.177509,0.296559 0,0.118859 -0.03271,0.18515 -0.137631,0.278896 l -0.13763,0.122971 0.113507,0.279636 c 0.370076,0.911726 0.02479,2.306454 -1.018028,4.112204 l -0.250968,0.43458 0.110797,0.0871 c 0.126849,0.0998 0.146154,0.21314 0.0363,0.21314 -0.127506,0 -0.362311,0.1889 -0.523347,0.42103 -0.08999,0.12972 -0.251821,0.49763 -0.388229,0.8826 -0.310626,0.87665 -0.436148,1.10212 -0.685289,1.23096 -0.114563,0.0593 -0.140105,0.0534 -0.40592,-0.0932 z m -12.041251,-4.04589 c -0.06884,-0.14222 -0.190473,-0.264 -0.466611,-0.4672 -0.205418,-0.15117 -0.426621,-0.33766 -0.491558,-0.41443 -0.180587,-0.213485 -0.330862,-0.579606 -0.357222,-0.870303 l -0.02376,-0.262192 h 0.29297 0.292975 v 0.180931 c 0,0.148145 0.02814,0.209089 0.155373,0.336305 0.133396,0.133397 0.17553,0.151507 0.297877,0.128026 0.228268,-0.04381 0.330991,-0.199888 0.36611,-0.556275 l 0.03052,-0.309636 h 5.400202 5.400201 v 0.130218 c 0,0.226444 0.09077,0.564448 0.1711,0.637147 0.04257,0.03853 0.140229,0.08262 0.217012,0.09798 0.119487,0.0239 0.161999,0.0056 0.294981,-0.127455 0.127218,-0.127216 0.155373,-0.18816 0.155373,-0.336305 V 98.9732 h 0.286845 0.286844 v 0.16259 c 0,0.261947 -0.126242,0.637797 -0.290014,0.863432 -0.08368,0.115288 -0.296982,0.316738 -0.474003,0.447648 -0.373558,0.27626 -0.604008,0.52277 -0.604008,0.6461 0,0.0857 -0.06143,0.0867 -5.424032,0.0867 h -5.424031 z m 0.737375,-0.84719 c 0.05395,-0.0377 0.09808,-0.10076 0.09808,-0.13994 0,-0.08936 -0.126527,-0.232658 -0.205425,-0.232658 -0.06908,0 -0.235873,0.15603 -0.235873,0.220652 0,0.05201 0.161155,0.220656 0.210829,0.220656 0.01887,0 0.07845,-0.0309 0.132389,-0.0687 z m 0.811713,-0.004 c 0.107645,-0.0974 0.102889,-0.265023 -0.0092,-0.325026 -0.210228,-0.11251 -0.399885,0.134289 -0.239438,0.311576 0.0955,0.10553 0.144013,0.10815 0.248659,0.0135 z m 0.83091,-0.0152 c 0.04855,-0.0485 0.08826,-0.10811 0.08826,-0.132384 0,-0.06103 -0.16511,-0.220653 -0.228206,-0.220653 -0.07327,0 -0.213092,0.134792 -0.213092,0.205425 0,0.06909 0.156027,0.235872 0.22065,0.235872 0.02426,0 0.08384,-0.0397 0.132388,-0.0883 z m 0.784518,0.0195 c 0.121789,-0.0853 0.12545,-0.20176 0.0096,-0.306566 -0.07307,-0.06613 -0.107573,-0.07132 -0.198585,-0.02985 -0.134141,0.06112 -0.154887,0.286416 -0.03291,0.357456 0.101997,0.0594 0.107803,0.0588 0.221862,-0.021 z m 0.807057,0.023 c 0.130402,-0.0698 0.114815,-0.295824 -0.02478,-0.35943 -0.09101,-0.04147 -0.12551,-0.03628 -0.198585,0.02984 -0.11581,0.104808 -0.112148,0.22127 0.0096,0.30657 0.116372,0.0815 0.106429,0.0805 0.213729,0.023 z m 0.825747,-0.023 c 0.05395,-0.0377 0.09808,-0.10076 0.09808,-0.13994 0,-0.08936 -0.126527,-0.232657 -0.205424,-0.232657 -0.06908,0 -0.235875,0.15603 -0.235875,0.220652 0,0.05201 0.161155,0.220655 0.21083,0.220655 0.01887,0 0.07845,-0.0309 0.13239,-0.0687 z m 0.811713,-0.004 c 0.107645,-0.0974 0.102888,-0.265021 -0.0092,-0.325024 -0.210226,-0.112508 -0.399882,0.134288 -0.239437,0.311574 0.0955,0.10554 0.144016,0.10816 0.248663,0.0135 z m 0.830909,-0.0152 c 0.04854,-0.0485 0.08826,-0.10811 0.08826,-0.132384 0,-0.06103 -0.165111,-0.220652 -0.228208,-0.220652 -0.07326,0 -0.213091,0.134793 -0.213091,0.205425 0,0.06909 0.156026,0.235881 0.220649,0.235881 0.02426,0 0.08385,-0.0398 0.132389,-0.0883 z m 0.784518,0.0195 c 0.121789,-0.0853 0.12545,-0.201761 0.0096,-0.306564 -0.07307,-0.06613 -0.107574,-0.07132 -0.198584,-0.02985 -0.134141,0.06112 -0.154888,0.286414 -0.03291,0.357454 0.101997,0.0594 0.107802,0.0588 0.221862,-0.021 z m 0.807057,0.023 c 0.130403,-0.0698 0.114815,-0.295823 -0.02478,-0.35943 -0.09101,-0.04147 -0.125511,-0.03628 -0.198585,0.02985 -0.115811,0.104807 -0.112149,0.22127 0.0096,0.30657 0.116374,0.0815 0.106429,0.0805 0.21373,0.023 z m 0.835566,-0.0426 c 0.04855,-0.0485 0.08826,-0.11152 0.08826,-0.139949 0,-0.07327 -0.134793,-0.213087 -0.205424,-0.213087 -0.06908,0 -0.235876,0.15603 -0.235876,0.220652 0,0.02425 0.03973,0.08389 0.08826,0.132384 0.04855,0.0485 0.108119,0.0883 0.132389,0.0883 0.02427,0 0.08385,-0.0397 0.132391,-0.0883 z m 0.814792,0.002 c 0.160445,-0.177286 -0.02921,-0.424087 -0.239438,-0.311578 -0.108684,0.05817 -0.116615,0.207168 -0.0169,0.317358 0.09359,0.10342 0.158844,0.10194 0.25633,-0.006 z m 0.818011,-0.002 c 0.04855,-0.0485 0.08826,-0.10811 0.08826,-0.132384 0,-0.06103 -0.165111,-0.220652 -0.228209,-0.220652 -0.08194,0 -0.21309,0.138463 -0.21309,0.224986 0,0.07329 0.152379,0.21631 0.230467,0.21631 0.01887,0 0.07403,-0.0397 0.122571,-0.0883 z m -11.92909,-1.403241 c -0.07061,-0.07802 -0.07026,-0.08704 0.0061,-0.156159 0.05801,-0.0525 0.162355,-0.07336 0.36703,-0.07336 0.334771,0 0.487678,0.07748 0.40852,0.207033 -0.07447,0.121878 -0.67606,0.139187 -0.781671,0.02246 z m 13.085291,0.02644 c -0.152686,-0.152685 0.009,-0.255952 0.400667,-0.255952 0.218532,0 0.299606,0.01846 0.356297,0.0811 0.06858,0.07578 0.06808,0.0859 -0.0077,0.154452 -0.0985,0.08914 -0.665132,0.104566 -0.749296,0.02039 z M 23.430795,98.39063 c -0.06807,-0.06807 -0.06807,-0.223185 0,-0.291258 0.02974,-0.02975 0.172341,-0.05295 0.325424,-0.05295 0.339565,0 0.515677,-0.06185 0.989643,-0.347509 0.206308,-0.124344 0.504184,-0.270785 0.661947,-0.325421 l 0.286844,-0.09934 h 3.111153 c 3.581503,0 3.270525,-0.03362 4.189699,0.453042 0.520079,0.275363 0.567722,0.291702 0.904663,0.310306 0.195618,0.01081 0.380493,0.03952 0.410834,0.06382 0.07008,0.05612 0.07133,0.220201 0.0022,0.289323 -0.07691,0.07691 -10.805509,0.07691 -10.882416,0 z m 3.234714,-1.496606 c 0.04855,-0.02557 0.306703,-0.271645 0.573688,-0.546857 0.40926,-0.421873 0.516587,-0.508528 0.684012,-0.55226 0.288292,-0.0753 0.303267,-0.09625 0.255736,-0.35776 -0.130748,-0.71936 -0.46433,-1.556616 -0.910891,-2.286236 -0.928462,-1.516982 -1.178958,-2.134295 -1.093526,-2.694823 0.06247,-0.409842 0.400895,-0.785203 0.805515,-0.893421 0.106128,-0.02838 0.192959,-0.06488 0.192959,-0.08107 0,-0.01622 0.151115,-0.133933 0.335811,-0.261611 0.251254,-0.173695 0.356572,-0.277865 0.418264,-0.413715 0.117803,-0.259409 0.108313,-0.614997 -0.02593,-0.971655 -0.143771,-0.381961 -0.148574,-0.751039 -0.01314,-1.00996 0.05345,-0.102188 0.09316,-0.200686 0.08826,-0.218891 -0.0049,-0.01822 0.0095,-0.03312 0.03207,-0.03312 0.02254,0 0.114658,-0.06948 0.204699,-0.154401 0.228069,-0.215095 0.441513,-0.265355 0.879624,-0.207118 0.194171,0.0258 0.459012,0.09128 0.588533,0.145496 0.172203,0.07208 0.244099,0.08465 0.267512,0.04676 0.02018,-0.03266 0.06809,0.01577 0.129629,0.131064 0.09128,0.171013 0.09302,0.189868 0.02687,0.290833 -0.0603,0.09204 -0.06303,0.140139 -0.01843,0.326027 0.02877,0.119931 0.03912,0.288303 0.02303,0.374157 -0.02327,0.124054 -0.0048,0.197759 0.08964,0.35903 0.113677,0.193976 0.115365,0.205541 0.03823,0.261944 -0.04439,0.03246 -0.09405,0.05902 -0.110377,0.05902 -0.01632,0 -0.02968,0.0791 -0.02968,0.175778 0,0.09668 -0.02378,0.204425 -0.05284,0.239439 -0.02905,0.03502 -0.04927,0.08996 -0.04492,0.122097 0.03565,0.263158 -0.110212,0.341195 -0.449847,0.240687 -0.220883,-0.06537 -0.240527,-0.06495 -0.293829,0.0063 -0.03141,0.04196 -0.05128,0.154181 -0.04413,0.249381 0.01824,0.242938 0.171111,0.293403 0.48272,0.159354 0.463836,-0.199537 0.924197,-0.195461 1.377784,0.01221 l 0.232932,0.106638 0.169576,-0.08699 c 0.263985,-0.135432 0.639512,-0.09433 0.830627,0.0909 0.08776,0.08507 0.190518,0.14057 0.260222,0.14057 h 0.115192 l -0.007,-0.695047 c -0.0056,-0.567997 -0.02268,-0.737393 -0.09291,-0.926726 -0.04727,-0.127424 -0.09831,-0.231679 -0.113415,-0.231679 -0.0151,0 -0.105513,0.06643 -0.200898,0.147637 -0.231337,0.196938 -0.725053,0.263589 -0.725053,0.09789 0,-0.02919 -0.04868,-0.09541 -0.108164,-0.147134 l -0.108164,-0.09405 0.09148,-0.27798 c 0.0503,-0.152892 0.123101,-0.303145 0.161756,-0.333899 0.04984,-0.03965 0.214875,-0.052 0.567325,-0.04246 0.538965,0.01461 0.691729,0.07292 0.78586,0.300014 0.05066,0.122235 0.295965,0.60488 0.652732,1.284303 0.239666,0.456416 0.333183,0.721191 0.492761,1.395172 0.05876,0.248178 0.06433,0.335826 0.02439,0.383946 -0.110821,0.133535 -0.577849,0.35308 -1.147664,0.53951 -0.794311,0.259878 -1.275437,0.296925 -1.756141,0.135225 -0.176972,-0.05953 -0.330996,-0.09331 -0.342274,-0.07506 -0.01128,0.01826 -0.06063,0.16309 -0.109673,0.321863 -0.04904,0.158775 -0.189202,0.438249 -0.31147,0.621057 -0.460269,0.68816 -0.834464,2.212544 -0.834464,3.399423 v 0.27643 l 0.195182,0.05466 c 0.212561,0.05951 0.349804,0.174709 0.753609,0.632536 0.145629,0.165112 0.344213,0.348521 0.441298,0.40758 l 0.17653,0.107386 -2.29475,-0.0011 c -1.63376,-6.96e-4 -2.26933,-0.01431 -2.206492,-0.04739 z"
       id="path5" />
  </g>
</svg>
