<?xml version="1.0" encoding="UTF-8" standalone="no"?>
<!-- Created with Inkscape (http://www.inkscape.org/) -->

<svg
   width="230.69789mm"
   height="128.30774mm"
   viewBox="0 0 230.69789 128.30774"
   version="1.1"
   id="svg1"
   inkscape:export-filename="USBROPEN_LOGIN2.svg"
   inkscape:export-xdpi="96"
   inkscape:export-ydpi="96"
   xml:space="preserve"
   xmlns:inkscape="http://www.inkscape.org/namespaces/inkscape"
   xmlns:sodipodi="http://sodipodi.sourceforge.net/DTD/sodipodi-0.dtd"
   xmlns="http://www.w3.org/2000/svg"
   xmlns:svg="http://www.w3.org/2000/svg"><sodipodi:namedview
     id="namedview1"
     pagecolor="#ffffff"
     bordercolor="#000000"
     borderopacity="0.25"
     inkscape:showpageshadow="2"
     inkscape:pageopacity="0.0"
     inkscape:pagecheckerboard="0"
     inkscape:deskcolor="#d1d1d1"
     inkscape:document-units="mm"
     showguides="true"><sodipodi:guide
       position="96.090217,224.78705"
       orientation="0,-1"
       id="guide5"
       inkscape:locked="false" /><inkscape:page
       x="0"
       y="0"
       width="230.69789"
       height="128.30774"
       id="page2"
       margin="0"
       bleed="0" /></sodipodi:namedview><defs
     id="defs1" /><g
     inkscape:label="Layer 1"
     inkscape:groupmode="layer"
     id="layer1"
     transform="translate(-25.468978,-40.382301)"><path
       style="fill:#dcdddd;fill-opacity:1;stroke-width:0.351676"
       d="m 129.09985,164.4284 c -4.02629,-0.17961 -7.85701,-0.49977 -8.21801,-0.68642 -0.61294,-0.31692 -0.76956,-0.7162 -0.82046,-2.09103 -0.0367,-0.99186 -0.0101,-1.2865 0.13502,-1.4055 0.14061,-0.11668 3.89949,-0.14388 16.7345,-0.11864 l 16.55307,0.0328 0.0351,1.38191 c 0.0341,1.34297 0.0263,1.39298 -0.29922,1.77899 -0.18387,0.21861 -0.4594,0.44474 -0.61245,0.50291 -0.36169,0.13765 -4.37563,0.45985 -7.68564,0.61724 -2.96678,0.14124 -12.57119,0.1347 -15.82175,-0.0131 z m -7.32143,-5.30705 c 0,-0.47136 0.45723,-1.11825 0.99083,-1.40177 0.41324,-0.21959 1.03476,-0.22974 14.05835,-0.22974 13.24644,0 13.63919,0.0101 14.09848,0.24088 0.5488,0.27989 0.87319,0.72135 0.97036,1.32016 l 0.0689,0.42433 h -15.09342 -15.09344 z m 1.63856,-2.52444 c -0.23368,-0.23367 -0.21499,-21.85533 0.0196,-22.04955 0.12323,-0.10221 3.75056,-0.13142 13.49505,-0.10784 l 13.32652,0.0328 v 11.10626 11.10628 l -13.34557,0.0328 c -10.27716,0.0263 -13.37994,-0.002 -13.49504,-0.11799 z m 0.89528,-23.1004 c -0.0357,-0.0931 -0.0479,-0.52593 -0.0263,-0.96234 l 0.0374,-0.79352 h 12.5333 12.53333 v 0.93071 0.93068 l -12.50597,0.0328 c -10.4518,0.0263 -12.51659,0.002 -12.57072,-0.13699 z m 1.18894,-2.49457 c 0,-0.35072 0.30053,-0.83321 0.6231,-0.99993 0.17959,-0.0927 0.85283,-0.31529 1.49598,-0.49404 1.69797,-0.4721 3.26361,-1.26651 4.12238,-2.09161 1.12794,-1.08374 1.75926,-2.72773 1.52572,-3.97274 l -0.0826,-0.43986 -0.75738,-0.0364 c -0.64197,-0.0328 -0.77214,-0.0771 -0.85479,-0.30185 -0.0632,-0.17205 -0.0331,-0.35677 0.0865,-0.52739 0.18189,-0.25989 0.23531,-0.26252 5.08664,-0.26252 3.14229,0 4.98896,0.0465 5.14279,0.12848 0.26842,0.14387 0.31922,0.61152 0.0911,0.83949 -0.0819,0.0816 -0.44382,0.14913 -0.80424,0.14913 -0.60133,0 -0.66196,0.0262 -0.73586,0.32085 -0.0443,0.17632 -0.0521,0.67288 -0.0163,1.10306 0.1891,2.35686 2.13494,4.0828 5.79098,5.1367 1.36477,0.39344 1.79115,0.67654 1.94011,1.28817 l 0.0833,0.34124 h -11.36798 c -9.85843,0 -11.36786,-0.0263 -11.36786,-0.18025 z m 8.12805,-10.115 c -2.1495,-0.19828 -3.61625,-0.57613 -4.92262,-1.26854 -2.28561,-1.21145 -3.94569,-3.49218 -5.02402,-6.90238 -0.5071,-1.60369 -0.51609,-1.62385 -0.63899,-1.43454 -0.16288,0.25105 -0.63994,0.42422 -0.9524,0.3458 -0.35005,-0.0876 -0.36647,-0.14191 -0.18616,-0.61696 0.39487,-1.03861 0.3673,-2.82157 -0.0649,-4.19567 -0.11602,-0.36906 -0.9839,-2.11197 -1.92844,-3.87313 -0.94454,-1.76116 -1.68866,-3.248479 -1.65363,-3.305236 0.12225,-0.19762 1.56603,-0.860343 1.65268,-0.758516 0.0479,0.05601 0.35055,0.478766 0.67229,0.938543 0.52713,0.753269 1.00526,1.194759 1.14384,1.056199 0.0295,-0.0295 -0.003,-1.219446 -0.0698,-2.64707 -0.0668,-1.427589 -0.12257,-4.36858 -0.12421,-6.535505 l -0.003,-3.939931 h 14.95312 14.95309 l -0.002,4.001933 c -0.001,2.201081 -0.056,5.143379 -0.12125,6.538367 -0.0652,1.395037 -0.0967,2.558246 -0.0699,2.584956 0.13568,0.13602 0.61801,-0.31168 1.14102,-1.058949 0.32183,-0.459777 0.62427,-0.882142 0.67228,-0.938543 0.0885,-0.104238 1.53175,0.562886 1.65707,0.765656 0.0374,0.061 -0.69385,1.524966 -1.62521,3.253976 -0.94801,1.75995 -1.82386,3.55468 -1.98982,4.07731 -0.35717,1.12477 -0.40358,2.82248 -0.1039,3.79438 0.24449,0.79218 0.24777,0.76626 -0.10908,0.85572 -0.31267,0.0787 -0.93783,-0.13305 -0.93783,-0.31724 0,-0.057 -0.0557,-0.10424 -0.12421,-0.10424 -0.0682,0 -0.12422,0.074 -0.12422,0.16453 0,0.37781 -0.80571,2.59129 -1.36289,3.74423 -1.61015,3.33169 -3.82538,4.98299 -7.49847,5.58973 -1.33681,0.2209 -5.62594,0.33085 -7.20855,0.18485 z M 117.40418,99.203574 c -0.1193,-0.0295 -0.21728,-0.0947 -0.21728,-0.14256 0,-0.587645 2.3829,-1.861491 2.64608,-1.414518 0.14617,0.247771 -0.21827,0.658492 -0.93464,1.052163 -0.88574,0.486815 -1.17803,0.585635 -1.49429,0.505075 z m 36.89167,-0.390107 c -1.1595,-0.612571 -1.56737,-1.260211 -0.79369,-1.260211 0.62739,0 2.53443,1.297241 2.26332,1.539638 -0.25432,0.22745 -0.65399,0.15142 -1.46963,-0.279562 z m -37.49231,-1.04699 c -0.61257,-0.412817 -1.02058,-1.170386 -1.78509,-3.314378 -0.40833,-1.145143 -0.86677,-2.185519 -1.13398,-2.573521 -0.44994,-0.653308 -1.08022,-1.150395 -1.45862,-1.150395 -0.30218,0 -0.24482,-0.321177 0.10683,-0.597526 l 0.30939,-0.243185 -0.76485,-1.347884 c -1.579,-2.782921 -2.61498,-5.248124 -3.01082,-7.164573 -0.35491,-1.718092 -0.18222,-3.717616 0.4084,-4.72885 0.2163,-0.370581 0.2163,-0.371493 -0.15208,-0.621068 -0.48036,-0.325775 -0.64453,-0.813372 -0.42674,-1.267783 0.18124,-0.378311 0.59736,-0.544833 0.59736,-0.238925 0,0.103562 0.13208,0.341901 0.29365,0.529631 l 0.29366,0.34127 0.99121,-0.391676 c 1.32595,-0.523997 1.89406,-0.642704 3.09312,-0.646299 2.65336,-0.0068 4.22254,1.289251 4.6872,3.874863 l 0.0836,0.465331 h -0.87171 -0.87176 l -0.24187,-0.473816 c -0.3238,-0.634793 -1.0855,-1.303281 -1.79259,-1.573297 -1.13899,-0.435017 -2.60047,-0.05837 -3.42702,0.882947 -0.60481,0.688806 -0.7726,1.19884 -0.76072,2.311901 0.0196,1.815366 0.47877,3.213858 2.04938,6.239694 1.61532,3.111998 1.81226,3.434392 2.04292,3.344488 0.234,-0.09083 0.25629,-0.0941 0.53608,-0.07471 0.17993,0.01307 0.1914,0.06976 0.0797,0.39011 -0.27267,0.782045 0.21107,1.933949 1.55073,3.693534 0.50459,0.662752 1.06184,1.42831 1.23832,1.70138 0.34429,0.532573 0.62353,1.544437 0.50872,1.843561 -0.0387,0.100294 -0.44972,0.382368 -0.91363,0.626105 l -0.84344,0.443266 z m 38.09856,-0.173374 c -0.43872,-0.241866 -0.82338,-0.464079 -0.85481,-0.493604 -0.11438,-0.107506 -0.0163,-1.019922 0.15568,-1.425853 0.096,-0.228761 0.68319,-1.097498 1.30474,-1.930085 0.62153,-0.832541 1.27318,-1.796197 1.44808,-2.141366 0.38241,-0.754617 0.5212,-1.602078 0.32315,-1.972422 -0.12093,-0.225808 -0.10875,-0.26907 0.0787,-0.281522 0.29234,-0.01961 0.31234,-0.01307 0.54686,0.07471 0.23303,0.09083 0.44141,-0.252357 2.10663,-3.472583 1.24895,-2.415192 1.79213,-3.912851 1.96089,-5.406578 0.14749,-1.306042 0.003,-2.055407 -0.53165,-2.756405 -1.47433,-1.932969 -4.32221,-1.702958 -5.42576,0.438251 l -0.2399,0.465353 h -0.87448 c -0.77284,0 -0.86759,-0.02626 -0.81491,-0.217289 0.0328,-0.11962 0.0974,-0.440516 0.14387,-0.713518 0.13667,-0.805451 0.69071,-1.784242 1.34032,-2.368268 0.78854,-0.708988 1.8331,-1.045447 3.23256,-1.041254 1.19904,0.0034 1.76714,0.122246 3.09309,0.646265 l 0.99121,0.391687 0.29366,-0.341281 c 0.16157,-0.187787 0.29365,-0.421922 0.29365,-0.520481 0,-0.0986 0.0771,-0.179267 0.17108,-0.179267 0.27989,0 0.49914,0.366118 0.49914,0.833928 0,0.334227 -0.0921,0.520616 -0.38699,0.784242 l -0.38702,0.3458 0.31922,0.786305 c 1.04062,2.563785 0.0697,6.48573 -2.8627,11.56349 l -0.70572,1.222009 0.31169,0.244819 c 0.35671,0.280541 0.41098,0.59933 0.10187,0.59933 -0.35854,0 -1.01879,0.531197 -1.47164,1.183919 -0.25301,0.364766 -0.70811,1.399304 -1.09169,2.481859 -0.87345,2.465102 -1.22642,3.099152 -1.927,3.461427 -0.32216,0.166815 -0.39396,0.15043 -1.14143,-0.261857 z M 121.04233,86.21616 c -0.19369,-0.399936 -0.53559,-0.742389 -1.3121,-1.313772 -0.57761,-0.425111 -1.19964,-0.949491 -1.38223,-1.165371 -0.50783,-0.60031 -0.93038,-1.629867 -1.00451,-2.447275 l -0.0668,-0.737284 h 0.82384 0.82383 v 0.508783 c 0,0.416558 0.0793,0.58796 0.43691,0.94566 0.37508,0.375122 0.49357,0.426058 0.83762,0.36001 0.64188,-0.123226 0.93075,-0.562063 1.02949,-1.564225 l 0.0859,-0.870699 h 15.18525 15.1853 v 0.366186 c 0,0.636754 0.2553,1.587226 0.48112,1.791645 0.11962,0.108182 0.39432,0.232366 0.61023,0.275628 0.33598,0.06716 0.45553,0.01307 0.82948,-0.358421 0.35772,-0.357723 0.43691,-0.529102 0.43691,-0.945682 v -0.508784 h 0.80659 0.8066 v 0.457228 c 0,0.736586 -0.35497,1.793482 -0.81551,2.427948 -0.23532,0.32413 -0.83512,0.890656 -1.33288,1.258769 -1.05043,0.776838 -1.69847,1.470005 -1.69847,1.816819 0,0.241213 -0.17271,0.243827 -15.25227,0.243827 h -15.25228 z m 2.0735,-2.38232 c 0.15173,-0.105816 0.27562,-0.283167 0.27562,-0.39349 0,-0.25104 -0.35579,-0.654221 -0.57763,-0.654221 -0.19435,0 -0.66328,0.438735 -0.66328,0.620436 0,0.14617 0.45317,0.620538 0.59285,0.620538 0.0531,0 0.22056,-0.08722 0.37227,-0.193364 z m 2.28252,-0.01307 c 0.30283,-0.273656 0.2894,-0.745207 -0.0263,-0.91396 -0.59117,-0.316264 -1.12446,0.377624 -0.67331,0.876175 0.26843,0.2966 0.40496,0.304139 0.69923,0.03798 z m 2.33651,-0.0426 c 0.13667,-0.136332 0.2481,-0.304138 0.2481,-0.372271 0,-0.171739 -0.46431,-0.62047 -0.64172,-0.62047 -0.20614,0 -0.5992,0.379055 -0.5992,0.577671 0,0.194345 0.43875,0.66327 0.62045,0.66327 0.0682,0 0.23563,-0.111789 0.37227,-0.248098 z m 2.20603,0.05477 c 0.34248,-0.239906 0.35278,-0.567315 0.0263,-0.862044 -0.20549,-0.185826 -0.3025,-0.200577 -0.5584,-0.08384 -0.37722,0.171728 -0.43555,0.805383 -0.0924,1.005137 0.28677,0.167141 0.30316,0.165181 0.62387,-0.05894 z m 2.26945,0.06457 c 0.36668,-0.19599 0.32282,-0.831832 -0.0698,-1.010682 -0.25596,-0.116668 -0.35294,-0.101984 -0.55843,0.08395 -0.32578,0.294639 -0.31529,0.622217 0.0262,0.862089 0.32741,0.229087 0.29923,0.226461 0.601,0.06457 z m 2.32199,-0.06457 c 0.15174,-0.105816 0.27562,-0.283168 0.27562,-0.39348 0,-0.25105 -0.35578,-0.654266 -0.57766,-0.654266 -0.19436,0 -0.66328,0.438781 -0.66328,0.620482 0,0.14617 0.45316,0.620504 0.59285,0.620504 0.0531,0 0.22057,-0.08688 0.37227,-0.193364 z m 2.28249,-0.01307 c 0.30283,-0.273657 0.2894,-0.745241 -0.0263,-0.91396 -0.59114,-0.316264 -1.12444,0.377612 -0.67327,0.876141 0.26842,0.296926 0.40495,0.304138 0.69923,0.03798 z m 2.33651,-0.0426 c 0.13634,-0.136332 0.2481,-0.303812 0.2481,-0.372237 0,-0.17174 -0.46428,-0.620482 -0.64171,-0.620482 -0.20616,0 -0.59921,0.379032 -0.59921,0.577671 0,0.194356 0.43875,0.663281 0.62047,0.663281 0.0682,0 0.23565,-0.112126 0.37225,-0.248098 z m 2.20607,0.0551 c 0.34245,-0.239905 0.35274,-0.567348 0.0262,-0.862044 -0.20549,-0.185825 -0.3025,-0.200576 -0.55843,-0.08395 -0.3772,0.171728 -0.43554,0.805371 -0.0924,1.005137 0.28677,0.167141 0.30316,0.165169 0.62389,-0.05905 z m 2.26941,0.06457 c 0.36671,-0.19599 0.32282,-0.831831 -0.0699,-1.010715 -0.25596,-0.116341 -0.35293,-0.101984 -0.55842,0.08418 -0.32577,0.294639 -0.31528,0.622217 0.0263,0.862089 0.32741,0.229087 0.29922,0.226462 0.60104,0.06457 z m 2.34959,-0.119631 c 0.13667,-0.136332 0.24809,-0.313639 0.24809,-0.393513 0,-0.206144 -0.37903,-0.59924 -0.57763,-0.59924 -0.19435,0 -0.66329,0.438781 -0.66329,0.620482 0,0.06818 0.11179,0.235972 0.2481,0.372271 0.13667,0.136343 0.30415,0.248098 0.37229,0.248098 0.0682,0 0.23564,-0.111788 0.37227,-0.248098 z m 2.29117,0.0068 c 0.4512,-0.498517 -0.0823,-1.19254 -0.67326,-0.876141 -0.30579,0.163536 -0.32794,0.582517 -0.0476,0.892391 0.26318,0.290706 0.44667,0.286773 0.72079,-0.01634 z m 2.30026,-0.0068 c 0.13667,-0.136332 0.2481,-0.304139 0.2481,-0.372271 0,-0.171739 -0.46431,-0.620482 -0.64175,-0.620482 -0.23039,0 -0.59919,0.389389 -0.59919,0.632697 0,0.206155 0.42848,0.608255 0.64807,0.608255 0.0531,0 0.2081,-0.111788 0.34467,-0.248098 z m -33.54438,-3.945205 c -0.19862,-0.219249 -0.19762,-0.244818 0.0163,-0.43913 0.16321,-0.147488 0.45654,-0.206154 1.03208,-0.206154 0.94136,0 1.37135,0.217953 1.14875,0.582167 -0.20942,0.342712 -1.90108,0.391417 -2.19804,0.06322 z m 36.79557,0.07438 c -0.42933,-0.429337 0.0263,-0.719717 1.1267,-0.719717 0.61451,0 0.84248,0.05184 1.00189,0.228107 0.19271,0.213029 0.19139,0.241551 -0.023,0.434318 -0.27693,0.250724 -1.87033,0.293985 -2.10702,0.05736 z m -32.63622,-0.99459 c -0.1914,-0.191392 -0.1914,-0.627581 0,-0.819007 0.0836,-0.08362 0.48462,-0.148796 0.91508,-0.148796 0.95486,0 1.45007,-0.174027 2.78285,-0.977179 0.58013,-0.349665 1.41775,-0.761434 1.86138,-0.915075 l 0.8066,-0.279234 h 8.74852 c 10.07111,0 9.19664,-0.09477 11.78134,1.273947 1.46246,0.774315 1.59644,0.820258 2.54389,0.872569 0.55008,0.02952 1.06994,0.111112 1.15524,0.179594 0.19697,0.157642 0.20058,0.619197 0.007,0.813576 -0.2163,0.216308 -30.38486,0.216308 -30.60113,0 z m 9.09595,-4.208403 c 0.13667,-0.07178 0.86244,-0.763857 1.61319,-1.537777 1.15083,-1.186275 1.45263,-1.429955 1.92343,-1.552923 0.81065,-0.211721 0.85278,-0.270703 0.71913,-1.006016 -0.36766,-2.022828 -1.30568,-4.377201 -2.56141,-6.428866 -2.61082,-4.26574 -3.31522,-6.001592 -3.07496,-7.577785 0.17566,-1.152457 1.12729,-2.207966 2.26509,-2.512274 0.29857,-0.07967 0.54257,-0.182546 0.54257,-0.228096 0,-0.04553 0.42494,-0.376643 0.94431,-0.735673 0.70651,-0.488432 1.00268,-0.781335 1.17615,-1.163342 0.33124,-0.729476 0.30447,-1.729373 -0.0728,-2.732279 -0.4043,-1.074058 -0.4178,-2.111909 -0.0371,-2.839976 0.15043,-0.287427 0.26186,-0.564328 0.2481,-0.615523 -0.0131,-0.05116 0.0263,-0.09308 0.0901,-0.09308 0.0632,0 0.3225,-0.195325 0.57561,-0.434183 0.64131,-0.60484 1.24153,-0.746165 2.4735,-0.582426 0.54597,0.07246 1.29072,0.256617 1.65494,0.409154 0.48423,0.202538 0.68638,0.237934 0.75222,0.131419 0.0567,-0.09173 0.1914,0.04429 0.36451,0.368541 0.25662,0.480893 0.26153,0.533913 0.0757,0.817835 -0.16944,0.258917 -0.17731,0.394077 -0.0518,0.916778 0.0809,0.337247 0.1101,0.81069 0.0649,1.052106 -0.0656,0.348843 -0.0131,0.556102 0.25203,1.0096 0.31954,0.545452 0.32447,0.577963 0.10751,0.736586 -0.12487,0.09139 -0.2645,0.165834 -0.31037,0.165834 -0.0459,0 -0.0836,0.222529 -0.0836,0.494292 0,0.272022 -0.0668,0.574819 -0.14847,0.673277 -0.0816,0.09826 -0.13863,0.253011 -0.12618,0.343332 0.1003,0.74 -0.31004,0.959453 -1.26493,0.676815 -0.62113,-0.183865 -0.67639,-0.182558 -0.82626,0.01634 -0.0881,0.117986 -0.1442,0.433563 -0.12421,0.701258 0.0512,0.683137 0.48119,0.825047 1.35738,0.448111 1.30433,-0.561117 2.59883,-0.549645 3.87433,0.03437 l 0.65501,0.299879 0.47682,-0.244491 c 0.74233,-0.380825 1.79829,-0.265137 2.33572,0.255637 0.24678,0.239251 0.53572,0.395248 0.73174,0.395248 h 0.32381 l -0.0196,-1.954425 c -0.0163,-1.597233 -0.0639,-2.073562 -0.26121,-2.605942 -0.13306,-0.358309 -0.2766,-0.651472 -0.31889,-0.651472 -0.0426,0 -0.2966,0.186806 -0.56492,0.415139 -0.65053,0.55378 -2.03882,0.741217 -2.03882,0.275301 0,-0.08193 -0.137,-0.268416 -0.30414,-0.41373 l -0.30414,-0.264483 0.25727,-0.781696 c 0.14159,-0.429923 0.34616,-0.852408 0.45483,-0.938898 0.14028,-0.11145 0.60422,-0.14617 1.59533,-0.119293 1.51557,0.04091 1.94513,0.205163 2.2098,0.84363 0.14258,0.343727 0.83226,1.700918 1.83547,3.611428 0.67396,1.283425 0.93693,2.027978 1.38564,3.923185 0.16518,0.697889 0.18091,0.944341 0.0685,1.079671 -0.31168,0.375482 -1.62488,0.992842 -3.22719,1.517087 -2.2336,0.73076 -3.5865,0.834953 -4.93825,0.380249 -0.49764,-0.167479 -0.93074,-0.262522 -0.96247,-0.211068 -0.0328,0.0515 -0.17042,0.458603 -0.3084,0.90508 -0.13798,0.446477 -0.53201,1.232331 -0.87585,1.746389 -1.29426,1.935087 -2.34649,6.22163 -2.34649,9.559109 v 0.777335 l 0.54885,0.153709 c 0.59773,0.167468 0.98365,0.491271 2.11912,1.778663 0.40951,0.464304 0.96794,0.980029 1.24095,1.146123 l 0.49639,0.301851 -6.45279,-0.0034 c -4.59409,-0.0023 -6.38131,-0.04034 -6.20462,-0.133391 z"
       id="path5" /><g
       id="g5"
       transform="matrix(0.46012448,0,0,0.46012448,101.23352,56.84414)"><path
         style="fill:#093b60;fill-opacity:1;stroke-width:0.434562"
         d="m 97.622193,144.04054 c -10.807204,-0.79419 -18.619052,-4.84901 -23.59743,-12.2485 -1.092418,-1.62367 -2.463606,-4.22069 -3.152434,-6.54092 -1.708683,-5.75546 -2.611039,-11.37291 -2.300493,-17.86372 0.324787,-6.78989 2.497156,-13.822191 5.793404,-18.754121 4.635513,-6.935761 11.570042,-11.030851 20.857919,-12.317341 2.587922,-0.35846 8.332541,-0.355844 11.100431,0.0051 7.38123,0.962421 13.11196,3.468129 17.49296,7.648625 4.07492,3.888422 6.77517,8.796183 8.20498,14.912724 0.17744,0.759067 0.36027,1.414623 0.40628,1.456793 0.13746,0.12598 -0.0925,-14.132248 -0.27202,-16.868151 -0.1698,-2.587249 -0.50661,-5.551696 -0.68194,-6.001966 -0.0876,-0.224799 0.18988,-0.26345 2.61634,-0.364537 1.49283,-0.0622 7.69058,-0.12155 13.7728,-0.131907 11.52736,-0.01963 13.31595,0.04971 17.47017,0.677198 10.61082,1.602765 16.52295,6.275672 18.5207,14.638653 l 0.29305,1.226772 -0.0747,-4.830421 c -0.0863,-5.58283 -0.35981,-9.464354 -0.79669,-11.309329 l -0.0817,-0.34503 h 21.10181 21.10181 v 6.993688 c 0,6.598259 -0.0152,6.987769 -0.26836,6.889118 -0.43586,-0.169841 -4.09793,-0.667819 -6.24887,-0.849741 -1.09644,-0.09273 -5.25405,-0.209191 -9.23916,-0.258797 l -7.24563,-0.09019 v 6.712867 6.712863 l 6.55558,-0.0863 c 6.56019,-0.0865 9.76439,-0.29203 12.3931,-0.79505 0.66903,-0.12802 1.30269,-0.23278 1.40811,-0.23279 0.15073,-2e-5 0.19168,1.60499 0.19168,7.51397 0,4.1327 -0.0172,7.51399 -0.0384,7.51399 -0.0211,0 -0.52141,-0.1025 -1.11176,-0.22785 -2.60342,-0.55264 -10.04688,-0.98094 -17.28979,-0.99486 l -2.10853,-0.004 v 7.2073 7.2073 l 6.24889,-0.001 c 8.02148,-0.002 13.14003,-0.30262 16.63812,-0.97751 l 1.0351,-0.19971 v 6.95323 6.95325 h -21.48818 -21.48815 l 0.0917,-0.57506 c 0.57619,-3.61583 0.71213,-8.31892 0.7014,-24.26713 l -0.01,-14.79797 -0.28568,1.3245 c -0.82937,3.84529 -2.56681,7.17776 -4.98399,9.5595 -3.35375,3.30459 -7.69911,5.16187 -14.25921,6.09462 -0.94474,0.13433 -3.40684,0.19623 -7.80474,0.19623 h -6.42461 l 0.10467,6.51724 c 0.0576,3.58448 0.17465,7.75936 0.26026,9.27748 0.15013,2.66249 0.50303,5.93288 0.69386,6.43016 0.0832,0.21683 -0.89383,0.24043 -9.956,0.24043 h -10.04827 l 0.13011,-0.49838 c 0.50646,-1.94024 0.76036,-6.72866 0.84361,-15.90972 l 0.073,-8.05071 -0.45657,1.76349 c -0.60404,2.33294 -1.43674,4.81911 -2.18261,6.51647 -3.79394,8.63382 -10.96588,14.47565 -20.21356,16.46476 -3.3887,0.72888 -8.34319,1.05324 -11.992238,0.78507 z m 6.433227,-12.88912 c 4.7857,-1.09312 7.89724,-4.81636 9.26594,-11.08754 0.61562,-2.82065 0.77043,-4.42452 0.85453,-8.8535 0.14431,-7.59878 -0.54346,-12.333527 -2.32537,-16.008362 -1.9482,-4.017798 -4.80744,-6.024654 -9.28562,-6.517421 -2.909774,-0.320184 -6.000353,0.247983 -8.112489,1.491387 -3.626623,2.134968 -5.716212,6.135241 -6.71065,12.846726 -0.347514,2.34544 -0.398112,11.47972 -0.07769,14.03123 1.16602,9.28553 4.779755,13.83256 11.452176,14.40986 1.665803,0.14412 3.428723,0.0326 4.939183,-0.31238 z m 56.116,-23.27018 c 4.25305,-0.92334 6.35307,-3.39887 6.78594,-7.999398 0.24492,-2.602978 -0.11948,-5.046357 -1.01685,-6.818446 -0.5449,-1.076026 -1.9219,-2.390881 -3.10867,-2.968368 -2.03124,-0.988405 -3.82992,-1.249867 -8.62576,-1.253867 l -3.64199,-0.003 v 9.649612 c 0,9.057457 0.0165,9.654507 0.26835,9.729427 0.1476,0.044 1.99351,0.0548 4.10203,0.0243 3.09905,-0.0449 4.10258,-0.11393 5.23695,-0.3602 z m 67.13311,34.58994 c 0.27326,-1.2925 0.54657,-4.40152 0.70534,-8.02351 0.23394,-5.33686 0.11502,-49.588174 -0.14071,-52.356807 -0.16695,-1.807552 -0.37214,-3.43307 -0.57585,-4.562069 l -0.09,-0.498377 11.93979,0.0052 11.93977,0.0052 5.82089,12.607553 c 3.2015,6.934159 7.31979,15.85084 9.15177,19.81485 1.83197,3.96402 3.61277,8.02886 3.95731,9.03298 0.52436,1.52815 1.6496,5.75848 1.90055,7.14511 0.0382,0.21085 0.0523,-9.17397 0.0314,-20.85517 -0.0264,-14.769724 -0.0923,-21.775652 -0.21631,-23.002019 -0.18945,-1.873309 -0.45042,-3.838598 -0.58542,-4.408722 l -0.0817,-0.34503 h 8.50138 8.5014 l -0.18819,0.91322 c -0.70816,3.436358 -0.82659,8.912936 -0.83011,38.382881 l -0.004,26.64499 -11.45801,-0.0393 -11.458,-0.0393 -9.08634,-19.55172 c -4.99748,-10.75345 -9.36005,-20.24318 -9.6946,-21.0883 -0.73801,-1.8643 -1.42004,-4.200977 -1.85586,-6.358195 -0.17862,-0.884148 -0.35468,-1.63747 -0.39125,-1.674037 -0.13259,-0.132596 -0.0559,34.219162 0.0859,38.465282 0.15574,4.66446 0.37056,7.58208 0.68097,9.24855 l 0.19279,1.03509 h -8.42971 -8.42958 z"
         id="path3"
         sodipodi:nodetypes="csassscsssccsssscsscccssssccccssssccccccsccccccccssssccssscsscsssccssssssscssscsssccscccccssccccssssssscccsccccsssssscccc" /><g
         id="g4"
         transform="matrix(1.6174739,0,0,1.6174739,-165.96175,-111.63169)"
         style="fill:#093b60;fill-opacity:1"><path
           style="fill:#093b60;fill-opacity:1"
           d="m 119.30537,155.19338 v -17.78456 -17.78456 c 0,0 -0.0946,-1.05041 -0.16859,-1.57228 -0.0532,-0.37481 -0.1977,-1.11835 -0.1977,-1.11835 0,0 2.92996,-0.0246 10.68536,0.01 10.9422,0.0487 11.42276,-0.0626 13.92706,0.94301 2.19636,0.88192 4.25645,3.32268 5.50776,5.63088 0.89003,1.64176 1.23716,3.60103 1.21823,5.46843 -0.0199,1.96558 -0.44539,4.00971 -1.39866,5.72878 -1.01201,1.825 -2.64177,3.31443 -4.3723,4.48063 -0.80891,0.54513 -2.70842,1.10811 -2.70842,1.10811 0,0 8.62773,14.13131 10.35442,15.92234 0.75534,0.78348 1.37335,1.53756 1.37335,1.67574 0,0.13818 -2.77455,0.25124 -6.16567,0.25124 -6.0139,0 -6.30542,-0.0367 -6.30542,-0.0367 0,0 -2.64623,-4.84378 -4.8556,-8.86848 l -4.01703,-7.31764 -1.49935,-0.003 -1.49935,-0.003 v 6.47808 6.47808 l 0.0907,1.41414 c 0.0599,0.93369 0.52305,1.82136 0.52305,1.82136 0,0 -1.5927,0.0366 -5.37636,0.0366 -3.78366,0 -5.46298,-0.002 -5.46298,-0.002 0.003,-0.32152 0.39604,-1.28221 0.34754,-2.95686 z m 17.96217,-20.83831 c 2.04924,-1.0597 2.85434,-5.20099 1.45673,-7.49313 -1.19956,-1.96733 -2.16878,-2.35388 -5.96379,-2.37846 l -3.40063,-0.022 -0.0976,5.20363 -0.0976,5.20363 h 3.55484 c 2.42205,0 3.87136,-0.16367 4.54811,-0.51364 z"
           id="path2"
           sodipodi:nodetypes="ccssassacssscscccccscsccscccsccsscccs" /><path
           style="fill:#093b60;fill-opacity:1"
           d="m 91.369324,157.8813 c 0,0 0.203526,-1.6033 0.257624,-2.4091 0.06725,-1.00165 0.06911,-2.00675 0.08293,-3.01056 0.06996,-5.08067 0,-15.24346 0,-15.24346 0,0 -0.100908,-10.35449 -0.174706,-15.53144 -0.01556,-1.0917 0.01583,-2.18552 -0.05653,-3.27493 -0.03814,-0.57424 -0.198785,-1.71503 -0.198785,-1.71503 0,0 3.274378,-0.042 9.337933,0.0265 9.64886,0.10899 11.25561,0.20651 12.87536,0.78139 3.75577,1.333 6.04171,4.26551 6.35357,8.15066 0.33456,4.16787 -1.06483,5.96666 -3.03159,8.05545 -0.99232,1.05389 -3.23235,2.32586 -3.23235,2.32586 0,0 2.69733,0.93296 3.82871,1.76705 2.6979,1.98897 4.27598,3.49365 4.28199,8.14605 0.005,3.56638 -0.72177,5.84821 -2.50741,7.8768 -3.16098,3.59106 -5.4534,4.08186 -19.09747,4.08864 -5.772495,0.003 -8.020455,-0.0339 -8.020455,-0.0339 z m 17.385946,-7.51105 c 1.71656,-0.69313 2.47069,-2.86065 2.50355,-5.13425 0.0538,-3.72331 -2.12648,-5.40508 -6.61829,-5.6882 -1.01583,-0.064 -3.05257,-0.077 -3.05257,-0.077 v 5.69691 5.69691 c 0,0 1.70773,0.10223 2.56049,0.0612 1.54495,-0.0743 3.47009,-0.0966 4.60682,-0.55561 z m -0.99766,-17.63907 c 2.19033,-1.43515 2.94189,-4.61828 1.60723,-6.80718 -1.01428,-1.66347 -2.36576,-1.99954 -5.02217,-2.32996 -0.88422,-0.10999 -2.69295,-0.14452 -2.69295,-0.14452 l -0.0618,5.01798 v 5.20328 c 0,0 1.77151,-0.0165 2.64551,-0.0861 1.58873,-0.12654 2.95199,-0.47861 3.52414,-0.8535 z"
           id="path2-1"
           sodipodi:nodetypes="saacaacsssscscsccscssccsasccsccssscc" /></g><path
         style="fill:#d02030;fill-opacity:1;stroke-width:0.426526"
         d="m -92.840488,143.36621 c -8.415772,-0.48246 -14.894402,-2.87942 -19.091032,-7.06329 -2.76518,-2.75677 -4.49606,-6.13844 -5.44777,-10.64345 l -0.34346,-1.62578 -0.0152,-14.82845 c -0.014,-13.717734 -0.11907,-19.209974 -0.51975,-27.172964 -0.0792,-1.57317 -0.14458,-3.08048 -0.14537,-3.34957 l -0.002,-0.48927 h 9.80296 9.802963 l -0.0944,1.09144 c -0.652073,7.53893 -1.087303,30.924974 -0.683393,36.720434 0.659775,9.46663 3.347342,13.38223 9.699711,14.13181 4.162423,0.49117 7.826956,-0.49099 9.832949,-2.63541 2.229135,-2.38296 3.276691,-6.01366 3.658396,-12.67959 0.193281,-3.37537 0.08118,-23.314724 -0.162336,-28.875734 -0.07977,-1.82157 -0.190957,-4.31116 -0.247087,-5.53244 l -0.102056,-2.22051 h 8.300883 c 6.540391,0 8.300865,0.0399 8.300797,0.18818 -4.8e-5,0.1035 -0.06622,1.40758 -0.147053,2.89795 -0.262448,4.83904 -0.469739,9.89602 -0.408174,9.95758 0.03307,0.0331 0.27806,-0.54915 0.544433,-1.29382 2.028986,-5.67216 7.4365,-9.92992 14.997876,-11.80899 5.6492,-1.40388 13.677229,-1.40245 20.541073,0.004 2.915991,0.59736 7.776728,2.17637 8.629264,2.80322 0.233284,0.17153 0.07378,0.66446 -1.838792,5.68262 -1.151829,3.02215 -2.137492,5.60169 -2.190364,5.73232 -0.08099,0.20009 -0.326403,0.1252 -1.557771,-0.47533 -3.928948,-1.91613 -8.281211,-2.79966 -13.095738,-2.65849 -2.671528,0.0783 -3.615345,0.25472 -5.086075,0.95048 -2.140269,1.01251 -3.254555,3.21386 -2.707565,5.34898 0.666195,2.60041 3.312025,4.290644 11.750065,7.506284 5.465982,2.08302 8.718545,3.90081 11.192903,6.25549 3.458644,3.29134 4.858856,6.94712 4.871093,12.7178 0.008,3.76128 -0.559367,6.33412 -2.074775,9.40892 -2.703565,5.48557 -8.083768,9.51923 -14.858153,11.13947 -2.478384,0.59276 -4.797772,0.82867 -8.147161,0.82867 -6.20368,0 -11.986886,-0.90108 -16.896883,-2.6327 -1.949678,-0.68759 -5.174087,-2.15144 -5.174087,-2.34897 0,-0.1746 4.167123,-12.1823 4.259918,-12.2751 0.04383,-0.0438 0.238,0.0232 0.43148,0.14888 0.669114,0.43476 3.725455,1.74677 5.497641,2.36 4.881172,1.68903 10.25487,2.38341 13.357711,1.72608 3.118198,-0.66059 4.871181,-2.47226 5.022722,-5.19087 0.118719,-2.12988 -0.89358,-3.71752 -3.407063,-5.34349 -1.49526,-0.96728 -5.394112,-2.82842 -8.677983,-4.1425 -5.578367,-2.23224 -8.997195,-4.14819 -11.262428,-6.31158 -2.031302,-1.93997 -3.17427,-3.85258 -3.941131,-6.59498 l -0.369369,-1.3209 0.03352,10.91434 c 0.03287,10.70324 0.02708,10.94815 -0.299061,12.66224 -1.394274,7.32777 -5.110079,12.28375 -11.489245,15.32384 -3.700926,1.76374 -7.773973,2.68724 -13.318802,3.01983 -2.818494,0.16906 -3.682109,0.16825 -6.727429,-0.006 z"
         id="path1" /></g><path
       style="fill:#093b60;fill-opacity:1;stroke-width:0.227139"
       d="m 114.39252,139.43079 c -1.25713,-0.66803 -1.90027,-2.46273 -1.43906,-4.01577 0.44626,-1.50273 1.84661,-2.94216 2.86227,-2.94216 0.41259,0 0.94674,0.62445 0.94674,1.1068 0,0.23672 -0.19478,0.62519 -0.43283,0.86324 -0.42461,0.42461 -0.73486,0.45649 -1.46195,0.15017 -0.19513,-0.0822 -0.42755,0.0177 -0.71865,0.30875 -0.35842,0.35843 -0.43026,0.58823 -0.43026,1.37636 0,1.61652 0.65828,2.38483 2.1997,2.56738 0.68808,0.0815 0.99418,0.019 1.77184,-0.36141 2.07725,-1.0163 3.83475,-4.16325 6.42128,-11.49783 0.41256,-1.16987 0.79446,-2.19881 0.84869,-2.28656 0.26017,-0.42096 0.65968,0.22821 1.54126,2.50437 2.63778,6.81046 3.84368,9.77681 4.08379,10.04563 0.14537,0.16275 0.44275,0.2959 0.66084,0.2959 0.27731,0 0.39654,0.0969 0.39654,0.32235 0,0.30223 -0.15293,0.32233 -2.45187,0.32233 -2.29893,0 -2.45185,-0.0201 -2.45185,-0.32233 0,-0.2562 0.12252,-0.32235 0.59713,-0.32235 0.37323,0 0.63342,-0.0945 0.6939,-0.25213 0.0532,-0.13868 -0.15843,-0.97556 -0.47032,-1.85973 l -0.56707,-1.60756 -2.32504,-2.2e-4 c -1.53283,-2.2e-4 -2.32504,0.0611 -2.32504,0.17985 0,0.49654 -1.22558,2.71569 -1.92897,3.49278 -1.11211,1.22862 -3.13913,2.24533 -4.47653,2.24533 -0.60497,0 -1.17144,-0.11484 -1.54454,-0.3131 z m 11.10669,-9.16999 c -0.46786,-1.20488 -0.90087,-2.13221 -0.96224,-2.06071 -0.11593,0.13505 -1.51776,4.05755 -1.5184,4.24872 -2e-4,0.0598 0.74925,0.0848 1.66547,0.0557 l 1.66583,-0.0529 z m 59.87692,8.25436 c -0.65043,-0.39378 -2.08046,-2.15184 -5.5052,-6.76803 l -1.98108,-2.67033 -0.0457,3.56368 c -0.0547,4.27494 0.002,4.59332 0.85858,4.8082 0.3434,0.0861 0.62437,0.25736 0.62437,0.38045 0,0.17214 -0.42955,0.22382 -1.86003,0.22382 -1.43048,0 -1.86003,-0.0517 -1.86003,-0.22382 0,-0.12309 0.28534,-0.2943 0.6341,-0.38045 l 0.63411,-0.15665 0.13622,-1.69094 c 0.17687,-2.19542 0.0111,-7.66792 -0.24139,-7.97225 -0.10444,-0.12584 -0.40885,-0.22879 -0.67646,-0.22879 -0.31979,0 -0.48658,-0.0869 -0.48658,-0.25364 0,-0.20517 0.26934,-0.25364 1.4095,-0.25364 h 1.40949 l 3.06364,4.10052 c 1.685,2.25529 3.23837,4.31414 3.45195,4.57523 l 0.38831,0.47471 -0.0561,-4.10959 c -0.0344,-2.51306 -0.12448,-4.19195 -0.23207,-4.32159 -0.0968,-0.1166 -0.39491,-0.212 -0.66253,-0.212 -0.31978,0 -0.48657,-0.0869 -0.48657,-0.25364 0,-0.20935 0.31,-0.25364 1.77548,-0.25364 1.46548,0 1.77548,0.0442 1.77548,0.25364 0,0.15434 -0.15739,0.25364 -0.40202,0.25364 -0.82348,0 -0.862,0.21996 -0.92438,5.27907 -0.0537,4.34842 -0.0344,4.74654 0.24482,5.05501 0.18609,0.20563 0.46955,0.31543 0.73457,0.28455 0.33979,-0.0397 0.44373,-0.15815 0.4888,-0.55755 0.0739,-0.6558 0.31076,-0.93002 0.80298,-0.93002 1.09316,0 0.73639,1.48145 -0.49097,2.03869 -0.94062,0.42706 -1.75477,0.40941 -2.5213,-0.0546 z m -52.70982,-5.73551 c -2.24831,-5.20518 -2.28089,-5.26701 -2.91515,-5.53316 -0.35277,-0.14804 -0.64218,-0.32623 -0.64313,-0.39599 -8.1e-4,-0.0697 1.02552,-0.12681 2.28104,-0.12681 1.40912,0 2.28277,0.0647 2.28277,0.16908 0,0.093 -0.13526,0.16909 -0.30057,0.16909 -0.1653,0 -0.47577,0.12273 -0.68992,0.27273 -0.30386,0.21283 -0.36526,0.37062 -0.27965,0.71864 0.1155,0.46956 2.94682,7.12585 3.11623,7.32611 0.15103,0.17856 3.08276,-7.12587 3.02437,-7.53521 -0.0302,-0.21168 -0.27578,-0.46382 -0.59719,-0.61317 -0.30023,-0.1395 -0.54754,-0.3107 -0.54956,-0.38046 -0.002,-0.0697 0.75727,-0.12681 1.68729,-0.12681 1.01456,0 1.69093,0.0676 1.69093,0.16908 0,0.093 -0.0703,0.16909 -0.15611,0.16909 -0.0859,0 -0.37719,0.18602 -0.64737,0.41336 -0.38201,0.32144 -0.95383,1.54335 -2.57175,5.49555 -1.14427,2.7952 -2.16555,5.08009 -2.2695,5.07753 -0.10395,-0.003 -1.21218,-2.37346 -2.46273,-5.26865 z m 33.81062,4.99929 c -1.10212,-0.39724 -2.15801,-1.17886 -2.76657,-2.04798 l -0.53167,-0.75931 -0.67373,1.4561 -0.67372,1.45612 h -4.77954 c -3.07364,0 -4.77955,-0.0604 -4.77955,-0.16909 0,-0.093 0.21647,-0.16911 0.48107,-0.16911 0.27407,0 0.61968,-0.153 0.80319,-0.35557 0.29473,-0.32535 0.32656,-0.70295 0.37424,-4.43872 0.0286,-2.24571 0.007,-4.32797 -0.0489,-4.62724 -0.13185,-0.71011 -0.5013,-1.06228 -1.11439,-1.06228 -0.27237,0 -0.4952,-0.0761 -0.4952,-0.16909 0,-0.10521 0.9582,-0.16908 2.5364,-0.16908 1.5782,0 2.53641,0.0638 2.53641,0.16908 0,0.093 -0.26633,0.16909 -0.59184,0.16909 -0.36637,0 -0.72065,0.12884 -0.93,0.3382 -0.32116,0.32115 -0.33806,0.56179 -0.3356,4.7769 8.6e-4,2.45616 0.0732,4.55033 0.16062,4.68863 0.21151,0.33448 2.35146,0.4406 3.61122,0.17907 0.88418,-0.18356 1.04338,-0.29687 2.29211,-1.63154 1.34033,-1.43259 1.34172,-1.43505 1.16902,-2.06045 -0.46633,-1.68865 0.44378,-4.28189 1.90932,-5.44033 1.29176,-1.02108 2.48719,-1.39813 4.21352,-1.32901 1.72863,0.0693 2.74232,0.49999 3.89456,1.65496 1.19871,1.20158 1.58151,2.15872 1.59211,3.98094 0.008,1.29764 -0.0558,1.65884 -0.4298,2.45186 -0.56023,1.18767 -1.6743,2.30071 -2.85865,2.85599 -1.18424,0.55523 -3.38588,0.67671 -4.56462,0.25186 z m 3.89267,-0.76335 c 1.46425,-0.82295 2.14119,-2.63997 1.97082,-5.28998 -0.17967,-2.79455 -1.35195,-4.35666 -3.45648,-4.6059 -1.03611,-0.12272 -1.90556,0.14653 -2.68603,0.8318 -1.48703,1.30562 -1.97243,4.14659 -1.16606,6.8248 0.32379,1.07544 1.30282,2.19756 2.20508,2.52743 0.89478,0.32713 2.26164,0.2014 3.13267,-0.28815 z m -31.62495,0.73625 c 0,-0.0726 0.22451,-0.21676 0.49891,-0.32034 0.27441,-0.10357 0.64718,-0.43212 0.8284,-0.73012 0.18122,-0.29798 1.2693,-2.70167 2.41796,-5.34153 1.14866,-2.63986 2.17,-4.80098 2.26965,-4.80249 0.0997,-0.002 1.15473,2.28064 2.34461,5.07148 1.66308,3.90069 2.27923,5.17168 2.66411,5.49555 0.27537,0.23171 0.60898,0.42128 0.74135,0.42128 0.13236,0 0.24067,0.0761 0.24067,0.16911 0,0.10405 -0.84547,0.16909 -2.19823,0.16909 -1.35275,0 -2.19822,-0.0651 -2.19822,-0.16909 0,-0.093 0.1404,-0.16911 0.31199,-0.16911 0.30105,0 0.87168,-0.48685 0.87168,-0.74371 0,-0.0689 -0.23538,-0.69066 -0.52307,-1.38171 l -0.52306,-1.25644 h -2.24309 -2.24309 l -0.54846,1.38791 -0.54845,1.38794 0.3742,0.30301 c 0.20581,0.16665 0.51795,0.303 0.69365,0.303 0.17571,0 0.31946,0.0761 0.31946,0.16911 0,0.10198 -0.70456,0.16909 -1.77549,0.16909 -0.97651,0 -1.77548,-0.0595 -1.77548,-0.13203 z m 7.38999,-4.47578 c -0.57564,-1.40974 -1.70014,-3.95638 -1.785,-4.04247 -0.0602,-0.0611 -0.53894,0.87105 -1.06387,2.07139 l -0.95444,2.18245 h 1.94481 c 1.48915,0 1.92459,-0.0495 1.8585,-0.21137 z"
       id="path6"
       sodipodi:nodetypes="ssscsssssssssssccsssccsssscssscsssssscssssscsscsssssssssssssssscsssssssssssssscssscccssssscsssssscsssssssssssssssssssssscssssssssscccccsssssssscsssscsscsc" /><text
       xml:space="preserve"
       style="font-style:normal;font-variant:normal;font-weight:normal;font-stretch:normal;font-size:15.8472px;line-height:66.0431px;font-family:'Book Antiqua';-inkscape-font-specification:'Book Antiqua';letter-spacing:1.65076px;word-spacing:0px;writing-mode:lr-tb;direction:ltr;fill:#093b60;fill-opacity:1;stroke:none;stroke-width:6.86299;stroke-linecap:round;stroke-linejoin:round;stroke-opacity:1"
       x="196.88434"
       y="137.90312"
       id="text6"><tspan
         sodipodi:role="line"
         id="tspan6"
         style="font-style:normal;font-variant:normal;font-weight:normal;font-stretch:normal;font-family:'Book Antiqua';-inkscape-font-specification:'Book Antiqua';stroke-width:6.86299"
         x="196.88434"
         y="137.90312">2026</tspan></text></g></svg>
