<?xml version="1.0" encoding="UTF-8" standalone="no"?>
<!-- Created with Inkscape (http://www.inkscape.org/) -->

<svg
   width="252.22234mm"
   height="45.136131mm"
   viewBox="0 0 252.22234 45.136132"
   version="1.1"
   id="svg1"
   sodipodi:docname="USBROPEN.svg"
   inkscape:version="1.4.3 (0d15f75, 2025-12-25)"
   xml:space="preserve"
   xmlns:inkscape="http://www.inkscape.org/namespaces/inkscape"
   xmlns:sodipodi="http://sodipodi.sourceforge.net/DTD/sodipodi-0.dtd"
   xmlns="http://www.w3.org/2000/svg"
   xmlns:svg="http://www.w3.org/2000/svg"><sodipodi:namedview
     id="namedview1"
     pagecolor="#ffffff"
     bordercolor="#000000"
     borderopacity="0.25"
     inkscape:showpageshadow="2"
     inkscape:pageopacity="0.0"
     inkscape:pagecheckerboard="0"
     inkscape:deskcolor="#d1d1d1"
     inkscape:document-units="mm"
     inkscape:zoom="0.72730918"
     inkscape:cx="365.73167"
     inkscape:cy="99.682504"
     inkscape:window-width="1920"
     inkscape:window-height="1009"
     inkscape:window-x="3832"
     inkscape:window-y="105"
     inkscape:window-maximized="1"
     inkscape:current-layer="layer1" /><defs
     id="defs1" /><g
     id="layer1"
     transform="translate(-8.0708096,-84.437857)"><g
       id="g5"
       transform="matrix(0.52763235,0,0,0.52763235,106.26835,49.566058)"><path
         style="fill:#ffffff;fill-opacity:1;stroke-width:0.434562"
         d="m 97.622193,144.04054 c -10.807204,-0.79419 -18.619052,-4.84901 -23.59743,-12.2485 -1.092418,-1.62367 -2.463606,-4.22069 -3.152434,-6.54092 -1.708683,-5.75546 -2.611039,-11.37291 -2.300493,-17.86372 0.324787,-6.78989 2.497156,-13.822191 5.793404,-18.754121 4.635513,-6.935761 11.570042,-11.030851 20.857919,-12.317341 2.587922,-0.35846 8.332541,-0.355844 11.100431,0.0051 7.38123,0.962421 13.11196,3.468129 17.49296,7.648625 4.07492,3.888422 6.77517,8.796183 8.20498,14.912724 0.17744,0.759067 0.36027,1.414623 0.40628,1.456793 0.13746,0.12598 -0.0925,-14.132248 -0.27202,-16.868151 -0.1698,-2.587249 -0.50661,-5.551696 -0.68194,-6.001966 -0.0876,-0.224799 0.18988,-0.26345 2.61634,-0.364537 1.49283,-0.0622 7.69058,-0.12155 13.7728,-0.131907 11.52736,-0.01963 13.31595,0.04971 17.47017,0.677198 10.61082,1.602765 16.52295,6.275672 18.5207,14.638653 l 0.29305,1.226772 -0.0747,-4.830421 c -0.0863,-5.58283 -0.35981,-9.464354 -0.79669,-11.309329 l -0.0817,-0.34503 h 21.10181 21.10181 v 6.993688 c 0,6.598259 -0.0152,6.987769 -0.26836,6.889118 -0.43586,-0.169841 -4.09793,-0.667819 -6.24887,-0.849741 -1.09644,-0.09273 -5.25405,-0.209191 -9.23916,-0.258797 l -7.24563,-0.09019 v 6.712867 6.712863 l 6.55558,-0.0863 c 6.56019,-0.0865 9.76439,-0.29203 12.3931,-0.79505 0.66903,-0.12802 1.30269,-0.23278 1.40811,-0.23279 0.15073,-2e-5 0.19168,1.60499 0.19168,7.51397 0,4.1327 -0.0172,7.51399 -0.0384,7.51399 -0.0211,0 -0.52141,-0.1025 -1.11176,-0.22785 -2.60342,-0.55264 -10.04688,-0.98094 -17.28979,-0.99486 l -2.10853,-0.004 v 7.2073 7.2073 l 6.24889,-0.001 c 8.02148,-0.002 13.14003,-0.30262 16.63812,-0.97751 l 1.0351,-0.19971 v 6.95323 6.95325 h -21.48818 -21.48815 l 0.0917,-0.57506 c 0.57619,-3.61583 0.71213,-8.31892 0.7014,-24.26713 l -0.01,-14.79797 -0.28568,1.3245 c -0.82937,3.84529 -2.56681,7.17776 -4.98399,9.5595 -3.35375,3.30459 -7.69911,5.16187 -14.25921,6.09462 -0.94474,0.13433 -3.40684,0.19623 -7.80474,0.19623 h -6.42461 l 0.10467,6.51724 c 0.0576,3.58448 0.17465,7.75936 0.26026,9.27748 0.15013,2.66249 0.50303,5.93288 0.69386,6.43016 0.0832,0.21683 -0.89383,0.24043 -9.956,0.24043 h -10.04827 l 0.13011,-0.49838 c 0.50646,-1.94024 0.76036,-6.72866 0.84361,-15.90972 l 0.073,-8.05071 -0.45657,1.76349 c -0.60404,2.33294 -1.43674,4.81911 -2.18261,6.51647 -3.79394,8.63382 -10.96588,14.47565 -20.21356,16.46476 -3.3887,0.72888 -8.34319,1.05324 -11.992238,0.78507 z m 6.433227,-12.88912 c 4.7857,-1.09312 7.89724,-4.81636 9.26594,-11.08754 0.61562,-2.82065 0.77043,-4.42452 0.85453,-8.8535 0.14431,-7.59878 -0.54346,-12.333527 -2.32537,-16.008362 -1.9482,-4.017798 -4.80744,-6.024654 -9.28562,-6.517421 -2.909774,-0.320184 -6.000353,0.247983 -8.112489,1.491387 -3.626623,2.134968 -5.716212,6.135241 -6.71065,12.846726 -0.347514,2.34544 -0.398112,11.47972 -0.07769,14.03123 1.16602,9.28553 4.779755,13.83256 11.452176,14.40986 1.665803,0.14412 3.428723,0.0326 4.939183,-0.31238 z m 56.116,-23.27018 c 4.25305,-0.92334 6.35307,-3.39887 6.78594,-7.999398 0.24492,-2.602978 -0.11948,-5.046357 -1.01685,-6.818446 -0.5449,-1.076026 -1.9219,-2.390881 -3.10867,-2.968368 -2.03124,-0.988405 -3.82992,-1.249867 -8.62576,-1.253867 l -3.64199,-0.003 v 9.649612 c 0,9.057457 0.0165,9.654507 0.26835,9.729427 0.1476,0.044 1.99351,0.0548 4.10203,0.0243 3.09905,-0.0449 4.10258,-0.11393 5.23695,-0.3602 z m 67.13311,34.58994 c 0.27326,-1.2925 0.54657,-4.40152 0.70534,-8.02351 0.23394,-5.33686 0.11502,-49.588174 -0.14071,-52.356807 -0.16695,-1.807552 -0.37214,-3.43307 -0.57585,-4.562069 l -0.09,-0.498377 11.93979,0.0052 11.93977,0.0052 5.82089,12.607553 c 3.2015,6.934159 7.31979,15.85084 9.15177,19.81485 1.83197,3.96402 3.61277,8.02886 3.95731,9.03298 0.52436,1.52815 1.6496,5.75848 1.90055,7.14511 0.0382,0.21085 0.0523,-9.17397 0.0314,-20.85517 -0.0264,-14.769724 -0.0923,-21.775652 -0.21631,-23.002019 -0.18945,-1.873309 -0.45042,-3.838598 -0.58542,-4.408722 l -0.0817,-0.34503 h 8.50138 8.5014 l -0.18819,0.91322 c -0.70816,3.436358 -0.82659,8.912936 -0.83011,38.382881 l -0.004,26.64499 -11.45801,-0.0393 -11.458,-0.0393 -9.08634,-19.55172 c -4.99748,-10.75345 -9.36005,-20.24318 -9.6946,-21.0883 -0.73801,-1.8643 -1.42004,-4.200977 -1.85586,-6.358195 -0.17862,-0.884148 -0.35468,-1.63747 -0.39125,-1.674037 -0.13259,-0.132596 -0.0559,34.219162 0.0859,38.465282 0.15574,4.66446 0.37056,7.58208 0.68097,9.24855 l 0.19279,1.03509 h -8.42971 -8.42958 z"
         id="path3" /><g
         id="g4"
         transform="matrix(1.6174739,0,0,1.6174739,-165.96175,-111.63169)"
         style="fill:#ffffff;fill-opacity:1"><path
           style="fill:#ffffff;fill-opacity:1"
           d="m 119.30537,155.19338 v -17.78456 -17.78456 c 0,0 -0.0946,-1.05041 -0.16859,-1.57228 -0.0532,-0.37481 -0.1977,-1.11835 -0.1977,-1.11835 0,0 2.92996,-0.0246 10.68536,0.01 10.9422,0.0487 11.42276,-0.0626 13.92706,0.94301 2.19636,0.88192 4.25645,3.32268 5.50776,5.63088 0.89003,1.64176 1.23716,3.60103 1.21823,5.46843 -0.0199,1.96558 -0.44539,4.00971 -1.39866,5.72878 -1.01201,1.825 -2.64177,3.31443 -4.3723,4.48063 -0.80891,0.54513 -2.70842,1.10811 -2.70842,1.10811 0,0 8.62773,14.13131 10.35442,15.92234 0.75534,0.78348 1.37335,1.53756 1.37335,1.67574 0,0.13818 -2.77455,0.25124 -6.16567,0.25124 -6.0139,0 -6.30542,-0.0367 -6.30542,-0.0367 0,0 -2.64623,-4.84378 -4.8556,-8.86848 l -4.01703,-7.31764 -1.49935,-0.003 -1.49935,-0.003 v 6.47808 6.47808 l 0.0907,1.41414 c 0.0599,0.93369 0.52305,1.82136 0.52305,1.82136 0,0 -1.5927,0.0366 -5.37636,0.0366 -3.78366,0 -5.46298,-0.002 -5.46298,-0.002 0.003,-0.32152 0.39604,-1.28221 0.34754,-2.95686 z m 17.96217,-20.83831 c 2.04924,-1.0597 2.85434,-5.20099 1.45673,-7.49313 -1.19956,-1.96733 -2.16878,-2.35388 -5.96379,-2.37846 l -3.40063,-0.022 -0.0976,5.20363 -0.0976,5.20363 h 3.55484 c 2.42205,0 3.87136,-0.16367 4.54811,-0.51364 z"
           id="path2" /><path
           style="fill:#ffffff;fill-opacity:1"
           d="m 91.369324,157.8813 c 0,0 0.203526,-1.6033 0.257624,-2.4091 0.06725,-1.00165 0.06911,-2.00675 0.08293,-3.01056 0.06996,-5.08067 0,-15.24346 0,-15.24346 0,0 -0.100908,-10.35449 -0.174706,-15.53144 -0.01556,-1.0917 0.01583,-2.18552 -0.05653,-3.27493 -0.03814,-0.57424 -0.198785,-1.71503 -0.198785,-1.71503 0,0 3.274378,-0.042 9.337933,0.0265 9.64886,0.10899 11.25561,0.20651 12.87536,0.78139 3.75577,1.333 6.04171,4.26551 6.35357,8.15066 0.33456,4.16787 -1.06483,5.96666 -3.03159,8.05545 -0.99232,1.05389 -3.23235,2.32586 -3.23235,2.32586 0,0 2.69733,0.93296 3.82871,1.76705 2.6979,1.98897 4.27598,3.49365 4.28199,8.14605 0.005,3.56638 -0.72177,5.84821 -2.50741,7.8768 -3.16098,3.59106 -5.4534,4.08186 -19.09747,4.08864 -5.772495,0.003 -8.020455,-0.0339 -8.020455,-0.0339 z m 17.385946,-7.51105 c 1.71656,-0.69313 2.47069,-2.86065 2.50355,-5.13425 0.0538,-3.72331 -2.12648,-5.40508 -6.61829,-5.6882 -1.01583,-0.064 -3.05257,-0.077 -3.05257,-0.077 v 5.69691 5.69691 c 0,0 1.70773,0.10223 2.56049,0.0612 1.54495,-0.0743 3.47009,-0.0966 4.60682,-0.55561 z m -0.99766,-17.63907 c 2.19033,-1.43515 2.94189,-4.61828 1.60723,-6.80718 -1.01428,-1.66347 -2.36576,-1.99954 -5.02217,-2.32996 -0.88422,-0.10999 -2.69295,-0.14452 -2.69295,-0.14452 l -0.0618,5.01798 v 5.20328 c 0,0 1.77151,-0.0165 2.64551,-0.0861 1.58873,-0.12654 2.95199,-0.47861 3.52414,-0.8535 z"
           id="path2-1" /></g><path
         style="fill:#d02030;fill-opacity:1;stroke-width:0.426526"
         d="m -92.840488,143.36621 c -8.415772,-0.48246 -14.894402,-2.87942 -19.091032,-7.06329 -2.76518,-2.75677 -4.49606,-6.13844 -5.44777,-10.64345 l -0.34346,-1.62578 -0.0152,-14.82845 c -0.014,-13.717734 -0.11907,-19.209974 -0.51975,-27.172964 -0.0792,-1.57317 -0.14458,-3.08048 -0.14537,-3.34957 l -0.002,-0.48927 h 9.80296 9.802963 l -0.0944,1.09144 c -0.652073,7.53893 -1.087303,30.924974 -0.683393,36.720434 0.659775,9.46663 3.347342,13.38223 9.699711,14.13181 4.162423,0.49117 7.826956,-0.49099 9.832949,-2.63541 2.229135,-2.38296 3.276691,-6.01366 3.658396,-12.67959 0.193281,-3.37537 0.08118,-23.314724 -0.162336,-28.875734 -0.07977,-1.82157 -0.190957,-4.31116 -0.247087,-5.53244 l -0.102056,-2.22051 h 8.300883 c 6.540391,0 8.300865,0.0399 8.300797,0.18818 -4.8e-5,0.1035 -0.06622,1.40758 -0.147053,2.89795 -0.262448,4.83904 -0.469739,9.89602 -0.408174,9.95758 0.03307,0.0331 0.27806,-0.54915 0.544433,-1.29382 2.028986,-5.67216 7.4365,-9.92992 14.997876,-11.80899 5.6492,-1.40388 13.677229,-1.40245 20.541073,0.004 2.915991,0.59736 7.776728,2.17637 8.629264,2.80322 0.233284,0.17153 0.07378,0.66446 -1.838792,5.68262 -1.151829,3.02215 -2.137492,5.60169 -2.190364,5.73232 -0.08099,0.20009 -0.326403,0.1252 -1.557771,-0.47533 -3.928948,-1.91613 -8.281211,-2.79966 -13.095738,-2.65849 -2.671528,0.0783 -3.615345,0.25472 -5.086075,0.95048 -2.140269,1.01251 -3.254555,3.21386 -2.707565,5.34898 0.666195,2.60041 3.312025,4.290644 11.750065,7.506284 5.465982,2.08302 8.718545,3.90081 11.192903,6.25549 3.458644,3.29134 4.858856,6.94712 4.871093,12.7178 0.008,3.76128 -0.559367,6.33412 -2.074775,9.40892 -2.703565,5.48557 -8.083768,9.51923 -14.858153,11.13947 -2.478384,0.59276 -4.797772,0.82867 -8.147161,0.82867 -6.20368,0 -11.986886,-0.90108 -16.896883,-2.6327 -1.949678,-0.68759 -5.174087,-2.15144 -5.174087,-2.34897 0,-0.1746 4.167123,-12.1823 4.259918,-12.2751 0.04383,-0.0438 0.238,0.0232 0.43148,0.14888 0.669114,0.43476 3.725455,1.74677 5.497641,2.36 4.881172,1.68903 10.25487,2.38341 13.357711,1.72608 3.118198,-0.66059 4.871181,-2.47226 5.022722,-5.19087 0.118719,-2.12988 -0.89358,-3.71752 -3.407063,-5.34349 -1.49526,-0.96728 -5.394112,-2.82842 -8.677983,-4.1425 -5.578367,-2.23224 -8.997195,-4.14819 -11.262428,-6.31158 -2.031302,-1.93997 -3.17427,-3.85258 -3.941131,-6.59498 l -0.369369,-1.3209 0.03352,10.91434 c 0.03287,10.70324 0.02708,10.94815 -0.299061,12.66224 -1.394274,7.32777 -5.110079,12.28375 -11.489245,15.32384 -3.700926,1.76374 -7.773973,2.68724 -13.318802,3.01983 -2.818494,0.16906 -3.682109,0.16825 -6.727429,-0.006 z"
         id="path1" /></g><path
       style="fill:#c7c8c8;fill-opacity:1;stroke-width:0.125063"
       d="m 115.76372,61.920363 c -1.43184,-0.0639 -2.79413,-0.17772 -2.92251,-0.2441 -0.21797,-0.11271 -0.27367,-0.2547 -0.29177,-0.74362 -0.0131,-0.35273 -0.003,-0.4575 0.048,-0.49983 0.05,-0.0415 1.38674,-0.0511 5.95115,-0.0423 l 5.88661,0.0111 0.0124,0.49143 c 0.0121,0.47759 0.009,0.49538 -0.10641,0.63264 -0.0654,0.0777 -0.16337,0.15817 -0.2178,0.17886 -0.12862,0.0489 -1.55606,0.16353 -2.73317,0.21949 -1.05505,0.0502 -4.47058,0.0479 -5.62656,-0.004 z m -2.60366,-1.8873 c 0,-0.16763 0.1626,-0.39767 0.35235,-0.4985 0.14696,-0.0781 0.36799,-0.0817 4.99946,-0.0817 4.7107,0 4.85037,0.003 5.01371,0.0857 0.19516,0.0996 0.31053,0.25652 0.34509,0.46947 l 0.0245,0.1509 h -5.36755 -5.36754 z m 0.58271,-0.89775 c -0.0831,-0.0831 -0.0764,-7.77222 0.007,-7.84128 0.0438,-0.0364 1.33378,-0.0467 4.79911,-0.0384 l 4.7392,0.0112 v 3.94962 3.94963 l -4.74597,0.0112 c -3.65477,0.009 -4.75818,-8.7e-4 -4.79912,-0.0419 z m 0.31837,-8.21499 c -0.0127,-0.033 -0.0171,-0.18702 -0.01,-0.34222 l 0.0133,-0.2822 h 4.45712 4.45711 v 0.33098 0.33098 l -4.44738,0.0113 c -3.71689,0.009 -4.45117,8.7e-4 -4.47042,-0.0487 z m 0.42281,-0.88712 c 0,-0.12472 0.10693,-0.2963 0.22159,-0.35559 0.0639,-0.033 0.30328,-0.1121 0.532,-0.1757 0.60384,-0.16788 1.16061,-0.45039 1.46601,-0.74382 0.40111,-0.3854 0.62563,-0.97003 0.54257,-1.41279 l -0.0294,-0.15642 -0.26932,-0.013 c -0.2283,-0.0111 -0.27461,-0.0274 -0.30399,-0.1073 -0.0225,-0.0612 -0.0118,-0.12687 0.0307,-0.18755 0.0647,-0.0924 0.0837,-0.0934 1.80892,-0.0934 1.11746,0 1.77417,0.0165 1.82888,0.0457 0.0954,0.0511 0.11348,0.21746 0.0324,0.29853 -0.0291,0.0291 -0.15783,0.053 -0.286,0.053 -0.21385,0 -0.23541,0.009 -0.26169,0.11411 -0.0157,0.0628 -0.0186,0.2393 -0.006,0.39228 0.0673,0.83815 0.75923,1.45192 2.0594,1.82672 0.48534,0.13991 0.63697,0.24059 0.68994,0.45809 l 0.0296,0.12136 h -4.04268 c -3.50588,0 -4.04267,-0.009 -4.04267,-0.0641 z m 2.89051,-3.5971 c -0.7644,-0.0705 -1.28602,-0.20489 -1.75058,-0.45113 -0.81282,-0.43081 -1.40318,-1.24189 -1.78666,-2.45462 -0.18033,-0.57031 -0.18352,-0.57748 -0.22723,-0.51016 -0.058,0.0893 -0.22758,0.15086 -0.3387,0.12297 -0.12448,-0.0312 -0.13033,-0.0505 -0.0662,-0.2194 0.14043,-0.36935 0.13062,-1.00341 -0.0231,-1.49207 -0.0413,-0.13125 -0.34989,-0.75106 -0.68579,-1.37737 -0.3359,-0.62631 -0.60053,-1.15523 -0.58806,-1.17541 0.0434,-0.0703 0.55691,-0.30596 0.58772,-0.26975 0.0171,0.02 0.12466,0.17026 0.23909,0.33377 0.18745,0.26788 0.35748,0.42488 0.40676,0.3756 0.0101,-0.0101 -0.001,-0.43365 -0.0249,-0.94135 -0.0237,-0.50767 -0.0436,-1.55355 -0.0441,-2.32417 l -0.001,-1.40112 h 5.31764 5.31764 l -9.6e-4,1.42318 c -5.4e-4,0.78275 -0.02,1.82909 -0.0431,2.32518 -0.0232,0.4961 -0.0344,0.90976 -0.0249,0.91927 0.0483,0.0483 0.21979,-0.11082 0.40577,-0.37659 0.11442,-0.16351 0.22201,-0.31371 0.23909,-0.33377 0.0315,-0.037 0.54472,0.20018 0.58929,0.27229 0.0133,0.0216 -0.24676,0.5423 -0.57796,1.15719 -0.33714,0.62587 -0.64861,1.2641 -0.70763,1.44998 -0.12702,0.39999 -0.14352,1.00372 -0.0369,1.34935 0.0869,0.28172 0.0881,0.27249 -0.0388,0.30432 -0.11122,0.0279 -0.3335,-0.0474 -0.3335,-0.11282 0,-0.0203 -0.0199,-0.037 -0.0441,-0.037 -0.0243,0 -0.0441,0.0264 -0.0441,0.0586 0,0.13436 -0.28654,0.92152 -0.48469,1.33152 -0.5726,1.18482 -1.36038,1.77206 -2.66661,1.98783 -0.4754,0.0785 -2.0007,0.11766 -2.56352,0.0658 z m -5.76998,-7.71107 c -0.0425,-0.0109 -0.0772,-0.0337 -0.0772,-0.0507 0,-0.20897 0.84742,-0.66199 0.94101,-0.50304 0.052,0.0882 -0.0777,0.23417 -0.33238,0.37417 -0.31499,0.17314 -0.41893,0.20828 -0.5314,0.17962 z m 13.11946,-0.13874 c -0.41234,-0.21784 -0.55739,-0.44815 -0.28225,-0.44815 0.22312,0 0.9013,0.46133 0.80488,0.54752 -0.0905,0.0809 -0.23256,0.0539 -0.52263,-0.0994 z m -13.33306,-0.37233 c -0.21784,-0.1468 -0.36294,-0.41621 -0.63481,-1.17865 -0.14521,-0.40724 -0.30824,-0.77723 -0.40327,-0.91521 -0.16002,-0.23233 -0.38415,-0.4091 -0.51872,-0.4091 -0.10741,0 -0.087,-0.1142 0.038,-0.21249 l 0.10998,-0.0865 -0.27199,-0.47934 c -0.56153,-0.98967 -0.92995,-1.866343 -1.07072,-2.547878 -0.1262,-0.610996 -0.0648,-1.32206 0.14523,-1.681681 0.077,-0.131782 0.0769,-0.132111 -0.054,-0.220861 -0.17082,-0.115816 -0.2292,-0.289252 -0.15175,-0.450849 0.0645,-0.134541 0.21244,-0.19376 0.21244,-0.08502 0,0.03684 0.047,0.121585 0.10439,0.188339 l 0.10439,0.121363 0.3525,-0.13929 c 0.47154,-0.186335 0.67357,-0.228549 1.09997,-0.22983 0.9436,-0.0027 1.50163,0.458481 1.66687,1.37798 l 0.0297,0.165486 h -0.31 -0.31001 l -0.086,-0.168497 c -0.11517,-0.225755 -0.38603,-0.463477 -0.63748,-0.55951 -0.40505,-0.154691 -0.92479,-0.02077 -1.21873,0.313998 -0.21508,0.244954 -0.27476,0.426334 -0.27052,0.82216 0.007,0.645588 0.17025,1.142916 0.72879,2.21897 0.57445,1.10669 0.64449,1.22134 0.72652,1.18938 0.0832,-0.0323 0.0911,-0.0335 0.19063,-0.0266 0.064,0.005 0.0681,0.0248 0.0284,0.13873 -0.097,0.27811 0.075,0.68775 0.55147,1.3135 0.17945,0.23568 0.37761,0.50794 0.44038,0.60504 0.12244,0.1894 0.22173,0.54924 0.18091,0.65562 -0.0137,0.0357 -0.15993,0.13597 -0.32491,0.22265 l -0.29995,0.15763 z m 13.54866,-0.0616 c -0.15601,-0.086 -0.29281,-0.16503 -0.304,-0.17553 -0.0406,-0.0383 -0.005,-0.36271 0.0553,-0.50707 0.0342,-0.0814 0.24297,-0.3903 0.46401,-0.68638 0.22103,-0.29608 0.45276,-0.63877 0.51496,-0.76151 0.13599,-0.26837 0.18535,-0.56974 0.11487,-0.70145 -0.043,-0.0803 -0.0387,-0.0957 0.028,-0.10009 0.104,-0.007 0.11104,-0.005 0.19448,0.0266 0.0829,0.0323 0.15696,-0.0897 0.74916,-1.23492 0.44415,-0.8589 0.63732,-1.391489 0.69733,-1.922692 0.0525,-0.464456 0.001,-0.730948 -0.18906,-0.980235 -0.5243,-0.687408 -1.53708,-0.605608 -1.92952,0.155851 l -0.0853,0.165486 h -0.31099 c -0.27482,0 -0.30852,-0.009 -0.28979,-0.07722 0.0117,-0.04248 0.0347,-0.156662 0.0512,-0.253749 0.0486,-0.286431 0.24563,-0.634511 0.47664,-0.842205 0.28042,-0.252125 0.6519,-0.371778 1.14957,-0.370287 0.4264,0.0013 0.62844,0.04349 1.09998,0.22983 l 0.35249,0.13929 0.10439,-0.121363 c 0.0574,-0.06675 0.10439,-0.150048 0.10439,-0.185102 0,-0.03505 0.0273,-0.06374 0.0608,-0.06374 0.0996,0 0.17751,0.130204 0.17751,0.296559 0,0.118859 -0.0327,0.18515 -0.13763,0.278896 l -0.13763,0.122971 0.11351,0.279636 c 0.37007,0.911726 0.0248,2.306454 -1.01803,4.112204 l -0.25097,0.43458 0.1108,0.0871 c 0.12685,0.0998 0.14615,0.21314 0.0363,0.21314 -0.12751,0 -0.36231,0.1889 -0.52335,0.42103 -0.09,0.12972 -0.25182,0.49763 -0.38823,0.8826 -0.31062,0.87665 -0.43614,1.10212 -0.68529,1.23096 -0.11456,0.0593 -0.1401,0.0534 -0.40592,-0.0932 z m -12.04125,-4.04589 c -0.0688,-0.14222 -0.19047,-0.264 -0.46661,-0.4672 -0.20542,-0.15117 -0.42662,-0.33766 -0.49156,-0.41443 -0.18059,-0.213485 -0.33086,-0.579606 -0.35722,-0.870303 l -0.0238,-0.262192 h 0.29297 0.29297 v 0.180931 c 0,0.148145 0.0281,0.209089 0.15538,0.336305 0.13339,0.133397 0.17553,0.151507 0.29787,0.128026 0.22827,-0.04381 0.331,-0.199888 0.36611,-0.556275 l 0.0305,-0.309636 h 5.40021 5.4002 v 0.130218 c 0,0.226444 0.0908,0.564448 0.1711,0.637147 0.0426,0.03853 0.14023,0.08262 0.21701,0.09798 0.11949,0.0239 0.162,0.0056 0.29498,-0.127455 0.12722,-0.127216 0.15537,-0.18816 0.15537,-0.336305 v -0.180931 h 0.28685 0.28684 v 0.16259 c 0,0.261947 -0.12624,0.637797 -0.29001,0.863432 -0.0837,0.115288 -0.29698,0.316738 -0.474,0.447648 -0.37356,0.27626 -0.60401,0.52277 -0.60401,0.6461 0,0.0857 -0.0614,0.0867 -5.42403,0.0867 h -5.42404 z m 0.73738,-0.84719 c 0.054,-0.0377 0.0981,-0.10076 0.0981,-0.13994 0,-0.08936 -0.12653,-0.232658 -0.20543,-0.232658 -0.0691,0 -0.23587,0.15603 -0.23587,0.220652 0,0.05201 0.16115,0.220656 0.21083,0.220656 0.0189,0 0.0784,-0.0309 0.13239,-0.0687 z m 0.81171,-0.004 c 0.10764,-0.0974 0.10289,-0.265023 -0.009,-0.325026 -0.21023,-0.11251 -0.39989,0.134289 -0.23944,0.311576 0.0955,0.10553 0.14401,0.10815 0.24866,0.0135 z m 0.83091,-0.0152 c 0.0486,-0.0485 0.0883,-0.10811 0.0883,-0.132384 0,-0.06103 -0.16511,-0.220653 -0.22821,-0.220653 -0.0733,0 -0.21309,0.134792 -0.21309,0.205425 0,0.06909 0.15603,0.235872 0.22065,0.235872 0.0243,0 0.0838,-0.0397 0.13239,-0.0883 z m 0.78452,0.0195 c 0.12179,-0.0853 0.12545,-0.20176 0.01,-0.306566 -0.0731,-0.06613 -0.10758,-0.07132 -0.19859,-0.02985 -0.13414,0.06112 -0.15489,0.286416 -0.0329,0.357456 0.102,0.0594 0.1078,0.0588 0.22186,-0.021 z m 0.80705,0.023 c 0.13041,-0.0698 0.11482,-0.295824 -0.0248,-0.35943 -0.091,-0.04147 -0.12551,-0.03628 -0.19858,0.02984 -0.11581,0.104808 -0.11215,0.22127 0.01,0.30657 0.11637,0.0815 0.10643,0.0805 0.21373,0.023 z m 0.82575,-0.023 c 0.054,-0.0377 0.0981,-0.10076 0.0981,-0.13994 0,-0.08936 -0.12653,-0.232657 -0.20542,-0.232657 -0.0691,0 -0.23588,0.15603 -0.23588,0.220652 0,0.05201 0.16116,0.220655 0.21083,0.220655 0.0189,0 0.0785,-0.0309 0.13239,-0.0687 z m 0.81171,-0.004 c 0.10765,-0.0974 0.10289,-0.265021 -0.009,-0.325024 -0.21022,-0.112508 -0.39988,0.134288 -0.23943,0.311574 0.0955,0.10554 0.14401,0.10816 0.24866,0.0135 z m 0.83091,-0.0152 c 0.0485,-0.0485 0.0883,-0.10811 0.0883,-0.132384 0,-0.06103 -0.16511,-0.220652 -0.22821,-0.220652 -0.0733,0 -0.21309,0.134793 -0.21309,0.205425 0,0.06909 0.15603,0.235881 0.22065,0.235881 0.0243,0 0.0838,-0.0398 0.13239,-0.0883 z m 0.78452,0.0195 c 0.12179,-0.0853 0.12545,-0.201761 0.01,-0.306564 -0.0731,-0.06613 -0.10757,-0.07132 -0.19858,-0.02985 -0.13414,0.06112 -0.15489,0.286414 -0.0329,0.357454 0.10199,0.0594 0.1078,0.0588 0.22186,-0.021 z m 0.80706,0.023 c 0.1304,-0.0698 0.11481,-0.295823 -0.0248,-0.35943 -0.091,-0.04147 -0.12551,-0.03628 -0.19859,0.02985 -0.11581,0.104807 -0.11215,0.22127 0.01,0.30657 0.11638,0.0815 0.10643,0.0805 0.21373,0.023 z m 0.83556,-0.0426 c 0.0485,-0.0485 0.0883,-0.11152 0.0883,-0.139949 0,-0.07327 -0.13479,-0.213087 -0.20542,-0.213087 -0.0691,0 -0.23588,0.15603 -0.23588,0.220652 0,0.02425 0.0397,0.08389 0.0883,0.132384 0.0485,0.0485 0.10812,0.0883 0.13239,0.0883 0.0243,0 0.0838,-0.0397 0.13239,-0.0883 z m 0.8148,0.002 c 0.16044,-0.177286 -0.0292,-0.424087 -0.23944,-0.311578 -0.10869,0.05817 -0.11662,0.207168 -0.0169,0.317358 0.0936,0.10342 0.15884,0.10194 0.25633,-0.006 z m 0.81801,-0.002 c 0.0486,-0.0485 0.0883,-0.10811 0.0883,-0.132384 0,-0.06103 -0.16511,-0.220652 -0.22821,-0.220652 -0.0819,0 -0.21309,0.138463 -0.21309,0.224986 0,0.07329 0.15238,0.21631 0.23046,0.21631 0.0189,0 0.074,-0.0397 0.12258,-0.0883 z m -11.92909,-1.403241 c -0.0706,-0.07802 -0.0703,-0.08704 0.006,-0.156159 0.058,-0.0525 0.16235,-0.07336 0.36703,-0.07336 0.33477,0 0.48767,0.07748 0.40852,0.207033 -0.0745,0.121878 -0.67606,0.139187 -0.78167,0.02246 z m 13.08529,0.02644 c -0.15269,-0.152685 0.009,-0.255952 0.40066,-0.255952 0.21854,0 0.29961,0.01846 0.3563,0.0811 0.0686,0.07578 0.0681,0.0859 -0.008,0.154452 -0.0985,0.08914 -0.66513,0.104566 -0.74929,0.02039 z m -11.60614,-0.353699 c -0.0681,-0.06807 -0.0681,-0.223185 0,-0.291258 0.0297,-0.02975 0.17234,-0.05295 0.32542,-0.05295 0.33957,0 0.51568,-0.06185 0.98964,-0.347509 0.20631,-0.124344 0.50419,-0.270785 0.66195,-0.325421 l 0.28684,-0.09934 h 3.11116 c 3.5815,0 3.27052,-0.03362 4.1897,0.453042 0.52008,0.275363 0.56772,0.291702 0.90466,0.310306 0.19562,0.01081 0.38049,0.03952 0.41083,0.06382 0.0701,0.05612 0.0713,0.220201 0.002,0.289323 -0.0769,0.07691 -10.80551,0.07691 -10.88241,0 z m 3.23471,-1.496606 c 0.0485,-0.02557 0.3067,-0.271645 0.57369,-0.546857 0.40926,-0.421873 0.51659,-0.508528 0.68401,-0.55226 0.28829,-0.0753 0.30327,-0.09625 0.25574,-0.35776 -0.13075,-0.71936 -0.46433,-1.556616 -0.91089,-2.286236 -0.92847,-1.516982 -1.17896,-2.134295 -1.09353,-2.694823 0.0625,-0.409842 0.40089,-0.785203 0.80551,-0.893421 0.10613,-0.02838 0.19296,-0.06488 0.19296,-0.08107 0,-0.01622 0.15112,-0.133933 0.33581,-0.261611 0.25126,-0.173695 0.35658,-0.277865 0.41827,-0.413715 0.1178,-0.259409 0.10831,-0.614997 -0.0259,-0.971655 -0.14377,-0.381961 -0.14858,-0.751039 -0.0131,-1.00996 0.0534,-0.102188 0.0932,-0.200686 0.0883,-0.218891 -0.005,-0.01822 0.01,-0.03312 0.0321,-0.03312 0.0225,0 0.11466,-0.06948 0.2047,-0.154401 0.22807,-0.215095 0.44151,-0.265355 0.87962,-0.207118 0.19417,0.0258 0.45901,0.09128 0.58853,0.145496 0.17221,0.07208 0.2441,0.08465 0.26752,0.04676 0.0202,-0.03266 0.0681,0.01577 0.12963,0.131064 0.0913,0.171013 0.093,0.189868 0.0269,0.290833 -0.0603,0.09204 -0.063,0.140139 -0.0184,0.326027 0.0288,0.119931 0.0391,0.288303 0.023,0.374157 -0.0233,0.124054 -0.005,0.197759 0.0896,0.35903 0.11367,0.193976 0.11536,0.205541 0.0382,0.261944 -0.0444,0.03246 -0.0941,0.05902 -0.11038,0.05902 -0.0163,0 -0.0297,0.0791 -0.0297,0.175778 0,0.09668 -0.0238,0.204425 -0.0528,0.239439 -0.029,0.03502 -0.0493,0.08996 -0.0449,0.122097 0.0356,0.263158 -0.11021,0.341195 -0.44985,0.240687 -0.22088,-0.06537 -0.24053,-0.06495 -0.29383,0.0063 -0.0314,0.04196 -0.0513,0.154181 -0.0441,0.249381 0.0182,0.242938 0.17111,0.293403 0.48272,0.159354 0.46384,-0.199537 0.9242,-0.195461 1.37779,0.01221 l 0.23293,0.106638 0.16957,-0.08699 c 0.26399,-0.135432 0.63952,-0.09433 0.83063,0.0909 0.0878,0.08507 0.19052,0.14057 0.26022,0.14057 h 0.1152 l -0.007,-0.695047 c -0.006,-0.567997 -0.0227,-0.737393 -0.0929,-0.926726 -0.0473,-0.127424 -0.0983,-0.231679 -0.11342,-0.231679 -0.0151,0 -0.10551,0.06643 -0.2009,0.147637 -0.23133,0.196938 -0.72505,0.263589 -0.72505,0.09789 0,-0.02919 -0.0487,-0.09541 -0.10816,-0.147134 l -0.10817,-0.09405 0.0915,-0.27798 c 0.0503,-0.152892 0.1231,-0.303145 0.16176,-0.333899 0.0498,-0.03965 0.21487,-0.052 0.56732,-0.04246 0.53897,0.01461 0.69173,0.07292 0.78586,0.300014 0.0507,0.122235 0.29597,0.60488 0.65273,1.284303 0.23967,0.456416 0.33319,0.721191 0.49277,1.395172 0.0588,0.248178 0.0643,0.335826 0.0244,0.383946 -0.11083,0.133535 -0.57785,0.35308 -1.14767,0.53951 -0.79431,0.259878 -1.27544,0.296925 -1.75614,0.135225 -0.17697,-0.05953 -0.331,-0.09331 -0.34227,-0.07506 -0.0113,0.01826 -0.0606,0.16309 -0.10968,0.321863 -0.049,0.158775 -0.1892,0.438249 -0.31147,0.621057 -0.46027,0.68816 -0.83446,2.212544 -0.83446,3.399423 v 0.27643 l 0.19518,0.05466 c 0.21256,0.05951 0.34981,0.174709 0.75361,0.632536 0.14563,0.165112 0.34421,0.348521 0.4413,0.40758 l 0.17653,0.107386 -2.29475,-0.0011 c -1.63376,-6.96e-4 -2.26933,-0.01431 -2.20649,-0.04739 z"
       id="path5" /><path
       style="fill:#c7c8c8;fill-opacity:1;stroke-width:0.207734"
       d="m 11.691509,125.92825 v -1.09927 h 14.565183 14.565176 v 1.09927 1.09926 H 26.256692 11.691509 Z m 0.60357,-1.63515 c -6.25e-4,-0.0227 0.153122,-0.40608 0.34152,-0.85204 l 0.342547,-0.81081 13.292782,0.0139 13.292782,0.0138 0.347625,0.80767 c 0.1912,0.44422 0.333905,0.82141 0.317125,0.83818 -0.04691,0.047 -27.933217,0.0362 -27.934381,-0.0107 z m 1.430062,-7.57115 v -5.41385 h 12.531551 12.531551 v 5.41385 5.41386 H 26.256692 13.725141 Z m 0.659536,-5.94974 c -8e-6,-0.0227 0.154571,-0.40559 0.343516,-0.85094 l 0.343538,-0.80973 11.191943,-7.2e-4 11.19195,-7.1e-4 0.336915,0.78322 c 0.185302,0.43076 0.336743,0.81413 0.336528,0.85193 -2.1e-4,0.0547 -2.411622,0.0686 -11.872375,0.0686 -6.529599,0 -11.872008,-0.0186 -11.872015,-0.0412 z m 5.331425,-2.76188 v -0.54963 h 0.384735 0.384742 v -2.25348 -2.25349 h -0.384742 -0.384735 v -0.5489 -0.5489 l 1.847546,-0.0145 1.847553,-0.0145 0.569973,-1.67636 c 0.31349,-0.922007 0.570354,-1.694925 0.570821,-1.717595 4.16e-4,-0.02271 -0.07336,-0.04124 -0.164047,-0.04124 H 24.22306 V 98.047493 97.70325 l -0.395151,-0.191644 c -1.450146,-0.703306 -2.536044,-2.040479 -2.935348,-3.614589 -0.651448,-2.568061 0.577832,-5.204919 2.964456,-6.358937 3.307002,-1.599044 7.241236,0.422907 7.873913,4.046698 0.124092,0.710774 0.07894,1.707248 -0.107952,2.382442 -0.426715,1.541613 -1.425845,2.775949 -2.840334,3.508956 l -0.464845,0.240895 -0.01637,0.337332 c -0.01602,0.331053 -0.01932,0.337332 -0.174255,0.337332 h -0.157898 l 0.577422,1.731335 0.57743,1.73133 h 1.836569 1.836578 v 0.54964 0.54963 h -0.384743 -0.384743 v 2.25347 2.25348 h 0.384743 0.384743 v 0.54963 0.54963 H 26.25668 19.71609 Z"
       id="path7" /></g></svg>
