<?xml version="1.0" encoding="UTF-8" standalone="no"?>
<!-- Created with Inkscape (http://www.inkscape.org/) -->

<svg
   width="142.61137mm"
   height="119.94248mm"
   viewBox="0 0 142.61138 119.94248"
   version="1.1"
   id="svg1"
   xml:space="preserve"
   xmlns="http://www.w3.org/2000/svg"
   xmlns:svg="http://www.w3.org/2000/svg"><defs
     id="defs1" /><g
     id="layer1"
     transform="translate(-91.167521,-25.405685)"><rect
       style="fill:#ffffff;stroke-width:3.28401"
       id="rect1"
       width="138.82501"
       height="138.82501"
       x="-58.817043"
       y="10.898249" /><path
       style="fill:#dcdddd;fill-opacity:1;stroke-width:0.351676"
       d="m 3.6663276,140.32373 c -4.02629001,-0.17961 -7.85701,-0.49977 -8.21801,-0.68642 -0.61294,-0.31692 -0.76956,-0.7162 -0.82046,-2.09103 -0.0367,-0.99186 -0.0101,-1.2865 0.13502,-1.4055 0.14061,-0.11668 3.89949,-0.14388 16.7344994,-0.11864 l 16.55307,0.0328 0.0351,1.38191 c 0.0341,1.34297 0.0263,1.39298 -0.29922,1.77899 -0.18387,0.21861 -0.4594,0.44474 -0.61245,0.50291 -0.36169,0.13765 -4.37563,0.45985 -7.68564,0.61724 -2.96678,0.14124 -12.5711894,0.1347 -15.8217494,-0.0131 z m -7.32143,-5.30705 c 0,-0.47136 0.45723,-1.11825 0.99083,-1.40177 0.41324,-0.21959 1.03476,-0.22974 14.0583494,-0.22974 13.24644,0 13.63919,0.0101 14.09848,0.24088 0.5488,0.27989 0.87319,0.72135 0.97036,1.32016 l 0.0689,0.42433 H 11.438397 -3.6550424 Z m 1.63856,-2.52444 c -0.23368,-0.23367 -0.21499,-21.85533 0.0196,-22.04955 0.12323,-0.10221 3.75056,-0.13142 13.4950494,-0.10784 l 13.32652,0.0328 v 11.10626 11.10628 l -13.34557,0.0328 c -10.2771594,0.0263 -13.3799394,-0.002 -13.4950394,-0.11799 z m 0.89528,-23.1004 c -0.0357,-0.0931 -0.0479,-0.52593 -0.0263,-0.96234 l 0.0374,-0.79352 h 12.5332994 12.53333 v 0.93071 0.93068 l -12.50597,0.0328 c -10.45179941,0.0263 -12.5165894,0.002 -12.5707194,-0.13699 z m 1.18893999,-2.49457 c 0,-0.35072 0.30053,-0.83321 0.6231,-0.99993 0.17959,-0.0927 0.85283001,-0.31529 1.49598001,-0.49404 1.69797,-0.4721 3.26361,-1.26651 4.12238,-2.09161 1.12794,-1.08374 1.75926,-2.72773 1.52572,-3.97274 l -0.0826,-0.43986 -0.75738,-0.0364 c -0.64197,-0.0328 -0.77214,-0.0771 -0.85479,-0.30185 -0.0632,-0.17205 -0.0331,-0.35677 0.0865,-0.52739 0.18189,-0.25989 0.23531,-0.26252 5.0866394,-0.26252 3.14229,0 4.98896,0.0465 5.14279,0.12848 0.26842,0.14387 0.31922,0.61152 0.0911,0.83949 -0.0819,0.0816 -0.44382,0.14913 -0.80424,0.14913 -0.60133,0 -0.66196,0.0262 -0.73586,0.32085 -0.0443,0.17632 -0.0521,0.67288 -0.0163,1.10306 0.1891,2.35686 2.13494,4.0828 5.79098,5.1367 1.36477,0.39344 1.79115,0.67654 1.94011,1.28817 l 0.0833,0.34124 h -11.36798 c -9.8584294,0 -11.36785941,-0.0263 -11.36785941,-0.18025 z m 8.12805001,-10.115 c -2.1495,-0.198281 -3.61625,-0.576131 -4.92262,-1.268541 -2.28561001,-1.211447 -3.94569001,-3.492177 -5.02402,-6.902377 -0.5071,-1.60369 -0.51609,-1.62385 -0.63899,-1.43454 -0.16288,0.25105 -0.63994,0.42422 -0.9524,0.3458 -0.35005,-0.0876 -0.36647,-0.14191 -0.18616,-0.61696 0.39487,-1.03861 0.3673,-2.82157 -0.0649,-4.19567 -0.11602,-0.36906 -0.9839,-2.111966 -1.92844,-3.873126 -0.94454,-1.76116 -1.68866,-3.248479 -1.65363,-3.305236 0.12225,-0.19762 1.56603,-0.860343 1.65268,-0.758516 0.0479,0.05601 0.35055,0.478766 0.67229,0.938543 0.52713,0.753269 1.00526,1.194759 1.14384,1.056199 0.0295,-0.0295 -0.003,-1.219446 -0.0698,-2.64707 -0.0668,-1.427589 -0.12257,-4.36858 -0.12421,-6.535505 l -0.003,-3.939931 h 14.9531194 14.95309 l -0.002,4.001933 c -0.001,2.201081 -0.056,5.143379 -0.12125,6.538367 -0.0652,1.395037 -0.0967,2.558246 -0.0699,2.584956 0.13568,0.13602 0.61801,-0.31168 1.14102,-1.058949 0.32183,-0.459777 0.62427,-0.882142 0.67228,-0.938543 0.0885,-0.104238 1.53175,0.562886 1.65707,0.765656 0.0374,0.061 -0.69385,1.524966 -1.62521,3.253976 -0.94801,1.75995 -1.82386,3.554676 -1.98982,4.077306 -0.35717,1.12477 -0.40358,2.82248 -0.1039,3.79438 0.24449,0.79218 0.24777,0.76626 -0.10908,0.85572 -0.31267,0.0787 -0.93783,-0.13305 -0.93783,-0.31724 0,-0.057 -0.0557,-0.10424 -0.12421,-0.10424 -0.0682,0 -0.12422,0.074 -0.12422,0.16453 0,0.37781 -0.80571,2.59129 -1.36289,3.74423 -1.61015,3.33169 -3.82538,4.982987 -7.49847,5.589727 C 14.067357,96.81805 9.7782276,96.928 8.1956176,96.782 Z m -16.22507,-21.68336 c -0.1193,-0.0295 -0.21728,-0.0947 -0.21728,-0.14256 0,-0.587645 2.3829,-1.861491 2.64608,-1.414518 0.14617,0.247771 -0.21827,0.658492 -0.93464,1.052163 -0.88574,0.486815 -1.17803,0.585635 -1.49429,0.505075 z M 28.862327,74.708803 c -1.1595,-0.612571 -1.56737,-1.260211 -0.79369,-1.260211 0.62739,0 2.53443,1.297241 2.26332,1.539638 -0.25432,0.22745 -0.65399,0.15142 -1.46963,-0.279562 z m -37.4923094,-1.04699 c -0.61257,-0.412817 -1.02058,-1.170386 -1.7850906,-3.314378 -0.40833,-1.145143 -0.86677,-2.185519 -1.13398,-2.573521 -0.44994,-0.653308 -1.08022,-1.150395 -1.45862,-1.150395 -0.30218,0 -0.24482,-0.321177 0.10683,-0.597526 l 0.30939,-0.243185 -0.76485,-1.347884 c -1.579,-2.782921 -2.61498,-5.248124 -3.01082,-7.164573 -0.35491,-1.718092 -0.18222,-3.717616 0.4084,-4.72885 0.2163,-0.370581 0.2163,-0.371493 -0.15208,-0.621068 -0.48036,-0.325775 -0.64453,-0.813372 -0.42674,-1.267783 0.18124,-0.378311 0.59736,-0.544833 0.59736,-0.238925 0,0.103562 0.13208,0.341901 0.29365,0.529631 l 0.29366,0.34127 0.99121,-0.391676 c 1.32595,-0.523997 1.89406,-0.642704 3.09312,-0.646299 2.6533606,-0.0068 4.2225406,1.289251 4.6872006,3.874863 l 0.0836,0.465331 h -0.87171 -0.87176 l -0.24187,-0.473816 c -0.3238,-0.634793 -1.0855,-1.303281 -1.7925906,-1.573297 -1.13899,-0.435017 -2.60047,-0.05837 -3.42702,0.882947 -0.60481,0.688806 -0.7726,1.19884 -0.76072,2.311901 0.0196,1.815366 0.47877,3.213858 2.04938,6.239694 1.61532,3.111998 1.81226,3.434392 2.04292,3.344488 0.234,-0.09083 0.25629,-0.0941 0.5360803,-0.07471 0.1799303,0.01307 0.1914003,0.06976 0.0797,0.39011 -0.2726703,0.782045 0.21107,1.933949 1.55073,3.693534 0.50459,0.662752 1.06184,1.42831 1.23832,1.70138 0.34429,0.532573 0.62353,1.544437 0.50872,1.843561 -0.0387,0.100294 -0.44972,0.382368 -0.91363,0.626105 l -0.84344,0.443266 z M 29.468577,73.488439 c -0.43872,-0.241866 -0.82338,-0.464079 -0.85481,-0.493604 -0.11438,-0.107506 -0.0163,-1.019922 0.15568,-1.425853 0.096,-0.228761 0.68319,-1.097498 1.30474,-1.930085 0.62153,-0.832541 1.27318,-1.796197 1.44808,-2.141366 0.38241,-0.754617 0.5212,-1.602078 0.32315,-1.972422 -0.12093,-0.225808 -0.10875,-0.26907 0.0787,-0.281522 0.29234,-0.01961 0.31234,-0.01307 0.54686,0.07471 0.23303,0.09083 0.44141,-0.252357 2.10663,-3.472583 1.24895,-2.415192 1.79213,-3.912851 1.96089,-5.406578 0.14749,-1.306042 0.003,-2.055407 -0.53165,-2.756405 -1.47433,-1.932969 -4.32221,-1.702958 -5.42576,0.438251 l -0.2399,0.465353 h -0.87448 c -0.77284,0 -0.86759,-0.02626 -0.81491,-0.217289 0.0328,-0.11962 0.0974,-0.440516 0.14387,-0.713518 0.13667,-0.805451 0.69071,-1.784242 1.34032,-2.368268 0.78854,-0.708988 1.8331,-1.045447 3.23256,-1.041254 1.19904,0.0034 1.76714,0.122246 3.09309,0.646265 l 0.99121,0.391687 0.29366,-0.341281 c 0.16157,-0.187787 0.29365,-0.421922 0.29365,-0.520481 0,-0.0986 0.0771,-0.179267 0.17108,-0.179267 0.27989,0 0.49914,0.366118 0.49914,0.833928 0,0.334227 -0.0921,0.520616 -0.38699,0.784242 l -0.38702,0.3458 0.31922,0.786305 c 1.04062,2.563785 0.0697,6.48573 -2.8627,11.56349 l -0.70572,1.222009 0.31169,0.244819 c 0.35671,0.280541 0.41098,0.59933 0.10187,0.59933 -0.35854,0 -1.01879,0.531197 -1.47164,1.183919 -0.25301,0.364766 -0.70811,1.399304 -1.09169,2.481859 -0.87345,2.465102 -1.22642,3.099152 -1.927,3.461427 -0.32216,0.166815 -0.39396,0.15043 -1.14143,-0.261857 z M -4.3911924,62.111496 c -0.19369,-0.399936 -0.53559,-0.742389 -1.3121,-1.313772 -0.57761,-0.425111 -1.19964,-0.949491 -1.38223,-1.165371 -0.50783,-0.60031 -0.93038,-1.629867 -1.00451,-2.447275 l -0.0668,-0.737284 h 0.82384 0.82383 v 0.508783 c 0,0.416558 0.0793,0.58796 0.43691,0.94566 0.37508,0.375122 0.49357,0.426058 0.83762,0.36001 0.64188,-0.123226 0.93075,-0.562063 1.02949,-1.564225 l 0.0859,-0.870699 h 15.1852494 15.1853 v 0.366186 c 0,0.636754 0.2553,1.587226 0.48112,1.791645 0.11962,0.108182 0.39432,0.232366 0.61023,0.275628 0.33598,0.06716 0.45553,0.01307 0.82948,-0.358421 0.35772,-0.357723 0.43691,-0.529102 0.43691,-0.945682 v -0.508784 h 0.80659 0.8066 v 0.457228 c 0,0.736586 -0.35497,1.793482 -0.81551,2.427948 -0.23532,0.32413 -0.83512,0.890656 -1.33288,1.258769 -1.05043,0.776838 -1.69847,1.470005 -1.69847,1.816819 0,0.241213 -0.17271,0.243827 -15.25227,0.243827 H -4.1291724 Z m 2.0735,-2.38232 c 0.15173,-0.105816 0.27562,-0.283167 0.27562,-0.39349 0,-0.25104 -0.35579,-0.654221 -0.57763,-0.654221 -0.19435,0 -0.66328,0.438735 -0.66328,0.620436 0,0.14617 0.45317,0.620538 0.59285,0.620538 0.0531,0 0.22056,-0.08722 0.37227,-0.193364 z m 2.28251999,-0.01307 c 0.30283,-0.273656 0.2894,-0.745207 -0.0263,-0.91396 -0.59117,-0.316264 -1.12445999,0.377624 -0.67331,0.876175 0.26843,0.2966 0.40496,0.304139 0.69923,0.03798 z m 2.33651001,-0.0426 c 0.13667,-0.136332 0.2481,-0.304138 0.2481,-0.372271 0,-0.171739 -0.46431,-0.62047 -0.64172,-0.62047 -0.20614,0 -0.5992,0.379055 -0.5992,0.577671 0,0.194345 0.43875,0.66327 0.62045,0.66327 0.0682,0 0.23563,-0.111789 0.37227,-0.248098 z m 2.20603,0.05477 c 0.34248,-0.239906 0.35278,-0.567315 0.0263,-0.862044 -0.20549,-0.185826 -0.3025,-0.200577 -0.5584,-0.08384 -0.37722,0.171728 -0.43555,0.805383 -0.0924,1.005137 0.28677,0.167141 0.30316,0.165181 0.62387,-0.05894 z m 2.26945,0.06457 c 0.36668,-0.19599 0.32282,-0.831832 -0.0698,-1.010682 -0.25596,-0.116668 -0.35294,-0.101984 -0.55843,0.08395 -0.32578,0.294639 -0.31529,0.622217 0.0262,0.862089 0.32741,0.229087 0.29923,0.226461 0.601,0.06457 z m 2.32199,-0.06457 c 0.15174,-0.105816 0.27562,-0.283168 0.27562,-0.39348 0,-0.25105 -0.35578,-0.654266 -0.57766,-0.654266 -0.19436,0 -0.66328,0.438781 -0.66328,0.620482 0,0.14617 0.45316,0.620504 0.59285,0.620504 0.0531,0 0.22057,-0.08688 0.37227,-0.193364 z m 2.2824894,-0.01307 c 0.30283,-0.273657 0.2894,-0.745241 -0.0263,-0.91396 -0.59114,-0.316264 -1.12444,0.377612 -0.67327,0.876141 0.26842,0.296926 0.40495,0.304138 0.69923,0.03798 z m 2.33651,-0.0426 c 0.13634,-0.136332 0.2481,-0.303812 0.2481,-0.372237 0,-0.17174 -0.46428,-0.620482 -0.64171,-0.620482 -0.20616,0 -0.59921,0.379032 -0.59921,0.577671 0,0.194356 0.43875,0.663281 0.62047,0.663281 0.0682,0 0.23565,-0.112126 0.37225,-0.248098 z m 2.20607,0.0551 c 0.34245,-0.239905 0.35274,-0.567348 0.0262,-0.862044 -0.20549,-0.185825 -0.3025,-0.200576 -0.55843,-0.08395 -0.3772,0.171728 -0.43554,0.805371 -0.0924,1.005137 0.28677,0.167141 0.30316,0.165169 0.62389,-0.05905 z m 2.26941,0.06457 c 0.36671,-0.19599 0.32282,-0.831831 -0.0699,-1.010715 -0.25596,-0.116341 -0.35293,-0.101984 -0.55842,0.08418 -0.32577,0.294639 -0.31528,0.622217 0.0263,0.862089 0.32741,0.229087 0.29922,0.226462 0.60104,0.06457 z m 2.34959,-0.119631 c 0.13667,-0.136332 0.24809,-0.313639 0.24809,-0.393513 0,-0.206144 -0.37903,-0.59924 -0.57763,-0.59924 -0.19435,0 -0.66329,0.438781 -0.66329,0.620482 0,0.06818 0.11179,0.235972 0.2481,0.372271 0.13667,0.136343 0.30415,0.248098 0.37229,0.248098 0.0682,0 0.23564,-0.111788 0.37227,-0.248098 z m 2.29117,0.0068 c 0.4512,-0.498517 -0.0823,-1.19254 -0.67326,-0.876141 -0.30579,0.163536 -0.32794,0.582517 -0.0476,0.892391 0.26318,0.290706 0.44667,0.286773 0.72079,-0.01634 z m 2.30026,-0.0068 c 0.13667,-0.136332 0.2481,-0.304139 0.2481,-0.372271 0,-0.171739 -0.46431,-0.620482 -0.64175,-0.620482 -0.23039,0 -0.59919,0.389389 -0.59919,0.632697 0,0.206155 0.42848,0.608255 0.64807,0.608255 0.0531,0 0.2081,-0.111788 0.34467,-0.248098 z M -8.4100724,55.72744 c -0.19862,-0.219249 -0.19762,-0.244818 0.0163,-0.43913 0.16321,-0.147488 0.45654,-0.206154 1.03208,-0.206154 0.94136,0 1.37135,0.217953 1.14875,0.582167 -0.20942,0.342712 -1.90108,0.391417 -2.19804,0.06322 z m 36.7955694,0.07438 c -0.42933,-0.429337 0.0263,-0.719717 1.1267,-0.719717 0.61451,0 0.84248,0.05184 1.00189,0.228107 0.19271,0.213029 0.19139,0.241551 -0.023,0.434318 -0.27693,0.250724 -1.87033,0.293985 -2.10702,0.05736 z M -4.2507224,54.80723 c -0.1914,-0.191392 -0.1914,-0.627581 0,-0.819007 0.0836,-0.08362 0.48462,-0.148796 0.91508,-0.148796 0.95486,0 1.45007,-0.174027 2.78284999,-0.977179 0.58013,-0.349665 1.41775,-0.761434 1.86138001,-0.915075 l 0.8066,-0.279234 h 8.7485194 c 10.07111,0 9.19664,-0.09477 11.78134,1.273947 1.46246,0.774315 1.59644,0.820258 2.54389,0.872569 0.55008,0.02952 1.06994,0.111112 1.15524,0.179594 0.19697,0.157642 0.20058,0.619197 0.007,0.813576 -0.2163,0.216308 -30.3848594,0.216308 -30.6011294,0 z m 9.09595,-4.208403 c 0.13667,-0.07178 0.86244,-0.763857 1.61319,-1.537777 1.15083,-1.186275 1.45263,-1.429955 1.92343,-1.552923 0.81065,-0.211721 0.85278,-0.270703 0.71913,-1.006016 -0.36766,-2.022828 -1.30568,-4.377201 -2.56141,-6.428866 -2.61082,-4.26574 -3.31522,-6.001592 -3.07496,-7.577785 0.17566,-1.152457 1.12729,-2.207966 2.26509,-2.512274 0.29857,-0.07967 0.54257,-0.182546 0.54257,-0.228096 0,-0.04553 0.42494,-0.376643 0.94431,-0.735673 0.70651,-0.488432 1.00268,-0.781335 1.17615,-1.163342 0.33124,-0.729476 0.30447,-1.729373 -0.0728,-2.732279 -0.4043,-1.074058 -0.4178,-2.111909 -0.0371,-2.839976 0.15043,-0.287427 0.26186,-0.564328 0.2481,-0.615523 -0.0131,-0.05116 0.0263,-0.09308 0.0901,-0.09308 0.0632,0 0.3225,-0.195325 0.57561,-0.434183 0.64131,-0.60484 1.2415294,-0.746165 2.4734994,-0.582426 0.54597,0.07246 1.29072,0.256617 1.65494,0.409154 0.48423,0.202538 0.68638,0.237934 0.75222,0.131419 0.0567,-0.09173 0.1914,0.04429 0.36451,0.368541 0.25662,0.480893 0.26153,0.533913 0.0757,0.817835 -0.16944,0.258917 -0.17731,0.394077 -0.0518,0.916778 0.0809,0.337247 0.1101,0.81069 0.0649,1.052106 -0.0656,0.348843 -0.0131,0.556102 0.25203,1.0096 0.31954,0.545452 0.32447,0.577963 0.10751,0.736586 -0.12487,0.09139 -0.2645,0.165834 -0.31037,0.165834 -0.0459,0 -0.0836,0.222529 -0.0836,0.494292 0,0.272022 -0.0668,0.574819 -0.14847,0.673277 -0.0816,0.09826 -0.13863,0.253011 -0.12618,0.343332 0.1003,0.74 -0.31004,0.959453 -1.26493,0.676815 -0.62113,-0.183865 -0.67639,-0.182558 -0.82626,0.01634 -0.0881,0.117986 -0.1442,0.433563 -0.12421,0.701258 0.0512,0.683137 0.48119,0.825047 1.35738,0.448111 1.30433,-0.561117 2.59883,-0.549645 3.87433,0.03437 l 0.65501,0.299879 0.47682,-0.244491 c 0.74233,-0.380825 1.79829,-0.265137 2.33572,0.255637 0.24678,0.239251 0.53572,0.395248 0.73174,0.395248 h 0.32381 l -0.0196,-1.954425 c -0.0163,-1.597233 -0.0639,-2.073562 -0.26121,-2.605942 -0.13306,-0.358309 -0.2766,-0.651472 -0.31889,-0.651472 -0.0426,0 -0.2966,0.186806 -0.56492,0.415139 -0.65053,0.55378 -2.03882,0.741217 -2.03882,0.275301 0,-0.08193 -0.137,-0.268416 -0.30414,-0.41373 l -0.30414,-0.264483 0.25727,-0.781696 c 0.14159,-0.429923 0.34616,-0.852408 0.45483,-0.938898 0.14028,-0.11145 0.60422,-0.14617 1.59533,-0.119293 1.51557,0.04091 1.94513,0.205163 2.2098,0.84363 0.14258,0.343727 0.83226,1.700918 1.83547,3.611428 0.67396,1.283425 0.93693,2.027978 1.38564,3.923185 0.16518,0.697889 0.18091,0.944341 0.0685,1.079671 -0.31168,0.375482 -1.62488,0.992842 -3.22719,1.517087 -2.2336,0.73076 -3.5865,0.834953 -4.93825,0.380249 -0.49764,-0.167479 -0.93074,-0.262522 -0.96247,-0.211068 -0.0328,0.0515 -0.17042,0.458603 -0.3084,0.90508 -0.13798,0.446477 -0.53201,1.232331 -0.87585,1.746389 -1.29426,1.935087 -2.34649,6.22163 -2.34649,9.559109 v 0.777335 l 0.54885,0.153709 c 0.59773,0.167468 0.98365,0.491271 2.11912,1.778663 0.40951,0.464304 0.96794,0.980029 1.24095,1.146123 l 0.49639,0.301851 -6.45279,-0.0034 C 6.4558376,50.727771 4.6686176,50.689731 4.8453076,50.59668 Z"
       id="path5" /><path
       style="fill:#093b60;fill-opacity:1;stroke-width:0.178554"
       d="m -4.8549569,117.10125 c -4.440483,-0.32632 -7.6502231,-1.99237 -9.6957471,-5.03269 -0.448855,-0.66714 -1.012252,-1.7342 -1.29528,-2.68754 -0.702064,-2.36481 -1.072827,-4.67292 -0.945229,-7.33988 0.133451,-2.78983 1.026038,-5.67928 2.380402,-7.705717 1.904649,-2.849777 4.7539189,-4.532373 8.5701331,-5.060967 1.063332,-0.147285 3.4236859,-0.146211 4.5609606,0.0021 3.0328106,0.395442 5.3874615,1.42499 7.1875331,3.142679 1.6743092,1.597681 2.7837919,3.614185 3.3712744,6.127365 0.072906,0.31188 0.1480282,0.58124 0.1669329,0.59856 0.05648,0.0518 -0.038006,-5.806673 -0.111768,-6.930805 -0.069768,-1.063052 -0.2081567,-2.281088 -0.2801965,-2.466096 -0.035993,-0.09237 0.078019,-0.108247 1.0750054,-0.149782 0.613377,-0.02556 3.159917,-0.04994 5.658989,-0.0542 4.736378,-0.008 5.471276,0.02042 7.178169,0.278248 4.359789,0.658547 6.788973,2.578557 7.609812,6.014755 l 0.120409,0.50406 -0.03069,-1.984736 c -0.03546,-2.293881 -0.147839,-3.888728 -0.327345,-4.646794 l -0.03357,-0.141766 h 8.670344 8.670342 v 2.873577 c 0,2.711099 -0.0063,2.871149 -0.110264,2.830609 -0.179087,-0.0698 -1.683764,-0.27439 -2.567545,-0.34914 -0.450507,-0.0381 -2.158792,-0.08595 -3.7962,-0.106336 l -2.977093,-0.0371 v 2.758196 2.75819 l 2.693565,-0.0354 c 2.695461,-0.0355 4.012007,-0.11999 5.092096,-0.32667 0.274892,-0.0526 0.535251,-0.0956 0.578566,-0.0956 0.06194,-1e-5 0.07876,0.65946 0.07876,3.08736 0,1.69805 -0.0071,3.08735 -0.01578,3.08735 -0.0087,0 -0.214238,-0.0421 -0.456802,-0.0936 -1.069696,-0.22706 -4.128076,-0.40304 -7.104054,-0.40877 l -0.866356,-0.002 v 2.96135 2.96134 l 2.567553,-4.1e-4 c 3.295878,-8.2e-4 5.398995,-0.12434 6.836296,-0.40164 l 0.425302,-0.0821 v 2.85696 2.85696 h -8.829094 -8.829083 l 0.03768,-0.23628 c 0.236746,-1.48569 0.292601,-3.41809 0.288193,-9.97091 l -0.0041,-6.08022 -0.11738,0.5442 c -0.340773,1.57997 -1.054655,2.94923 -2.04783,3.92783 -1.377993,1.3578 -3.163421,2.12093 -5.858844,2.50417 -0.388177,0.0552 -1.399808,0.0806 -3.206823,0.0806 h -2.639765 l 0.04301,2.67781 c 0.02366,1.4728 0.07176,3.18817 0.106936,3.81193 0.06169,1.09398 0.206685,2.43773 0.285094,2.64204 0.03418,0.0891 -0.367258,0.0988 -4.090737,0.0988 H 9.032171 l 0.05346,-0.20478 c 0.208095,-0.7972 0.3124178,-2.76467 0.3466237,-6.537 l 0.029994,-3.30788 -0.1875961,0.72458 c -0.2481889,0.95856 -0.5903299,1.98007 -0.896794,2.6775 -1.5588598,3.54746 -4.505677,5.94777 -8.30537737,6.76506 -1.39235403,0.29949 -3.42806213,0.43276 -4.92738513,0.32257 z m 2.6432906,-5.2959 c 1.96635543,-0.44915 3.2448296,-1.97896 3.807203,-4.55567 0.2529469,-1.15895 0.3165555,-1.81795 0.3511106,-3.63774 0.059295,-3.1222 -0.2232977,-5.06762 -0.95545147,-6.57754 -0.8004793,-1.65084 -1.97528798,-2.475423 -3.81528923,-2.677891 -1.1955705,-0.131558 -2.4654325,0.101891 -3.3332675,0.612781 -1.490115,0.87722 -2.348689,2.52086 -2.757282,5.27848 -0.14279,0.9637 -0.16358,4.71681 -0.03192,5.76518 0.479096,3.81525 1.963911,5.68354 4.705485,5.92074 0.684446,0.0592 1.4087974,0.0134 2.0294174,-0.12834 z m 23.0570253,-9.5613 c 1.747499,-0.37938 2.610358,-1.39653 2.788217,-3.2868 0.100632,-1.06952 -0.0491,-2.07346 -0.417806,-2.80157 -0.223889,-0.44212 -0.789672,-0.98237 -1.277294,-1.21965 -0.834599,-0.406119 -1.573644,-0.513549 -3.544165,-0.515193 l -1.496426,-0.0012 v 3.964843 c 0,3.72154 0.0068,3.96686 0.110259,3.99764 0.06064,0.0181 0.819097,0.0225 1.685449,0.01 1.273341,-0.0185 1.685674,-0.0468 2.151766,-0.14799 z m 27.583751,14.21238 c 0.112277,-0.53107 0.224575,-1.80851 0.289811,-3.29672 0.09612,-2.19282 0.04726,-20.374865 -0.05781,-21.512445 -0.0686,-0.74269 -0.152906,-1.410584 -0.236606,-1.87447 l -0.03698,-0.204773 4.905839,0.0021 4.905831,0.0021 2.391696,5.18021 c 1.315436,2.849118 3.007565,6.512818 3.760292,8.141558 0.752723,1.62874 1.484421,3.2989 1.625985,3.71148 0.21545,0.62789 0.677791,2.36605 0.780902,2.93579 0.0157,0.0866 0.02148,-3.76942 0.0129,-8.569 -0.01085,-6.0686 -0.03792,-8.947211 -0.08888,-9.451102 -0.07784,-0.769708 -0.185069,-1.577209 -0.240538,-1.811462 l -0.03357,-0.141767 h 3.493059 3.493068 l -0.07732,0.375226 c -0.290969,1.411935 -0.339631,3.66216 -0.341076,15.770825 l -0.0016,10.94793 -4.707884,-0.0162 -4.707879,-0.0162 -3.73341,-8.03343 c -2.053372,-4.4184 -3.845871,-8.31756 -3.983331,-8.6648 -0.303235,-0.76601 -0.583468,-1.7261 -0.762538,-2.61247 -0.07339,-0.36328 -0.145732,-0.6728 -0.160758,-0.68783 -0.05448,-0.0545 -0.02297,14.06003 0.03529,15.80468 0.06399,1.91654 0.152256,3.11534 0.279798,3.80006 l 0.07922,0.4253 H 51.849009 48.38545 Z"
       id="path3" /><g
       id="g4"
       transform="matrix(0.66459006,0,0,0.66459006,-113.15672,12.050256)"
       style="fill:#093b60;fill-opacity:1"><path
         style="fill:#093b60;fill-opacity:1"
         d="m 119.30537,155.19338 v -17.78456 -17.78456 c 0,0 -0.0946,-1.05041 -0.16859,-1.57228 -0.0532,-0.37481 -0.1977,-1.11835 -0.1977,-1.11835 0,0 2.92996,-0.0246 10.68536,0.01 10.9422,0.0487 11.42276,-0.0626 13.92706,0.94301 2.19636,0.88192 4.25645,3.32268 5.50776,5.63088 0.89003,1.64176 1.23716,3.60103 1.21823,5.46843 -0.0199,1.96558 -0.44539,4.00971 -1.39866,5.72878 -1.01201,1.825 -2.64177,3.31443 -4.3723,4.48063 -0.80891,0.54513 -2.70842,1.10811 -2.70842,1.10811 0,0 8.62773,14.13131 10.35442,15.92234 0.75534,0.78348 1.37335,1.53756 1.37335,1.67574 0,0.13818 -2.77455,0.25124 -6.16567,0.25124 -6.0139,0 -6.30542,-0.0367 -6.30542,-0.0367 0,0 -2.64623,-4.84378 -4.8556,-8.86848 l -4.01703,-7.31764 -1.49935,-0.003 -1.49935,-0.003 v 6.47808 6.47808 l 0.0907,1.41414 c 0.0599,0.93369 0.52305,1.82136 0.52305,1.82136 0,0 -1.5927,0.0366 -5.37636,0.0366 -3.78366,0 -5.46298,-0.002 -5.46298,-0.002 0.003,-0.32152 0.39604,-1.28221 0.34754,-2.95686 z m 17.96217,-20.83831 c 2.04924,-1.0597 2.85434,-5.20099 1.45673,-7.49313 -1.19956,-1.96733 -2.16878,-2.35388 -5.96379,-2.37846 l -3.40063,-0.022 -0.0976,5.20363 -0.0976,5.20363 h 3.55484 c 2.42205,0 3.87136,-0.16367 4.54811,-0.51364 z"
         id="path2" /><path
         style="fill:#093b60;fill-opacity:1"
         d="m 91.369324,157.8813 c 0,0 0.203526,-1.6033 0.257624,-2.4091 0.06725,-1.00165 0.06911,-2.00675 0.08293,-3.01056 0.06996,-5.08067 0,-15.24346 0,-15.24346 0,0 -0.100908,-10.35449 -0.174706,-15.53144 -0.01556,-1.0917 0.01583,-2.18552 -0.05653,-3.27493 -0.03814,-0.57424 -0.198785,-1.71503 -0.198785,-1.71503 0,0 3.274378,-0.042 9.337933,0.0265 9.64886,0.10899 11.25561,0.20651 12.87536,0.78139 3.75577,1.333 6.04171,4.26551 6.35357,8.15066 0.33456,4.16787 -1.06483,5.96666 -3.03159,8.05545 -0.99232,1.05389 -3.23235,2.32586 -3.23235,2.32586 0,0 2.69733,0.93296 3.82871,1.76705 2.6979,1.98897 4.27598,3.49365 4.28199,8.14605 0.005,3.56638 -0.72177,5.84821 -2.50741,7.8768 -3.16098,3.59106 -5.4534,4.08186 -19.09747,4.08864 -5.772495,0.003 -8.020455,-0.0339 -8.020455,-0.0339 z m 17.385946,-7.51105 c 1.71656,-0.69313 2.47069,-2.86065 2.50355,-5.13425 0.0538,-3.72331 -2.12648,-5.40508 -6.61829,-5.6882 -1.01583,-0.064 -3.05257,-0.077 -3.05257,-0.077 v 5.69691 5.69691 c 0,0 1.70773,0.10223 2.56049,0.0612 1.54495,-0.0743 3.47009,-0.0966 4.60682,-0.55561 z m -0.99766,-17.63907 c 2.19033,-1.43515 2.94189,-4.61828 1.60723,-6.80718 -1.01428,-1.66347 -2.36576,-1.99954 -5.02217,-2.32996 -0.88422,-0.10999 -2.69295,-0.14452 -2.69295,-0.14452 l -0.0618,5.01798 v 5.20328 c 0,0 1.77151,-0.0165 2.64551,-0.0861 1.58873,-0.12654 2.95199,-0.47861 3.52414,-0.8535 z"
         id="path2-1" /></g><path
       style="fill:#d02030;fill-opacity:1;stroke-width:0.175252"
       d="m -38.268887,82.496673 c -3.457884,-0.198234 -6.119833,-1.1831 -7.84415,-2.902175 -1.136161,-1.132706 -1.847348,-2.522171 -2.238388,-4.373196 l -0.141122,-0.668004 -0.0062,-6.092734 c -0.0057,-5.636364 -0.04893,-7.893024 -0.213555,-11.164868 -0.03254,-0.646386 -0.0594,-1.265713 -0.05973,-1.376276 l -8.21e-4,-0.201033 h 4.027854 4.027855 l -0.03879,0.448453 c -0.267923,3.097607 -0.446751,12.706499 -0.280792,15.087746 0.271087,3.889662 1.37536,5.49851 3.985431,5.806499 1.710261,0.201812 3.215949,-0.201739 4.040177,-1.082842 0.915908,-0.979113 1.346331,-2.470901 1.503165,-5.209807 0.07941,-1.386878 0.03336,-9.579589 -0.0667,-11.864505 -0.03279,-0.748449 -0.07847,-1.771376 -0.101526,-2.273177 l -0.04193,-0.912367 h 3.410682 c 2.687325,0 3.41067,0.0164 3.41064,0.07732 -1.6e-5,0.04252 -0.0272,0.578349 -0.06042,1.190713 -0.107836,1.988273 -0.193007,4.066092 -0.167709,4.091386 0.0136,0.0136 0.114249,-0.225636 0.223697,-0.531607 0.833674,-2.330585 3.055519,-4.08002 6.16235,-4.852095 2.321152,-0.576828 5.619716,-0.576241 8.439946,0.0016 1.1981261,0.245445 3.1953141,0.89423 3.5456021,1.151791 0.09586,0.07047 0.03032,0.273014 -0.755524,2.334883 -0.473266,1.241745 -0.878255,2.301631 -0.899978,2.355304 -0.03328,0.08222 -0.134116,0.05145 -0.640059,-0.195304 -1.6143331,-0.787302 -3.4026001,-1.150328 -5.3807971,-1.092324 -1.097682,0.03217 -1.485481,0.10466 -2.089777,0.390535 -0.879396,0.416021 -1.337234,1.320516 -1.112485,2.197796 0.273725,1.068461 1.360847,1.762947 4.827881,3.084194 2.24587,0.855874 3.5822911,1.60277 4.5989601,2.570265 1.421091,1.35235 1.996411,2.854443 2.00144,5.225508 0.0033,1.54544 -0.229835,2.602572 -0.852488,3.865951 -1.110843,2.253919 -3.3214671,3.911275 -6.1049391,4.577002 -1.01832,0.243553 -1.971315,0.340484 -3.347517,0.340484 -2.548977,0 -4.925191,-0.370237 -6.942615,-1.081727 -0.801088,-0.282518 -2.125938,-0.883987 -2.125938,-0.965148 0,-0.07174 1.712192,-5.005481 1.750322,-5.043611 0.01799,-0.01799 0.09779,0.0095 0.177287,0.06117 0.274925,0.178635 1.530719,0.717715 2.258879,0.96968 2.005582,0.693991 4.213536,0.979299 5.488436,0.709215 1.28121,-0.271425 2.001477,-1.015807 2.063742,-2.132833 0.04878,-0.875128 -0.367155,-1.52746 -1.399898,-2.195541 -0.614374,-0.397437 -2.21634,-1.162145 -3.565621,-1.702077 -2.292048,-0.917185 -3.696783,-1.704414 -4.627523,-2.59331 -0.834624,-0.797098 -1.30425,-1.582955 -1.619338,-2.709756 l -0.151767,-0.542733 0.01376,4.4845 c 0.01352,4.397763 0.01114,4.498392 -0.122879,5.20268 -0.572883,3.010845 -2.099637,5.047165 -4.72072,6.296282 -1.520639,0.724688 -3.19418,1.104137 -5.472448,1.240792 -1.158069,0.06946 -1.512911,0.06914 -2.764176,-0.0025 z"
       id="path1" /><path
       style="fill:#093b60;fill-opacity:1;stroke-width:0.20283"
       d="M 2.0616067,68.638352 C 0.93901613,68.041815 0.36470563,66.439186 0.77655643,65.052354 1.1750572,63.710448 2.4255403,62.425067 3.3325033,62.425067 c 0.3684342,0 0.8454189,0.557621 0.8454189,0.988349 0,0.211386 -0.1739344,0.558282 -0.3865081,0.770855 -0.3791678,0.379168 -0.6562145,0.407636 -1.3054905,0.134099 -0.174247,-0.0734 -0.3817932,0.01581 -0.6417394,0.275707 -0.3200615,0.320071 -0.3842131,0.525277 -0.3842131,1.229061 0,1.443518 0.5878302,2.129603 1.9642858,2.292616 0.614441,0.07278 0.8877818,0.01697 1.5822158,-0.322731 1.8549405,-0.907535 3.424351,-3.717695 5.7340673,-10.267321 0.368408,-1.044669 0.709436,-1.963491 0.757863,-2.04185 0.232326,-0.375908 0.58908,0.203787 1.376312,2.23635 2.355482,6.081598 3.432326,8.730486 3.646739,8.970536 0.129812,0.145333 0.395366,0.264233 0.590116,0.264233 0.247632,0 0.354102,0.08653 0.354102,0.287851 0,0.269885 -0.136563,0.287834 -2.189468,0.287834 -2.052896,0 -2.189451,-0.01795 -2.189451,-0.287834 0,-0.228781 0.109408,-0.287851 0.533225,-0.287851 0.333286,0 0.565631,-0.08439 0.619638,-0.225147 0.04751,-0.123838 -0.141475,-0.871155 -0.419986,-1.6607 l -0.506382,-1.435517 -2.076211,-1.97e-4 c -1.3687853,-1.96e-4 -2.0762119,0.05456 -2.0762119,0.160603 0,0.4434 -1.0944172,2.425054 -1.7225296,3.118979 -0.9930908,1.097132 -2.803177,2.005032 -3.997447,2.005032 -0.5402255,0 -1.0460713,-0.10255 -1.3792418,-0.279592 z m 9.9180403,-8.188608 c -0.417789,-1.075932 -0.804458,-1.904019 -0.85926,-1.840171 -0.103523,0.120597 -1.355328,3.623307 -1.3558995,3.794018 -1.786e-4,0.0534 0.6690645,0.07572 1.4872295,0.04974 l 1.487551,-0.04724 z m 53.468829,7.37097 c -0.58082,-0.351637 -1.857807,-1.921548 -4.916028,-6.043709 l -1.769063,-2.384548 -0.04081,3.182291 c -0.04885,3.817432 0.0018,4.101738 0.766694,4.293622 0.306649,0.07689 0.557549,0.229817 0.557549,0.339733 0,0.153718 -0.383579,0.199867 -1.660967,0.199867 -1.277389,0 -1.660968,-0.04617 -1.660968,-0.199867 0,-0.109916 0.254803,-0.262803 0.566238,-0.339733 l 0.566247,-0.139886 0.121642,-1.509973 c 0.157941,-1.960464 0.0099,-6.847292 -0.215557,-7.119052 -0.09326,-0.112372 -0.365094,-0.204304 -0.604064,-0.204304 -0.285566,0 -0.434506,-0.0776 -0.434506,-0.226496 0,-0.183212 0.240515,-0.226495 1.258654,-0.226495 h 1.258645 l 2.735766,3.661678 c 1.504669,2.013927 2.891796,3.852436 3.082519,4.085584 l 0.346752,0.423906 -0.0501,-3.669777 c -0.03072,-2.24411 -0.111158,-3.743323 -0.207234,-3.859089 -0.08644,-0.104121 -0.352646,-0.189311 -0.591625,-0.189311 -0.285557,0 -0.434497,-0.0776 -0.434497,-0.226496 0,-0.186945 0.276824,-0.226495 1.585467,-0.226495 1.308642,0 1.585466,0.03947 1.585466,0.226495 0,0.137823 -0.140546,0.226496 -0.358996,0.226496 -0.73535,0 -0.769747,0.196419 -0.825451,4.714098 -0.04795,3.883047 -0.03072,4.23856 0.218619,4.514017 0.166174,0.183624 0.419298,0.281673 0.655955,0.254098 0.303426,-0.03545 0.396242,-0.141225 0.436488,-0.497881 0.06599,-0.585615 0.277502,-0.830488 0.717045,-0.830488 0.976168,0 0.65758,1.322904 -0.438426,1.820507 -0.839954,0.381356 -1.566973,0.365595 -2.251468,-0.04876 z m -47.06876,-5.12169 c -2.007693,-4.648116 -2.036786,-4.703329 -2.603167,-4.940995 -0.315016,-0.132197 -0.573453,-0.291317 -0.574302,-0.353611 -7.23e-4,-0.06224 0.915768,-0.113239 2.036921,-0.113239 1.258314,0 2.038465,0.05778 2.038465,0.150985 0,0.08305 -0.120784,0.150994 -0.268402,0.150994 -0.14761,0 -0.424853,0.109595 -0.616084,0.243542 -0.271341,0.190053 -0.32617,0.330956 -0.249722,0.641731 0.103139,0.419307 2.631448,6.363234 2.782728,6.542062 0.134866,0.15945 2.75284,-6.363252 2.700699,-6.728784 -0.02697,-0.189026 -0.246266,-0.414182 -0.533279,-0.547548 -0.268099,-0.124571 -0.488941,-0.277449 -0.490745,-0.339743 -0.0018,-0.06224 0.676226,-0.113239 1.506714,-0.113239 0.905981,0 1.509965,0.06037 1.509965,0.150985 0,0.08305 -0.06278,0.150994 -0.139403,0.150994 -0.07671,0 -0.336822,0.166112 -0.578087,0.369122 -0.341127,0.287039 -0.851751,1.378179 -2.296519,4.90741 -1.021809,2.496055 -1.933791,4.536414 -2.026616,4.534128 -0.09282,-0.0027 -1.082451,-2.11945 -2.199166,-4.704794 z m 30.192172,4.464261 c -0.98417,-0.354727 -1.927057,-1.052697 -2.470489,-1.828803 l -0.47477,-0.678048 -0.601627,1.300267 -0.601617,1.300284 h -4.268029 c -2.744696,0 -4.268037,-0.05394 -4.268037,-0.150994 0,-0.08305 0.193303,-0.151011 0.429585,-0.151011 0.244739,0 0.553361,-0.136626 0.717232,-0.317517 0.263187,-0.290531 0.291611,-0.627719 0.334188,-3.963683 0.02554,-2.005372 0.0063,-3.864787 -0.04367,-4.132028 -0.117739,-0.634114 -0.44765,-0.948594 -0.995126,-0.948594 -0.243221,0 -0.442204,-0.06796 -0.442204,-0.150994 0,-0.09395 0.855653,-0.150985 2.264952,-0.150985 1.4093,0 2.264961,0.05697 2.264961,0.150985 0,0.08305 -0.237827,0.150994 -0.528501,0.150994 -0.32716,0 -0.643525,0.115051 -0.83047,0.302005 -0.286789,0.286781 -0.301881,0.501667 -0.299684,4.265672 7.68e-4,2.193299 0.06537,4.063349 0.14343,4.186848 0.188874,0.298683 2.099805,0.393446 3.224744,0.159905 0.789554,-0.163915 0.931716,-0.265098 2.046806,-1.456931 1.196886,-1.279272 1.198128,-1.281469 1.04391,-1.839938 -0.416423,-1.507929 0.396286,-3.823638 1.704983,-4.8581 1.153514,-0.911803 2.221008,-1.248501 3.762584,-1.186778 1.543631,0.06188 2.448834,0.44648 3.47776,1.477844 1.070423,1.072986 1.412256,1.927692 1.421721,3.554896 0.0071,1.158765 -0.04983,1.481309 -0.383802,2.189459 -0.500274,1.060565 -1.495115,2.054486 -2.552714,2.550339 -1.057502,0.495809 -3.02352,0.604288 -4.07611,0.224906 z m 3.476072,-0.681656 c 1.307545,-0.734877 1.912038,-2.357437 1.759901,-4.72384 -0.160441,-2.495475 -1.207263,-3.890406 -3.086564,-4.112972 -0.925224,-0.109587 -1.701625,0.130848 -2.398568,0.74278 -1.327886,1.165891 -1.761338,3.702817 -1.041267,6.094402 0.289138,0.960346 1.163391,1.962375 1.96909,2.256942 0.79902,0.29212 2.019597,0.179846 2.797408,-0.257312 z m -28.240414,0.657456 c 0,-0.06483 0.200483,-0.193562 0.445516,-0.286057 0.245042,-0.09249 0.577918,-0.385874 0.739744,-0.651982 0.161825,-0.266089 1.133458,-2.412534 2.159187,-4.769873 1.025729,-2.35734 1.937764,-4.287174 2.02675,-4.288523 0.08903,-0.0018 1.031149,2.036564 2.093687,4.528725 1.485096,3.483234 2.035305,4.618201 2.378994,4.90741 0.2459,0.206913 0.543807,0.376195 0.66201,0.376195 0.118195,0 0.214913,0.06795 0.214913,0.151011 0,0.09291 -0.754986,0.150994 -1.962973,0.150994 -1.207977,0 -1.962964,-0.05813 -1.962964,-0.150994 0,-0.08305 0.125374,-0.151011 0.278601,-0.151011 0.268831,0 0.778392,-0.434747 0.778392,-0.664118 0,-0.06153 -0.21019,-0.616745 -0.467091,-1.233838 L 30.72523,63.93505 h -2.003032 -2.003032 l -0.489763,1.239374 -0.489754,1.239401 0.334152,0.270582 c 0.183784,0.148815 0.462519,0.270573 0.619415,0.270573 0.156906,0 0.285271,0.06795 0.285271,0.151011 0,0.09107 -0.629157,0.150994 -1.585475,0.150994 -0.872003,0 -1.585466,-0.05313 -1.585466,-0.1179 z m 6.599105,-3.996777 c -0.514034,-1.258868 -1.518189,-3.532964 -1.593967,-3.609841 -0.05376,-0.05456 -0.481262,0.777829 -0.950014,1.849708 l -0.852294,1.948882 h 1.736674 c 1.32978,0 1.718618,-0.0442 1.659601,-0.188749 z"
       id="path6" /><text
       xml:space="preserve"
       style="font-style:normal;font-variant:normal;font-weight:normal;font-stretch:normal;font-size:14.1512px;line-height:58.9751px;font-family:'Book Antiqua';-inkscape-font-specification:'Book Antiqua';letter-spacing:1.47409px;word-spacing:0px;writing-mode:lr-tb;direction:ltr;fill:#093b60;fill-opacity:1;stroke:none;stroke-width:6.12851;stroke-linecap:round;stroke-linejoin:round;stroke-opacity:1"
       x="22.11199"
       y="80.029709"
       id="text6"><tspan
         id="tspan6"
         style="font-style:normal;font-variant:normal;font-weight:normal;font-stretch:normal;font-family:'Book Antiqua';-inkscape-font-specification:'Book Antiqua';stroke-width:6.12851"
         x="22.11199"
         y="80.029709">2026</tspan></text></g></svg>
