<?xml version="1.0" encoding="UTF-8" standalone="no"?>
<!-- Created with Inkscape (http://www.inkscape.org/) -->

<svg
   width="138.82501mm"
   height="138.82501mm"
   viewBox="0 0 138.82502 138.82501"
   version="1.1"
   id="svg1"
   inkscape:export-filename="USBROPEN_LOGIN2.svg"
   inkscape:export-xdpi="96"
   inkscape:export-ydpi="96"
   xml:space="preserve"
   sodipodi:docname="Icon_USBROPEN.svg"
   inkscape:version="1.4.3 (0d15f75, 2025-12-25)"
   xmlns:inkscape="http://www.inkscape.org/namespaces/inkscape"
   xmlns:sodipodi="http://sodipodi.sourceforge.net/DTD/sodipodi-0.dtd"
   xmlns="http://www.w3.org/2000/svg"
   xmlns:svg="http://www.w3.org/2000/svg"><sodipodi:namedview
     id="namedview1"
     pagecolor="#ffffff"
     bordercolor="#000000"
     borderopacity="0.25"
     inkscape:showpageshadow="2"
     inkscape:pageopacity="0.0"
     inkscape:pagecheckerboard="0"
     inkscape:deskcolor="#d1d1d1"
     inkscape:document-units="mm"
     showguides="true"
     inkscape:zoom="1.1854553"
     inkscape:cx="493.48127"
     inkscape:cy="300.72833"
     inkscape:window-width="1920"
     inkscape:window-height="1094"
     inkscape:window-x="-11"
     inkscape:window-y="-11"
     inkscape:window-maximized="1"
     inkscape:current-layer="layer1"><sodipodi:guide
       position="180.37624,186.93774"
       orientation="0,-1"
       id="guide5"
       inkscape:locked="false" /><inkscape:page
       x="5.1554521e-06"
       y="1.6052819e-07"
       width="138.82503"
       height="138.82501"
       id="page2"
       margin="0"
       bleed="0" /></sodipodi:namedview><defs
     id="defs1" /><g
     inkscape:label="Layer 1"
     inkscape:groupmode="layer"
     id="layer1"
     transform="translate(58.817041,-10.898249)"><rect
       style="fill:#ffffff;stroke-width:3.28401"
       id="rect1"
       width="138.82501"
       height="138.82501"
       x="-58.817043"
       y="10.898249" /><path
       style="fill:#093b60;fill-opacity:1;stroke-width:0.120266"
       d="M -0.08176973,89.220544 C -3.0726862,89.000749 -5.234628,87.87857 -6.6124041,85.830743 c -0.3023293,-0.449357 -0.681809,-1.168082 -0.8724444,-1.810211 -0.4728798,-1.592833 -0.7226097,-3.147475 -0.6366652,-4.943824 0.089887,-1.879108 0.6910946,-3.825316 1.6033354,-5.190236 1.2828889,-1.919486 3.2020334,-3.05281 5.77246972,-3.408848 0.71621425,-0.0992 2.30604608,-0.09848 3.07206498,0.0014 2.0427695,0.266352 3.62876,0.959811 4.8412101,2.116772 1.1277419,1.076128 1.8750413,2.434358 2.270744,4.127127 0.049106,0.210069 0.099705,0.391498 0.1124387,0.403164 0.038042,0.03489 -0.025599,-3.911123 -0.075282,-4.668289 -0.046993,-0.716026 -0.1402054,-1.536442 -0.1887282,-1.661056 -0.024243,-0.06222 0.05255,-0.07291 0.724077,-0.100886 0.413143,-0.01722 2.128382,-0.03364 3.811649,-0.03651 3.190218,-0.0054 3.685213,0.01375 4.834902,0.187416 2.936565,0.443568 4.572758,1.736804 5.125639,4.051277 l 0.0811,0.339513 -0.02067,-1.336832 c -0.02388,-1.545058 -0.09958,-2.619278 -0.220485,-3.129878 l -0.02261,-0.09549 h 5.839968 5.839965 v 1.935517 c 0,1.826079 -0.0042,1.933881 -0.07427,1.906575 -0.120625,-0.04701 -1.13411,-0.184817 -1.729387,-0.235165 -0.303441,-0.02566 -1.454068,-0.05789 -2.556955,-0.07162 l -2.005241,-0.02499 v 1.857801 1.857797 l 1.814269,-0.02384 c 1.815545,-0.02391 2.702314,-0.08082 3.429815,-0.220031 0.185155,-0.03543 0.360521,-0.06439 0.389697,-0.06439 0.04172,-7e-6 0.05305,0.444184 0.05305,2.079512 0,1.143732 -0.0048,2.079504 -0.01063,2.079504 -0.0059,0 -0.144301,-0.02836 -0.307682,-0.06305 -0.720501,-0.152937 -2.780493,-0.27147 -4.784982,-0.275329 l -0.58354,-0.0013 v 1.994636 1.99463 l 1.729392,-2.76e-4 c 2.219961,-5.52e-4 3.636529,-0.08375 4.604632,-0.270527 l 0.286465,-0.0553 v 1.924324 1.924324 h -5.946894 -5.946887 l 0.02538,-0.159148 c 0.159462,-1.000696 0.197083,-2.302277 0.194114,-6.715972 l -0.0028,-4.095372 -0.07906,0.36655 c -0.22953,1.064199 -0.71037,1.986473 -1.37933,2.645616 -0.928156,0.914555 -2.130743,1.428566 -3.946263,1.6867 -0.261459,0.03718 -0.94285,0.05429 -2.159976,0.05429 H 14.51516 l 0.02897,1.803657 c 0.01594,0.992014 0.04833,2.147413 0.07203,2.56755 0.04155,0.736858 0.139214,1.641949 0.192027,1.779564 0.02302,0.06001 -0.247369,0.06655 -2.755343,0.06655 H 9.2719964 l 0.036008,-0.137931 C 9.4481681,88.249249 9.5184354,86.924047 9.541475,84.383169 L 9.561678,82.155125 9.4353214,82.64317 c -0.1671693,0.645645 -0.3976206,1.333689 -0.6040415,1.803448 -1.0499802,2.389415 -3.0348283,4.006159 -5.5941415,4.556651 -0.9378291,0.201723 -2.30899368,0.291488 -3.31887253,0.217269 z M 1.698636,85.653456 C 3.0230876,85.350928 3.8842123,84.320514 4.2630026,82.584954 4.4333766,81.804336 4.4762206,81.360462 4.4994954,80.134731 4.539434,78.031752 4.3490918,76.721402 3.8559448,75.704386 3.3167767,74.592451 2.5254766,74.037048 1.2861317,73.900674 c -0.80528434,-0.08861 -1.66060823,0.06863 -2.24514418,0.412743 -1.00367682,0.590857 -1.58197492,1.697942 -1.85718542,3.555355 -0.096177,0.649106 -0.1101804,3.177038 -0.0215,3.883175 0.3226982,2.569787 1.3228051,3.828186 3.1694103,3.987953 0.4610131,0.03987 0.9489047,0.009 1.3669274,-0.08644 z m 15.53021,-6.440077 c 1.17704,-0.255533 1.758224,-0.940641 1.878022,-2.213845 0.06778,-0.720382 -0.03307,-1.396593 -0.281416,-1.887016 -0.150802,-0.297793 -0.531889,-0.661682 -0.86033,-0.821503 -0.562149,-0.273544 -1.059938,-0.345905 -2.387195,-0.347012 l -1.007928,-8.08e-4 v 2.670546 c 0,2.506667 0.0046,2.671904 0.07427,2.692636 0.04084,0.01219 0.551708,0.01516 1.135245,0.0067 0.857667,-0.01246 1.135397,-0.03152 1.449336,-0.09968 z m 18.579217,9.572842 c 0.07563,-0.357705 0.151264,-1.218133 0.195204,-2.220527 0.06474,-1.476988 0.03183,-13.723624 -0.03894,-14.489849 -0.04621,-0.500243 -0.102991,-0.950108 -0.159368,-1.262561 l -0.02491,-0.137926 3.30436,0.0014 3.304355,0.0014 1.610942,3.489164 c 0.886021,1.919042 2.025765,4.386751 2.53277,5.4838 0.507001,1.097048 0.999841,2.221996 1.095192,2.499892 0.145118,0.422919 0.456531,1.593668 0.525982,1.97742 0.01057,0.05833 0.01447,-2.538917 0.0087,-5.771706 -0.0073,-4.087545 -0.02554,-6.026453 -0.05987,-6.365852 -0.05243,-0.518442 -0.124654,-1.062339 -0.162016,-1.220122 l -0.02261,-0.09549 h 2.352773 2.352779 L 52.571326,70.928 c -0.195984,0.951018 -0.22876,2.466672 -0.229734,10.622543 l -0.0011,7.37405 -3.171026,-0.01091 -3.171023,-0.01091 -2.514663,-5.41097 c -1.383062,-2.976042 -2.590412,-5.602347 -2.682999,-5.836233 -0.204246,-0.515951 -0.392999,-1.162626 -0.513612,-1.759646 -0.04943,-0.24469 -0.09816,-0.453169 -0.10828,-0.463293 -0.0367,-0.03671 -0.01547,9.470226 0.02377,10.645346 0.0431,1.290898 0.102553,2.098358 0.18846,2.559556 l 0.05336,0.286463 H 38.11154 35.778637 Z"
       id="path3"
       sodipodi:nodetypes="csassscsssccsssscsscccssssccccssssccccccsccccccccssssccssscsscsssccssssssscssscsssccscccccssccccssssssscccsccccsssssscccc" /><g
       id="g4"
       transform="matrix(0.447639,0,0,0.447639,-73.029132,18.462757)"
       style="fill:#093b60;fill-opacity:1"><path
         style="fill:#093b60;fill-opacity:1"
         d="m 119.30537,155.19338 v -17.78456 -17.78456 c 0,0 -0.0946,-1.05041 -0.16859,-1.57228 -0.0532,-0.37481 -0.1977,-1.11835 -0.1977,-1.11835 0,0 2.92996,-0.0246 10.68536,0.01 10.9422,0.0487 11.42276,-0.0626 13.92706,0.94301 2.19636,0.88192 4.25645,3.32268 5.50776,5.63088 0.89003,1.64176 1.23716,3.60103 1.21823,5.46843 -0.0199,1.96558 -0.44539,4.00971 -1.39866,5.72878 -1.01201,1.825 -2.64177,3.31443 -4.3723,4.48063 -0.80891,0.54513 -2.70842,1.10811 -2.70842,1.10811 0,0 8.62773,14.13131 10.35442,15.92234 0.75534,0.78348 1.37335,1.53756 1.37335,1.67574 0,0.13818 -2.77455,0.25124 -6.16567,0.25124 -6.0139,0 -6.30542,-0.0367 -6.30542,-0.0367 0,0 -2.64623,-4.84378 -4.8556,-8.86848 l -4.01703,-7.31764 -1.49935,-0.003 -1.49935,-0.003 v 6.47808 6.47808 l 0.0907,1.41414 c 0.0599,0.93369 0.52305,1.82136 0.52305,1.82136 0,0 -1.5927,0.0366 -5.37636,0.0366 -3.78366,0 -5.46298,-0.002 -5.46298,-0.002 0.003,-0.32152 0.39604,-1.28221 0.34754,-2.95686 z m 17.96217,-20.83831 c 2.04924,-1.0597 2.85434,-5.20099 1.45673,-7.49313 -1.19956,-1.96733 -2.16878,-2.35388 -5.96379,-2.37846 l -3.40063,-0.022 -0.0976,5.20363 -0.0976,5.20363 h 3.55484 c 2.42205,0 3.87136,-0.16367 4.54811,-0.51364 z"
         id="path2"
         sodipodi:nodetypes="ccssassacssscscccccscsccscccsccsscccs" /><path
         style="fill:#093b60;fill-opacity:1"
         d="m 91.369324,157.8813 c 0,0 0.203526,-1.6033 0.257624,-2.4091 0.06725,-1.00165 0.06911,-2.00675 0.08293,-3.01056 0.06996,-5.08067 0,-15.24346 0,-15.24346 0,0 -0.100908,-10.35449 -0.174706,-15.53144 -0.01556,-1.0917 0.01583,-2.18552 -0.05653,-3.27493 -0.03814,-0.57424 -0.198785,-1.71503 -0.198785,-1.71503 0,0 3.274378,-0.042 9.337933,0.0265 9.64886,0.10899 11.25561,0.20651 12.87536,0.78139 3.75577,1.333 6.04171,4.26551 6.35357,8.15066 0.33456,4.16787 -1.06483,5.96666 -3.03159,8.05545 -0.99232,1.05389 -3.23235,2.32586 -3.23235,2.32586 0,0 2.69733,0.93296 3.82871,1.76705 2.6979,1.98897 4.27598,3.49365 4.28199,8.14605 0.005,3.56638 -0.72177,5.84821 -2.50741,7.8768 -3.16098,3.59106 -5.4534,4.08186 -19.09747,4.08864 -5.772495,0.003 -8.020455,-0.0339 -8.020455,-0.0339 z m 17.385946,-7.51105 c 1.71656,-0.69313 2.47069,-2.86065 2.50355,-5.13425 0.0538,-3.72331 -2.12648,-5.40508 -6.61829,-5.6882 -1.01583,-0.064 -3.05257,-0.077 -3.05257,-0.077 v 5.69691 5.69691 c 0,0 1.70773,0.10223 2.56049,0.0612 1.54495,-0.0743 3.47009,-0.0966 4.60682,-0.55561 z m -0.99766,-17.63907 c 2.19033,-1.43515 2.94189,-4.61828 1.60723,-6.80718 -1.01428,-1.66347 -2.36576,-1.99954 -5.02217,-2.32996 -0.88422,-0.10999 -2.69295,-0.14452 -2.69295,-0.14452 l -0.0618,5.01798 v 5.20328 c 0,0 1.77151,-0.0165 2.64551,-0.0861 1.58873,-0.12654 2.95199,-0.47861 3.52414,-0.8535 z"
         id="path2-1"
         sodipodi:nodetypes="saacaacsssscscsccscssccsasccsccssscc" /></g><path
       style="fill:#d02030;fill-opacity:1;stroke-width:0.118042"
       d="M 4.0254314,62.446495 C 1.6963509,62.312974 -0.09662231,61.649611 -1.2580473,60.491716 -2.023316,59.728775 -2.5023407,58.792891 -2.7657283,57.546121 l -0.095054,-0.449938 -0.00418,-4.103801 c -0.00384,-3.79641 -0.032957,-5.316398 -0.1438413,-7.52017 -0.021918,-0.435378 -0.040009,-0.852529 -0.040232,-0.927 l -5.53e-4,-0.135407 h 2.71298753 2.71298817 l -0.026127,0.302058 c -0.1804613,2.086414 -0.3009121,8.558546 -0.1891293,10.162451 0.1825924,2.619907 0.9263828,3.703557 2.6844132,3.911005 1.1519575,0.135932 2.1661236,-0.135882 2.7212878,-0.729355 0.6169158,-0.659488 0.90683,-1.664292 1.0124666,-3.5091 0.053487,-0.93414 0.02247,-6.452395 -0.044926,-7.991415 -0.022086,-0.504123 -0.052854,-1.193122 -0.068383,-1.531113 l -0.028242,-0.614531 h 2.2972856 c 1.810066,0 2.297279,0.01105 2.297259,0.05208 -1.1e-5,0.02864 -0.01832,0.389551 -0.0407,0.802013 -0.07263,1.339214 -0.130001,2.738743 -0.112962,2.75578 0.0092,0.0092 0.07695,-0.151979 0.150673,-0.358068 0.561527,-1.56978 2.058065,-2.748124 4.150691,-3.26816 1.563428,-0.388526 3.785197,-0.388131 5.684781,0.0011 0.807006,0.165321 2.152225,0.602314 2.388164,0.775796 0.06457,0.04747 0.02042,0.18389 -0.508888,1.572676 -0.318772,0.836385 -0.591555,1.550279 -0.606186,1.58643 -0.02242,0.05538 -0.09033,0.03466 -0.431116,-0.131548 -1.087345,-0.530292 -2.291844,-0.774811 -3.624271,-0.735742 -0.739351,0.02167 -1.000556,0.07049 -1.407583,0.263047 -0.592323,0.280214 -0.900703,0.889443 -0.749322,1.48034 0.184369,0.719669 0.916607,1.187445 3.251851,2.07738 1.51272,0.576479 2.412876,1.079556 3.09766,1.731218 0.957185,0.910885 1.344695,1.922629 1.348083,3.519676 0.0022,1.040941 -0.154807,1.752979 -0.574199,2.603936 -0.748216,1.518142 -2.237196,2.634465 -4.112022,3.08287 -0.685896,0.164047 -1.327792,0.229335 -2.254742,0.229335 -1.71688,0 -3.317395,-0.249375 -4.676244,-0.728604 -0.539578,-0.190292 -1.431939,-0.595415 -1.431939,-0.650082 0,-0.04832 1.153258,-3.371474 1.17894,-3.397157 0.01212,-0.01212 0.06587,0.0064 0.119413,0.0412 0.185178,0.120321 1.031026,0.483422 1.521483,0.653135 1.350873,0.467442 2.838055,0.659613 3.696772,0.477696 0.862968,-0.18282 1.348108,-0.684203 1.390047,-1.436584 0.03286,-0.589448 -0.2473,-1.02883 -0.94291,-1.478821 -0.413816,-0.267696 -1.492831,-0.78277 -2.401648,-1.146445 -1.543824,-0.617776 -2.489992,-1.148019 -3.116898,-1.746741 -0.562167,-0.53689 -0.878486,-1.066209 -1.090716,-1.825174 l -0.102224,-0.365561 0.0093,3.020564 c 0.0091,2.962142 0.0075,3.029922 -0.08277,3.5043 -0.38587,2.027974 -1.414225,3.399551 -3.1796711,4.240902 -1.0242364,0.488118 -2.151461,0.743698 -3.6860033,0.835743 -0.780025,0.04679 -1.0190312,0.04657 -1.8618289,-0.0017 z"
       id="path1" /><text
       xml:space="preserve"
       style="font-style:normal;font-variant:normal;font-weight:normal;font-stretch:normal;font-size:22.4477px;line-height:93.5506px;font-family:'Book Antiqua';-inkscape-font-specification:'Book Antiqua';letter-spacing:2.33831px;word-spacing:0px;writing-mode:lr-tb;direction:ltr;fill:#093b60;fill-opacity:1;stroke:none;stroke-width:9.72149;stroke-linecap:round;stroke-linejoin:round;stroke-opacity:1"
       x="-13.095139"
       y="112.80141"
       id="text6"><tspan
         sodipodi:role="line"
         id="tspan6"
         style="font-style:normal;font-variant:normal;font-weight:normal;font-stretch:normal;font-family:'Book Antiqua';-inkscape-font-specification:'Book Antiqua';stroke-width:9.72149"
         x="-13.095139"
         y="112.80141">2026</tspan></text></g></svg>
