<?xml version="1.0" encoding="UTF-8" standalone="no"?>
<!-- Created with Inkscape (http://www.inkscape.org/) -->

<svg
   width="202.56308mm"
   height="164.43907mm"
   viewBox="0 0 202.56307 164.43907"
   version="1.1"
   id="svg1"
   xml:space="preserve"
   sodipodi:docname="Icon.svg"
   inkscape:version="1.4.3 (0d15f75, 2025-12-25)"
   xmlns:inkscape="http://www.inkscape.org/namespaces/inkscape"
   xmlns:sodipodi="http://sodipodi.sourceforge.net/DTD/sodipodi-0.dtd"
   xmlns="http://www.w3.org/2000/svg"
   xmlns:svg="http://www.w3.org/2000/svg"><sodipodi:namedview
     id="namedview1"
     pagecolor="#ffffff"
     bordercolor="#000000"
     borderopacity="0.25"
     inkscape:showpageshadow="2"
     inkscape:pageopacity="0.0"
     inkscape:pagecheckerboard="0"
     inkscape:deskcolor="#d1d1d1"
     inkscape:document-units="mm"
     inkscape:zoom="0.65406063"
     inkscape:cx="162.06449"
     inkscape:cy="341.71144"
     inkscape:window-width="1920"
     inkscape:window-height="1094"
     inkscape:window-x="-11"
     inkscape:window-y="-11"
     inkscape:window-maximized="1"
     inkscape:current-layer="layer1"><inkscape:page
       x="0.24033476"
       y="0.39550251"
       width="202.56306"
       height="164.43912"
       id="page2"
       margin="0"
       bleed="0" /></sodipodi:namedview><defs
     id="defs1" /><g
     inkscape:label="Layer 1"
     inkscape:groupmode="layer"
     id="layer1"
     transform="translate(-4.1070322,-56.637874)"><path
       style="fill:#ffffff;fill-opacity:1"
       d="m 93.947008,196.45632 c 0,-0.0645 0.72013,-1.22535 1.60029,-2.57969 1.8937,-2.91394 4.583902,-8.33506 5.886552,-11.86222 1.23457,-3.34281 2.45405,-8.39592 2.95474,-12.24345 0.60057,-4.61504 0.50536,-4.66306 -0.89112,-0.44947 -1.86531,5.62819 -4.262922,11.15025 -6.433212,14.81666 -1.20607,2.03751 -4.29593,6.61459 -4.46532,6.61459 -0.0993,0 -0.57476,-1.16086 -1.05669,-2.57969 -1.30375,-3.83832 -4.96953,-10.85309 -9.09506,-17.40414 -4.703,-7.46804 -5.7829,-9.33628 -6.77713,-11.72454 -1.04696,-2.51489 -1.55644,-4.95535 -1.5622,-7.48295 -0.005,-2.07608 0.91448,-8.20579 1.3539,-9.02843 0.30364,-0.56846 3.60462,-2.92135 5.34854,-3.81235 0.7057,-0.36055 1.24148,-0.6908 1.19063,-0.73389 -0.25108,-0.21273 -4.25144,0.42678 -5.62398,0.89908 -0.85953,0.29576 -1.59248,0.53774 -1.62878,0.53774 -0.0363,0 -0.2441,-0.506 -0.46178,-1.12447 -0.21768,-0.61846 -0.70205,-1.92271 -1.07638,-2.89834 -0.59403,-1.54823 -0.63189,-1.82257 -0.29759,-2.15687 0.87619,-0.87619 8.67806,-0.80664 14.07688,0.12549 l 1.64125,0.28337 -1.8203,1.79519 c -2.7617,2.72361 -4.51129,6.64977 -4.50045,10.09924 l 0.004,1.41702 0.8871,-2.18728 c 1.65962,-4.09208 4.18407,-7.10484 7.88726,-9.41294 2.55321,-1.59134 5.53421,-2.6055 10.144692,-3.45129 2.04293,-0.37478 4.42418,-0.93023 5.29167,-1.23434 2.69619,-0.94519 2.52924,-0.97849 3.63127,0.72438 2.04484,3.15972 3.30891,8.60414 3.55158,15.29688 l 0.15349,4.23334 -2.48089,1.19062 c -6.49902,3.11899 -12.364132,7.53073 -14.987762,11.27379 -0.4917,0.70149 -0.14333,0.5332 2.36351,-1.14174 4.263312,-2.84852 10.803152,-6.03949 16.716272,-8.15635 l 2.07856,-0.74412 -0.18216,-2.42973 -0.18217,-2.42973 1.67548,-1.13943 c 0.92151,-0.62669 2.19862,-1.53683 2.83801,-2.02252 0.63939,-0.4857 1.26372,-0.88309 1.3874,-0.88309 0.33456,0 3.91931,7.30556 5.50339,11.21567 1.76449,4.35543 4.32614,11.30268 6.13859,16.64803 l 1.41851,4.18349 -0.62363,0.51206 c -0.99171,0.81429 -7.46645,4.72 -12.01458,7.24746 -7.38068,4.10156 -17.0112,8.3085 -25.412882,11.10121 -3.56209,1.18404 -4.14995,1.33953 -4.14995,1.09775 z m 34.497922,-48.61991 c -0.39351,-0.62524 -1.26207,-1.97023 -1.93013,-2.98888 -0.66807,-1.01865 -1.24809,-1.92259 -1.28894,-2.00876 -0.0409,-0.0862 0.97118,-1.05042 2.24895,-2.14277 1.27778,-1.09234 3.30321,-2.83753 4.50095,-3.8782 1.19774,-1.04068 2.25747,-1.89214 2.35497,-1.89214 0.53047,0 -0.51134,8.42638 -1.55383,12.5677 l -0.33302,1.32292 -1.64174,0.0785 -1.64174,0.0785 z m 7.57082,-1.60653 c 0,-0.17832 0.18894,-1.15761 0.41986,-2.1762 0.2667,-1.17643 0.45654,-3.56632 0.52044,-6.55169 l 0.10059,-4.69972 1.53008,-1.4583 1.53008,-1.45829 1.98437,0.16737 c 2.62731,0.2216 4.45004,0.93898 6.05721,2.38396 1.25884,1.13181 1.31043,1.1527 1.1082,0.4488 -0.11666,-0.40605 -0.66038,-1.62803 -1.20827,-2.71552 l -0.99616,-1.97726 3.5818,-7.15087 c 3.72289,-7.43258 4.72045,-10.03023 5.76657,-15.0162 0.55534,-2.64686 0.63384,-2.82863 1.16407,-2.69555 0.9377,0.23535 5.18234,0.25676 6.91191,0.0349 l 1.61553,-0.20727 -0.22349,1.39789 c -0.12291,0.76884 -0.52697,4.43398 -0.89791,8.14476 -1.13729,11.37732 -1.98068,15.42893 -4.73654,22.75417 -1.89693,5.04216 -2.3379,5.68453 -4.41524,6.43181 -4.65759,1.67548 -11.26053,3.38184 -15.51832,4.01032 -1.56176,0.23053 -3.16699,0.47269 -3.56717,0.53814 -0.46264,0.0757 -0.72761,9.2e-4 -0.72761,-0.20522 z m -19.31458,-2.67898 c 0,-0.64038 -0.23297,-2.51561 -0.51771,-4.16718 -0.76653,-4.44599 -2.02969,-7.85507 -3.60361,-9.72557 -0.38886,-0.46214 -0.66244,-0.88091 -0.60796,-0.93061 0.0545,-0.0497 1.05157,-0.58101 2.21574,-1.1807 2.09384,-1.07857 8.63551,-4.67778 9.43097,-5.18888 0.22648,-0.14552 1.22675,-1.51474 2.22283,-3.04271 1.43334,-2.19873 2.84769,-3.82231 6.78164,-7.78487 5.10477,-5.14189 6.9937,-7.4427 9.41195,-11.46423 1.81977,-3.026237 1.82614,-3.604597 0.0732,-6.645967 -2.15339,-3.73615 -2.45366,-4.85089 -2.48074,-9.20973 -0.0206,-3.31597 0.0343,-3.81529 0.47245,-4.29948 0.58291,-0.6441 1.40245,-0.69455 2.67121,-0.16443 1.07064,0.44734 1.10469,0.57393 0.36591,1.36033 -0.47051,0.50084 -1.2057,2.67679 -0.9789,2.89727 0.0414,0.0403 0.84923,-0.89817 1.79511,-2.08544 1.77523,-2.22824 2.40001,-2.59143 3.30922,-1.92372 0.52027,0.38209 0.51802,0.39709 -0.17016,1.13447 -0.65852,0.7056 -1.55156,2.21829 -1.55156,2.62814 0,0.10305 0.7636,-0.54588 1.69689,-1.44207 1.21387,-1.16562 1.89798,-1.62944 2.4033,-1.62944 0.38853,0 0.66604,0.0893 0.6167,0.19844 -0.0493,0.10914 -0.41846,0.82352 -0.82026,1.5875 -0.4018,0.76398 -0.61972,1.38906 -0.48428,1.38906 0.13544,0 0.86387,-0.77616 1.61874,-1.72481 1.89261,-2.37847 2.87582,-2.80371 3.96476,-1.71477 0.73267,0.73267 0.66203,1.24062 -0.23721,1.70563 -0.53481,0.27656 -0.89455,0.77251 -1.19062,1.64143 -0.54623,1.60309 -0.53603,1.96465 0.13446,4.76799 0.79513,3.32446 0.60815,5.67636 -0.67771,8.52425 -0.53154,1.17723 -1.91449,4.836557 -3.07325,8.131827 -2.59559,7.38145 -3.88213,10.6036 -5.5439,13.8848 -3.09286,6.1069 -5.3317,8.97788 -9.19871,11.79601 -1.53477,1.11848 -4.44089,3.43785 -6.45805,5.15414 -5.82086,4.95267 -10.71031,8.68766 -11.37297,8.68766 -0.11961,0 -0.21747,-0.52395 -0.21747,-1.16434 z M 82.569928,130.28067 c -0.21828,-0.0471 -1.18234,-0.15992 -2.14235,-0.25062 l -1.74547,-0.16492 -0.87844,-2.0338 c -0.48314,-1.11858 -0.97889,-2.16661 -1.10167,-2.32895 -0.12278,-0.16234 -0.76397,-0.36928 -1.42487,-0.45986 -1.80247,-0.24706 -5.17651,-2.71638 -6.09046,-4.45736 -0.50212,-0.95647 -0.48,-2.71469 0.0407,-3.23539 0.51802,-0.51802 2.02044,-0.53776 2.98453,-0.0392 0.4005,0.20711 1.23048,0.92148 1.84439,1.5875 0.836,0.90695 1.31017,1.21094 1.88889,1.21094 1.05383,0 1.15933,-0.29234 0.68362,-1.89424 -0.22488,-0.75725 -0.40887,-1.89325 -0.40887,-2.52445 0,-1.05237 0.0494,-1.13683 0.59531,-1.01735 5.00997,1.09653 7.91979,0.83913 10.6026,-0.93789 0.68865,-0.45614 2.31913,-2.05506 3.62328,-3.55315 2.33806,-2.68573 4.58411,-4.62501 5.35664,-4.62501 0.49626,0 0.89868,1.03991 1.11409,2.879 0.0917,0.78308 0.51623,2.11607 0.94335,2.9622 1.05142,2.08285 1.576372,5.52662 1.569852,10.29839 -0.008,5.57113 -0.364602,6.63559 -2.661902,7.9375 -1.09282,0.61931 -1.39474,0.66001 -4.73905,0.63877 -3.07507,-0.0195 -3.896,-0.12119 -5.90219,-0.73086 -2.30153,-0.69941 -3.99732,-1.46744 -5.67333,-2.56947 -1.28309,-0.84367 -1.0474,-0.31697 0.74866,1.67304 0.88471,0.98025 1.50979,1.76846 1.38906,1.75158 -0.12072,-0.0169 -0.39809,-0.0693 -0.61637,-0.11639 z m 19.629112,-2.93534 c 0.13186,-0.84084 0.28813,-1.57719 0.34728,-1.63634 0.38583,-0.38583 3.60884,-0.82697 5.95277,-0.81476 3.86227,0.0201 4.16533,0.19765 2.0751,1.21569 -1.94544,0.94752 -5.952,2.32282 -7.52781,2.58401 l -1.08708,0.18019 z M 67.816588,115.01577 c -0.5182,-0.64419 -1.891059,-3.58243 -2.454059,-5.25224 -0.79457,-2.35669 -0.7946,-5.82182 -6e-5,-8.16109 1.523509,-4.485467 5.910999,-8.434067 11.254339,-10.128527 2.58734,-0.82049 7.56244,-0.84082 9.54622,-0.039 1.99865,0.80782 4.21113,2.60594 6.1285,4.98072 l 1.70654,2.11367 -1.77632,0.32784 c -6.40974,1.182997 -11.99842,4.925617 -19.00841,12.729527 -3.13178,3.48647 -4.60009,4.41944 -5.39675,3.4291 z m 9.6265,-2.46177 c -1.00075,-0.19885 -1.88737,-0.42936 -1.97027,-0.51225 -0.0829,-0.0829 0.79543,-1.1092 1.95184,-2.28068 6.11155,-6.19117 12.32759,-9.52935 17.84397,-9.5827 2.66491,-0.0258 5.989902,0.53429 7.406632,1.24758 1.4475,0.72878 1.79313,1.38876 0.42876,0.81869 -1.32503,-0.55363 -3.858242,-0.49164 -5.657902,0.13845 -1.91602,0.67083 -4.71443,2.56927 -6.16135,4.17985 -5.11459,5.69312 -6.21382,6.41012 -9.77317,6.37486 -1.23693,-0.0122 -3.06776,-0.18496 -4.06851,-0.3838 z m 80.400802,-11.17976 c -0.75229,-0.17628 -0.80066,-0.26884 -0.92604,-1.771967 -0.0865,-1.03634 -0.33102,-1.86457 -0.70572,-2.38984 -0.52595,-0.7373 -0.56117,-1.02641 -0.42533,-3.49158 l 0.1481,-2.68771 0.8222,0.15682 c 1.45804,0.27809 3.17458,1.2286 4.36205,2.4154 l 1.15859,1.15794 -0.18262,-1.21778 -0.18261,-1.21777 1.0084,0.009 c 1.31743,0.0122 4.29111,0.65405 4.6383,1.00123 0.18595,0.18596 0.13321,1.10035 -0.16707,2.89611 -0.32263,1.92947 -0.36629,2.81511 -0.16489,3.34483 0.38523,1.013217 0.36181,1.089147 -0.45367,1.470697 -0.8147,0.38118 -7.63061,0.62874 -8.92969,0.32433 z m 10.18646,-10.101487 c -0.50933,-0.11445 -1.37183,-0.28635 -1.91667,-0.38199 l -0.99062,-0.1739 0.43932,-0.6705 c 0.24163,-0.36877 0.64234,-1.28624 0.89046,-2.03882 l 0.45113,-1.36833 2.08454,0.0874 c 2.6575,0.11141 3.11479,0.45483 2.94592,2.21229 -0.17585,1.83012 -0.77397,2.60137 -1.99195,2.56854 -0.54235,-0.0146 -1.40281,-0.12022 -1.91213,-0.23467 z m -8.3528,-1.25018 c -0.39878,-0.39878 -0.43234,-0.84126 -0.27995,-3.69171 0.19981,-3.73766 0.25815,-3.96261 1.06781,-4.11739 1.48252,-0.2834 2.19468,0.6096 1.74079,2.18284 -0.14598,0.50599 -0.33815,1.93201 -0.42705,3.16894 -0.11346,1.57886 -0.28558,2.3475 -0.57766,2.57969 -0.56531,0.4494 -0.98595,0.41562 -1.52394,-0.12237 z m -3.04504,-1.098 c -0.51701,-0.41865 -0.61539,-0.79647 -0.71839,-2.75874 -0.13647,-2.60018 0.0543,-3.96338 0.63614,-4.5452 0.52429,-0.52429 1.27708,-0.51642 1.81244,0.0189 0.42947,0.42946 0.42606,1.47862 -0.019,5.86048 -0.17156,1.68889 -0.7697,2.18684 -1.71114,1.42452 z m 6.20039,0.0921 c -0.24858,-0.64779 0.0698,-4.1187 0.45533,-4.96348 0.44435,-0.97375 1.41412,-1.2034 2.29729,-0.54401 1.15609,0.86314 1.30829,1.30628 0.63688,1.85425 -0.32484,0.26512 -0.85461,1.25594 -1.17727,2.20183 -0.51427,1.50757 -0.67663,1.73014 -1.31577,1.80366 -0.48844,0.0562 -0.78434,-0.0601 -0.89646,-0.35225 z M 37.710459,88.780813 c -2.141,-0.93258 -4.06011,-4.51458 -3.72575,-6.95405 0.28787,-2.10023 1.65458,-4.50646 3.74948,-6.60136 2.21805,-2.21805 3.99549,-3.41827 6.60345,-4.459 1.57594,-0.62888 2.22685,-0.7385 4.36563,-0.73517 2.11395,0.003 9.68281,0.9349 9.97578,1.22787 0.0505,0.0505 0.0129,0.76346 -0.0836,1.58439 -0.19994,1.70114 0.0661,1.61392 -3.40986,1.118 -3.60626,-0.51451 -3.86331,-0.35186 -5.24515,3.31904 -2.0398,5.41876 -5.57868,10.48673 -8.04167,11.51632 -1.07544,0.44957 -3.13749,0.44167 -4.18828,-0.016 z m 95.419871,-3.29731 c -4.52439,-0.77296 -4.76276,-0.92242 -4.41631,-2.76911 0.2932,-1.56291 0.5255,-1.62153 4.45947,-1.12532 5.20947,0.65711 4.69435,0.36369 4.69435,2.67394 0,1.42373 -0.0928,1.97056 -0.33073,1.9481 -0.1819,-0.0172 -2.16495,-0.3446 -4.40678,-0.72761 z m -8.62395,-1.67067 c -0.72761,-0.13951 -6.74026,-1.07331 -13.36146,-2.07511 -6.6212,-1.00179 -15.253222,-2.30935 -19.182282,-2.90568 -17.28263,-2.62307 -27.877639,-4.21099 -29.104169,-4.36198 -2.40089,-0.29556 -2.51389,-0.3465 -2.50949,-1.1312 0.008,-1.44865 0.0243,-1.45077 5.43905,-0.71404 2.754369,0.37475 7.627319,1.03404 10.828779,1.46507 3.20146,0.43104 8.32114,1.13271 11.37708,1.55927 3.05594,0.42656 9.54483,1.32249 14.419782,1.99096 22.85767,3.1343 24.42635,3.35485 24.62051,3.46163 0.0806,0.0443 0.0252,0.74285 -0.12305,1.55226 -0.29526,1.61175 -0.22333,1.57709 -2.40475,1.15882 z"
       id="path1"
       sodipodi:nodetypes="cssssssssscssssssssscsccsssssscsssscccssssscssscccssssssccccssscccsssscsssccssssssssssssssssssscsscsssssscssssssssssssssssscsssssssssscssssscscssssssssssscssssssscsssssscsssscsccsscssccccssssccsscsscsssssssssssscssssccscssssscssccscsssccsssssssssscssssscs" /><path
       style="fill:#16a34a;fill-opacity:1"
       d="M 54.164147,221.28641 C 32.494589,219.24951 16.026458,209.29399 8.6841559,193.79226 5.8918152,187.89683 4.6503252,182.62537 4.3850052,175.53787 c -0.398446,-10.64418 2.37039,-22.13012 8.1274858,-33.71505 2.021431,-4.0677 4.761867,-8.95149 4.929107,-8.78426 0.0447,0.0447 -0.44191,1.20163 -1.08131,2.57101 -2.574116,5.51282 -4.884967,13.03747 -5.883657,19.15851 -0.34418,2.10948 -0.47466,4.36666 -0.47413,8.20208 6.5e-4,4.73132 0.0758,5.64473 0.70967,8.62583 1.79765,8.4544 4.937177,14.46203 10.588204,20.26102 1.58522,1.62672 3.972601,3.73537 5.305297,4.68589 14.165075,10.10296 37.184339,12.62451 62.832553,6.88273 41.267765,-9.23847 82.008895,-39.20909 98.763075,-72.65367 4.53353,-9.04977 6.87047,-17.09508 7.35447,-25.31897 0.86268,-14.658162 -4.44613,-26.365684 -15.73829,-34.707694 -6.75578,-4.99078 -15.92441,-8.27922 -27.36064,-9.81321 -3.93617,-0.52797 -15.91789,-0.4556 -20.90211,0.12625 -12.09887,1.4124 -22.66786,4.08447 -36.359538,9.19248 -3.481137,1.29872 -6.372117,2.31854 -6.424387,2.26627 -0.0523,-0.0523 1.60531,-0.87438 3.68352,-1.8269 27.543655,-12.6244 55.284515,-16.73539 76.465105,-11.33158 15.6122,3.98315 26.93102,12.27484 32.96999,24.152462 3.17799,6.25055 4.76086,12.69529 4.99186,20.324702 0.33744,11.14449 -2.24444,21.87744 -8.25514,34.31678 -6.28751,13.01224 -15.32367,24.93273 -28.30992,37.34642 -11.86093,11.33798 -25.25783,20.73716 -41.01044,28.77266 -17.75463,9.05674 -34.605738,14.42888 -52.255185,16.65896 -3.9556,0.49981 -18.885291,0.73192 -22.886448,0.35582 z m 57.282243,-4.58027 c 0,-0.0642 0.44649,-0.26067 0.99219,-0.4365 2.02671,-0.65301 10.39317,-4.23799 14.61824,-6.26382 26.57407,-12.74173 50.39324,-32.35672 65.79196,-54.17941 2.35475,-3.3371 5.41954,-8.23543 7.24133,-11.57355 0.77373,-1.41774 1.44765,-2.53687 1.49758,-2.48693 0.0499,0.0499 -0.51296,1.44802 -1.25087,3.10688 -4.19519,9.431 -9.7506,18.29111 -16.65602,26.56402 -14.40387,17.25628 -33.74927,31.11893 -55.56565,39.8176 -6.05138,2.41282 -16.66876,5.88535 -16.66876,5.45171 z M 26.992672,191.43931 c -10.858124,-8.99258 -15.400421,-23.06758 -12.50423,-38.74623 4.591727,-24.85747 24.983854,-50.96977 54.095486,-69.269702 5.542097,-3.483822 5.687347,-3.503222 0.85753,-0.11454 -21.901658,15.36661 -39.227065,36.229812 -47.534613,57.241002 -7.641003,19.32537 -6.043487,37.18559 4.412767,49.3345 0.88372,1.02678 2.03339,2.26377 2.55482,2.74887 1.692971,1.57501 0.70376,0.9474 -1.88176,-1.1939 z M 184.71698,122.87082 c 3.12362,-9.04777 3.37389,-19.87904 0.65221,-28.226672 -2.97592,-9.12742 -9.2512,-15.941702 -18.9319,-20.558012 -11.96686,-5.70648 -28.86972,-7.35688 -45.95034,-4.48659 -3.89489,0.65451 -3.09746,0.26719 1.34014,-0.65093 9.15615,-1.89434 15.90537,-2.56739 23.3537,-2.32886 15.35379,0.4917 27.5062,4.97807 35.35148,13.05091 5.08609,5.233622 7.94488,11.795032 8.71698,20.007007 0.64248,6.833387 -0.77146,15.043987 -3.90486,22.674947 -1.23428,3.00598 -1.58678,3.29712 -0.62741,0.5182 z"
       id="path1-2"
       sodipodi:nodetypes="ssssssssssssssssssscssssssssssssssssssssscssssssscssssss" /><circle
       style="fill:none;stroke:#ffffff;stroke-width:11;stroke-dasharray:none;stroke-opacity:1"
       id="path3"
       cx="-104.58974"
       cy="326.47162"
       r="71.51078" /><circle
       style="fill:none;stroke:#ffffff;stroke-width:6.26122;stroke-dasharray:none;stroke-opacity:1"
       id="path4"
       cx="-104.90636"
       cy="310.00833"
       r="30.710348" /><path
       style="fill:none;stroke:#ffffff;stroke-width:6.26122;stroke-linecap:round;stroke-linejoin:round;stroke-dasharray:none;stroke-opacity:1"
       d="m -122.63604,336.60285 v 11.39765 c 0,0 5.21447,7.03492 6.60643,11.11354 4.11721,12.06393 4.63294,37.95971 4.63294,37.95971"
       id="path5"
       sodipodi:nodetypes="ccac" /><path
       style="fill:none;stroke:#ffffff;stroke-width:6.26122;stroke-linecap:round;stroke-linejoin:round;stroke-dasharray:none;stroke-opacity:1"
       d="m -87.18482,336.08446 v 11.39765 c 0,0 -5.21446,7.03491 -6.60642,11.11354 -4.11721,12.06392 -4.63294,37.9597 -4.63294,37.9597"
       id="path5-7"
       sodipodi:nodetypes="ccac" /><path
       style="fill:#ffffff;fill-opacity:0.286538;stroke:none;stroke-width:11;stroke-linecap:round;stroke-linejoin:round;stroke-dasharray:none;stroke-opacity:1"
       d="m -132.7328,322.99858 c 0,0 15.53202,8.82014 35.31614,-0.004 19.94642,-8.89613 20.462,-25.16808 20.462,-25.16808 l 3.14647,14.3021 -2.86042,10.58354 -6.57896,10.29751 -16.30438,8.00917 -19.45084,-2.57438 z"
       id="path6"
       sodipodi:nodetypes="csccccccc" /><path
       style="fill:#ffffff;fill-opacity:0.286538;stroke:none;stroke-width:11;stroke-linecap:round;stroke-linejoin:round;stroke-dasharray:none;stroke-opacity:1"
       d="m -153.73233,383.20616 c 0,0 14.24035,-11.46052 38.60572,-14.10738 3.18096,-0.34555 1.38575,29.4935 4.9027,29.4935 1.27672,0 9.12006,5.80884 11.371566,-0.13267 3.22171,-8.50172 0.98674,-29.67636 2.63689,-29.53849 27.61578,2.30736 40.73435,14.82595 40.73435,14.82595 l -15.58515,8.04035 -37.471476,8.58125 -23.16938,-4.86271 z"
       id="path7"
       sodipodi:nodetypes="cssssccccc" /><path
       style="fill:#ffffff;fill-opacity:0.286538;stroke:none;stroke-width:11;stroke-linecap:round;stroke-linejoin:round;stroke-dasharray:none;stroke-opacity:1"
       d="m -123.12586,347.25587 c 0,0 6.15664,2.86828 9.41686,3.75965 2.61334,0.71452 8.03169,1.24608 8.03169,1.24608 v 44.96061 h 6.292916 V 369.0471 l 6.72198,-11.44168 4.14761,-6.43593 2.57438,-9.15334 -2.14532,-3.57553 -13.157916,3.14646 -20.59501,-2.43135 -2.14532,1.57323 z"
       id="path8"
       sodipodi:nodetypes="cacccccccccccc" /></g></svg>
